<svg><defs><font id="MyriadPro-Regular" horiz-adv-x="300"><font-face font-family="Myriad Pro" font-weight="400" panose-1="2 11 5 3 3 4 3 2 2 4" ascent="750" descent="-250" x-height="484" cap-height="674" bbox="-157 -250 1126 952" underline-thickness="50" underline-position="-50" unicode-range="U+0020-U+FB04"/><glyph glyph-name="f_f_j" unicode="ffj" horiz-adv-x="809" d="M705 690l-25.999-66.002c-27.333 17.333-60.333 26-99 26-80 0-120-47.333-120-142v-24h282v-441c0-93.333-19.333-159.666-58-198.999-18-18-41-31.667-69-41s-55-14-81-14l-10 69c44.667 3.333 76.667 15.666 96 36.999 12.667 14.667 21.5 34.667 26.5 60s7.5 66 7.5 122v340h-194v-417h-87v417h-204v-417h-87v417h-67v67h67v17c0 68.667 19.333 122 58 160 30 31.333 71.333 47 124 47 28.667 0 57-7 85-21l-25-65c-18.667 11.333-38.667 17-60 17-25.333 0-46.333-8.333-63-25-21.333-23.333-32-60.666-32-111.999v-18h204v27c0 64.667 18.5 115.834 55.5 153.501s88.833 56.5 155.5 56.5c49.333 0 89.666-10.333 120.999-31z"/><glyph glyph-name="f_j" unicode="fj" horiz-adv-x="522" d="M169 0L81.999-.001v417h-67v67h67v27c0 64.667 18.5 115.834 55.5 153.501s88.833 56.5 155.5 56.5c22.667 0 45.667-3 69-9s41.333-13.667 54-23l-25-67c-27.333 18.667-61.333 28-102 28-80 0-120-47.333-120-142v-24h281V43c0-93.333-19.333-159.666-58-198.999-18-18-41-31.667-69-41s-55-14-81-14l-9 69C277.666-138.666 309.333-126.333 328-105c12.667 14.667 21.5 34.667 26.5 60S362 21 362 77v340H169V0z"/><glyph glyph-name="f_f" unicode="ff" horiz-adv-x="583" d="M460 0l-87 .001v417H169v-417H82v417H15v67h67v15c0 73.333 18 128.333 54 165 30 30 70.667 45 122 45 24.667 0 47.667-5.667 69-17l-18-66c-16 8.667-33.333 13-52 13-58.667 0-88-45-88-135v-20h204v23c0 77.333 18.667 133.666 56 168.999 30.667 30 69.667 45 117 45 28.667 0 53.667-4.667 75-14l-11-68c-17.333 7.333-36.333 11-57 11-62 0-93-46.667-93-140v-26h116v-67H460V0z"/><glyph glyph-name="f_f_i" unicode="ffi" horiz-adv-x="815" d="M705 690l-25.999-66.002c-27.333 17.333-60.333 26-99 26-80 0-120-47.333-120-142v-24h282v-484h-88v417h-194v-417h-87v417h-204v-417h-87v417h-67v67h67v17c0 68.667 19.333 122 58 160 30 31.333 71.333 47 124 47 28.667 0 57-7 85-21l-25-65c-18.667 11.333-38.667 17-60 17-25.333 0-46.333-8.333-63-25-21.333-23.333-32-60.666-32-111.999v-18h204v27c0 64.667 18.5 115.834 55.5 153.501s88.833 56.5 155.5 56.5c49.333 0 89.666-10.333 120.999-31z"/><glyph glyph-name="f_f_l" unicode="ffl" horiz-adv-x="815" d="M349 690l-22.999-66c-18 10-38 15-60 15-27.333 0-48.666-8.333-63.999-25-22-22.667-33-59.667-33-111v-19h204v21c0 72.667 23 128.334 69 167.001 38 32.667 89.667 49 155 49 57.333 0 105.666-10.667 144.999-32v-689h-88v640c-16 8.667-40 13-72 13-42.667 0-73.667-13.333-93-40s-29-61.334-29-104.001v-25h114v-67h-113V0h-88v417h-204V0h-87v417h-67v67h67v11c0 72.667 18.667 127.667 56 165 33.333 32 76.666 48 129.999 48 28 0 55-6 81-18z"/><glyph glyph-name="f_i" unicode="fi" horiz-adv-x="523" d="M169 0L82-.001v417H15v67h67v27c0 64.667 18.5 115.834 55.5 153.501S226.333 721 293 721c22.667 0 45.667-3 69-9s41.333-13.667 54-23l-25-67c-27.333 18.667-61.333 28-102 28-80 0-120-47.333-120-142v-24h281V0h-88v417H169V0z"/><glyph glyph-name="f_l" unicode="fl" horiz-adv-x="523" d="M169 0L82.001.001v417h-67v67h67v21c0 72 22.667 127.667 68 167 38.667 32.667 90.667 49 156 49 57.333 0 105.666-10.667 144.999-32v-689h-88v640c-16 8.667-40 13-72 13-42.667 0-73.667-13.333-93-40S169 551.667 169 509v-25h113v-67H169V0z"/><glyph glyph-name=".notdef" horiz-adv-x="500" d="M0 0v700h500V0H0zm250 395l170 255H80zm30-45L450 95v510zM80 50h340L250 305zM50 605V95l170 255z"/><glyph glyph-name="space" horiz-adv-x="212"/><glyph glyph-name="exclam" unicode="!" horiz-adv-x="230" d="M149 193H81L67 674h96zM114-11C97.333-11 83.501-5 72.501 7s-16.5 26.667-16.5 44c0 18 5.667 32.833 17 44.5S98.667 113 116 113s31.333-5.833 42-17.5S174 69 174 51s-5.5-32.833-16.5-44.5S132-11 114-11z"/><glyph glyph-name="quotedbl" unicode="&quot;" horiz-adv-x="337" d="M51 692h87l-17-240H67zm149 0h87l-17-240h-53z"/><glyph glyph-name="numbersign" unicode="#" horiz-adv-x="497" d="M188 255h104l19 145H207zM154 0H94l26 196H37v59h92l19 145H61v59h95l26 191h59l-26-191h105l25 191h59l-25-191h82v-59h-91l-18-145h86v-59h-95L317 0h-60l26 196H179z"/><glyph glyph-name="dollar" unicode="$" horiz-adv-x="513" d="M281-85h-63V15c-62 1.333-112.667 16-152 44l24 67c43.333-28.667 91-43 143-43 35.333 0 64 9.167 86 27.5s33 41.833 33 70.5c0 26.667-9.167 49.334-27.5 68.001s-46.833 35.667-85.5 51c-55.333 21.333-96.666 45.333-123.999 72s-41 60.667-41 102 13.667 76.666 41 105.999S178.667 627.666 224 634.999v100h63v-97c48.667-1.333 92-13 130-35l-25-66c-40.667 23.333-82.667 35-126 35-35.333 0-61.833-8.667-79.5-26S160 508.333 160 485c0-24.667 9.167-45 27.5-61s50.5-33.667 96.5-53c53.333-22 92.5-47 117.5-75S439 232.333 439 189c0-42-14-78.833-42-110.5S330.333 27 281 19V-85z"/><glyph glyph-name="percent" unicode="%" horiz-adv-x="792" d="M188 661c45.333 0 81.501-17 108.501-51s40.5-81.333 40.5-142c0-65.333-14.667-115.833-44-151.5s-66.333-53.5-111-53.5c-43.333 0-79.333 17-108 51S30.667 396 30 458c0 63.333 15 113 45 149s67.667 54 113 54zm-4.999-53c-26 0-46.502-13.834-61.502-41.501s-22.5-62.5-22.5-104.5c-1.333-42.667 5.834-77.667 21.501-105s36.834-41 63.501-41c28 0 49 13.333 63 40s21 62.334 21 107.001c0 43.333-6.833 78.333-20.5 105s-35.167 40-64.5 40zm47.998-620.001h-56l383 674h56zm381 404c45.333 0 81.501-17 108.501-51s40.5-81.667 40.5-143c0-65.333-14.667-115.833-44-151.5s-66.333-53.5-111-53.5c-43.333 0-79.333 17-108 51s-43.334 82.333-44.001 145c0 63.333 15 113 45 149s67.667 54 113 54zm-4.999-53c-26 0-46.502-13.832-61.502-41.499s-22.5-62.834-22.5-105.501c-1.333-42.667 5.834-77.667 21.501-105s36.834-41 63.501-41c28 0 49 13.333 63 40s21 62.667 21 108c0 43.333-6.833 78.333-20.5 105s-35.167 40-64.5 40z"/><glyph glyph-name="ampersand" unicode="&amp;" horiz-adv-x="605" d="M602 0L497.999-.001l-29 30-34 35c-55.333-50.667-121-76-197-76-63.333 0-113.666 18.333-150.999 55S31 125.333 31 178c0 83.333 44 149 132 197v3c-37.333 46.667-56 93.667-56 141 0 44.667 15.167 83.667 45.5 117s72.166 50 125.499 50c42.667 0 78.167-13 106.5-39s42.5-60.667 42.5-104c0-36-11.5-68.5-34.5-97.5s-60.833-56.5-113.5-82.5v-4l164-187c30 46 51.667 111.667 65 197h80C568.666 257 536.333 174 491 120zM253.999 54.999c54.667 0 100.667 20.333 138 61l-190 213c-58-37.333-87-83.333-87-138 0-38.667 13-71 39-97s59.333-39 100-39zm17 571c-26 0-46.5-9.499-61.5-28.499s-22.5-42.167-22.5-69.5c0-37.333 17-78 51-122 38 22 66.167 42.833 84.5 62.5s27.5 43.167 27.5 70.5c0 23.333-6.667 43.666-20 60.999s-33 26-59 26z"/><glyph glyph-name="quotesingle" unicode="'" horiz-adv-x="188" d="M51 692h87l-17-240H67z"/><glyph glyph-name="parenleft" unicode="(" horiz-adv-x="284" d="M195 694l67.999.002c-83.333-113.333-125-250-125-410 0-150.667 41.667-285.667 125-405h-68c-87.333 115.333-131 250.666-131 405.999C64.666 442.334 108.333 578.667 195 694z"/><glyph glyph-name="parenright" unicode=")" horiz-adv-x="284" d="M88-121H20.001c83.333 118 125 254 125 408s-41.667 289.667-125 407h68c87.333-114 131-249.667 131-407C218.334 130.333 174.667-5.667 88-121z"/><glyph glyph-name="asterisk" unicode="*" horiz-adv-x="415" d="M269 686l60-35-95-125v-2l151 20v-68l-151 19v-3l96-120-63-36-61 140h-2l-64-141-57 36 95 122v3L30 476v68l147-19v2L83 650l61 35 62-140h2z"/><glyph glyph-name="plus" unicode="+" horiz-adv-x="596" d="M266 532h64V297h226v-60H330V0h-64v237H40v60h226v235z"/><glyph glyph-name="comma" unicode="," horiz-adv-x="207" d="M78-117l-62-7C42.667-50.667 62.667 29.333 76 116l98 10c-12-42.667-27.5-88-46.5-136S92-93.667 78-117z"/><glyph glyph-name="hyphen" unicode="-" horiz-adv-x="307" d="M30 302h247v-64H30v64z"/><glyph glyph-name="period" unicode="." horiz-adv-x="207" d="M110-11C93.333-11 79.501-4.999 68.501 7.001s-16.5 27-16.5 45 5.667 33 17 45 25.666 18 42.999 18 31.5-5.833 42.5-17.5S171 70.667 171 52c0-18-5.667-33-17-45s-26-18-44-18z"/><glyph glyph-name="slash" unicode="/" horiz-adv-x="343" d="M66-39H-1l278 725h69z"/><glyph glyph-name="zero" unicode="0" horiz-adv-x="513" d="M263 661c68 0 120.833-29 158.5-87S478 435.333 478 332c0-110-19.667-194.667-59-254s-95-89-167-89c-64.667 0-116.667 29.333-156 88S36.667 217.667 36 323c0 106.667 20.833 189.667 62.5 249S195 661 263 661zm-6-68c-39.333 0-71.166-23.667-95.499-71s-36.5-114-36.5-200c0-83.333 11.833-148.333 35.5-195s55.834-70 96.501-70c43.333 0 76.166 23.833 98.499 71.5s33.5 114.167 33.5 199.5c0 83.333-10.833 148.333-32.5 195S301.667 593 257 593z"/><glyph glyph-name="one" unicode="1" horiz-adv-x="513" d="M236 0v568h-2l-113-61-17 67 142 76h75V0h-85z"/><glyph glyph-name="two" unicode="2" horiz-adv-x="513" d="M460 0L45-.001v54l69 67c90.667 86 153.667 152.667 189 200s53 94 53 140c0 37.333-10 67.833-30 91.5s-52.667 35.5-98 35.5c-48 0-94-18.333-138-55l-28 62c52 44 113 66 183 66 65.333 0 114.833-18.667 148.5-56S444 523.333 444 472c0-55.333-17.667-108.5-53-159.5S298.667 198.333 220 123l-51-48v-2h291V0z"/><glyph glyph-name="three" unicode="3" horiz-adv-x="513" d="M42 33l24.001 67c44.667-26.667 92.667-40 144-40s88.833 12.833 112.5 38.5 35.167 54.834 34.5 87.501c-.667 42.667-17.167 75-49.5 97s-71.833 33-118.5 33h-49v66h49c36.667 0 70 9.5 100 28.5s45 46.167 45 81.5c0 28-9.5 51.333-28.5 70s-47.5 28-85.5 28c-46.667 0-90-14.333-130-43l-24 64c46.667 33.333 103.667 50 171 50 60 0 106-15 138-45s48-66.667 48-110c0-34.667-10.333-65.5-31-92.5s-50.334-47.5-89.001-61.5v-2c42-8 76.5-26.667 103.5-56s40.833-66 41.5-110c0-54.667-21-100.834-63-138.501S285-11 211-11C143-11 86.667 3.667 42 33z"/><glyph glyph-name="four" unicode="4" horiz-adv-x="513" d="M400 0h-83v178H15v57l290 415h95V246h91v-68h-91V0zM104 246h213v217c0 34 1 68 3 102h-3a2226.34 2226.34 0 0 0-54-96L104 248v-2z"/><glyph glyph-name="five" unicode="5" horiz-adv-x="513" d="M433 650v-74.001H185l-25-167c15.333 2 33 3 53 3 56 0 102.667-11.667 140-35 27.333-15.333 49.666-37.166 66.999-65.499s26-61.833 26-100.5c0-64-22.833-117-68.5-159s-103.5-63-173.5-63c-65.333 0-119.333 13.333-162 40l22 67C104.666 72 151.333 60 204 60c42.667 0 79 13 109 39s44.667 60 44 102c0 44-15.5 78.833-46.5 104.5S233 344 171 344c-28.667 0-59-2-91-6l42 312h311z"/><glyph glyph-name="six" unicode="6" horiz-adv-x="513" d="M416 660v-71.999c-17.333.667-39.333-1-66-5-66-10.667-118.167-37.167-156.5-79.5s-61.5-92.5-69.5-150.5h2c37.333 50.667 90 76 158 76 58 0 105.167-19.333 141.5-58S480 281.667 480 219s-19.833-116.667-59.5-162S328.333-11 263-11c-69.333 0-124.833 25.167-166.5 75.5S34 182 34 266c0 123.333 36.667 221 110 293 54.667 54 124 86 208 96 22 3.333 43.333 5 64 5zM265 57.001c37.333 0 67.667 14.332 91 42.999s35 66.334 35 113.001c0 46-12.167 82.333-36.5 109s-56.833 40-97.5 40c-26.667 0-51.5-7.333-74.5-22s-40.5-34-52.5-58c-6-12-9-24.667-9-38 .667-55.333 13.5-100.333 38.5-135s60.167-52 105.5-52z"/><glyph glyph-name="seven" unicode="7" horiz-adv-x="513" d="M57 650h410v-58L184 0H93l282 575v2H57v73z"/><glyph glyph-name="eight" unicode="8" horiz-adv-x="513" d="M166 339l-1 3c-34.667 16-60.667 37-78 63s-26 53.667-26 83c0 50.667 19.167 92.167 57.5 124.5S205 661 263 661c60 0 106.667-15.667 140-47s50-69 50-113c0-68-36-118.667-108-152v-3c87.333-34.667 131-90.667 131-168 0-56-21-101.5-63-136.5S318.333-11 255-11C189-11 136.167 5.833 96.5 39.5S37 114.667 37 164c0 80 43 138.333 129 175zm91-286c39.333 0 70.832 10.833 94.499 32.5s35.5 49.5 35.5 83.5c0 37.333-12.167 67-36.5 89s-59.833 39.667-106.5 53c-37.333-10.667-66.166-28-86.499-52S127 207.333 127 176c-1.333-34 10-63 34-87s56-36 96-36zm.999 545c-35.333 0-63-10-83-30s-30-44.667-30-74c-.667-30.667 9.833-55.667 31.5-75s52.5-34.333 92.5-45c30 10 54 25.167 72 45.5s27 44.5 27 72.5c0 29.333-9.167 54.333-27.5 75s-45.833 31-82.5 31z"/><glyph glyph-name="nine" unicode="9" horiz-adv-x="513" d="M96-10l-.001 72.003c13.333-1.333 37-.333 71 3 55.333 7.333 100.666 28.333 135.999 63 46 41.333 74.667 98.666 86 171.999h-3c-37.333-46-88.666-69-153.999-69-56.667 0-102.667 19-138 57s-53 85.333-53 142c0 63.333 20.833 117.666 62.5 162.999S198.333 661 263 661c66 0 118.333-24.833 157-74.5S478 470 478 386c0-130.667-37.333-232-112-304C315.333 32.668 252.333 3.668 177-5c-28.667-4.666-55.667-6.333-81-5zm158.999 604.003c-37.333 0-67.833-14.831-91.5-44.498s-35.5-67.834-35.5-114.501c0-40.667 11.333-73.834 34-99.501s53-38.5 91-38.5c28.667 0 54.167 6.167 76.5 18.5s39.5 28.833 51.5 49.5c5.333 9.333 8 20.333 8 33 0 58.667-11.167 106-33.5 142s-55.833 54-100.5 54z"/><glyph glyph-name="colon" unicode=":" horiz-adv-x="207" d="M111 342c-16.667 0-30.5 6-41.5 18S53 386.667 53 404c0 18.667 5.5 33.834 16.5 45.501s25.167 17.5 42.5 17.5c18 0 32.333-5.833 43-17.5s16-26.834 16-45.501c0-18-5.5-32.833-16.5-44.5S129 342 111 342zm0-353C94.333-11 80.5-5 69.5 7S53 33.667 53 51c0 18.667 5.5 33.834 16.5 45.501s25.167 17.5 42.5 17.5c18 0 32.333-5.833 43-17.5S171 69.667 171 51c0-18-5.5-32.833-16.5-44.5S129-11 111-11z"/><glyph glyph-name="semicolon" unicode=";" horiz-adv-x="207" d="M78-116l-61-6.999c27.333 74.667 47.333 154.667 60 240l97 10C162 84.334 146.5 39.167 127.5-8.5S92-92 78-116zm40 458.001c-16.667 0-30.5 6-41.5 18s-16.5 26.667-16.5 44c0 18.667 5.5 33.834 16.5 45.501s25.167 17.5 42.5 17.5c18 0 32.333-5.833 43-17.5s16-26.834 16-45.501c0-18-5.5-32.833-16.5-44.5s-25.5-17.5-43.5-17.5z"/><glyph glyph-name="less" unicode="&lt;" horiz-adv-x="596" d="M66 239v54l464 239v-69L139 267v-2L530 69V0z"/><glyph glyph-name="equal" unicode="=" horiz-adv-x="596" d="M556 337H40v60h516v-60zm0-196H40v60h516v-60z"/><glyph glyph-name="greater" unicode="&gt;" horiz-adv-x="596" d="M530 295v-57L66 0v69l394 196v2L66 463v69z"/><glyph glyph-name="question" unicode="?" horiz-adv-x="406" d="M220 192l-79-.002-2 26c-6.667 58 14 115.667 62 173 46.667 54.667 70 100.334 70 137.001 0 26-8.167 46.667-24.5 62s-39.833 23.333-70.5 24c-40 0-73.667-10.333-101-31l-24 63c38 26.667 85.667 40 143 40 54 0 95.333-14.167 124-42.5S361 580.333 361 539c0-30.667-7-58.667-21-84s-35.667-55.333-65-90c-40.667-48.667-59.667-98-57-148zM178-11.002c-16.667 0-30.5 6-41.5 18s-16.5 26.667-16.5 44c0 18.667 5.5 33.834 16.5 45.501s25.167 17.5 42.5 17.5c18 0 32.333-5.833 43-17.5s16-26.834 16-45.501c0-18-5.5-32.833-16.5-44.5s-25.5-17.5-43.5-17.5z"/><glyph glyph-name="at" unicode="@" horiz-adv-x="737" d="M448 255l21.001 112.001c-13.333 5.333-30 8-50 8-44 0-81.5-17.833-112.5-53.5s-46.5-77.834-46.5-126.501c0-22.667 5.667-41 17-55s27.666-21 48.999-21c27.333 0 53 14.333 77 43s39 59.667 45 93zm60.001-276.999l16.002-43c-50.667-26.667-110-40-178-40-84.667 0-156.334 28.667-215.001 86s-88 133-88 227c0 106.667 33.833 197.5 101.5 272.5s155.5 112.5 263.5 112.5c86 0 155.833-27.167 209.5-81.5s80.5-123.833 80.5-208.5c0-72-17.333-129.667-52-173s-76.334-65-125.001-65c-22 0-40.167 7.333-54.5 22s-21.166 36.667-20.499 66h-3c-34.667-58.667-81.667-88-141-88-30 0-55.5 11.5-76.5 34.5s-31.5 53.5-31.5 91.5c0 64 22.5 119.5 67.5 166.5s101.5 70.5 169.5 70.5c40.667 0 76.334-7 107.001-21l-34-181c-14.667-73.333-4.667-110.666 30-111.999 27.333-1.333 52.166 15 74.499 49s33.5 78.333 33.5 133c0 74.667-21.333 135.167-64 181.5s-102 69.5-178 69.5c-84 0-155-30.833-213-92.5s-87-141.834-87-240.501c0-82 24-147.667 72-197s109.667-74 185-74c59.333 0 109.666 11.667 150.999 35z"/><glyph glyph-name="A" unicode="A" horiz-adv-x="612" d="M424 212H185L115 0H25l230 674h104L589 0h-93zm-221 68h203.999l-67 194c-9.333 27.333-21 68.333-35 123h-2C287.666 537 276.333 496.333 269 475z"/><glyph glyph-name="B" unicode="B" horiz-adv-x="542" d="M76 2v662.003c42 10 95 15 159 15 83.333 0 144.666-16.333 183.999-49 38-28 57-67.667 57-119 0-32.667-10.167-62.334-30.5-89.001S397.333 375.668 362 363.001v-3c37.333-8.667 69.833-27.334 97.5-56.001S501 238 501 192c0-54.667-19.333-99.667-58-135C398.333 15 321-6 211-6c-51.333 0-96.333 2.667-135 8zm87 604.003l.001-217.999h79c44.667 0 80 10.667 106 32s39 48.666 39 81.999c0 73.333-49 110-147 110-32.667 0-58.334-2-77.001-6zm.001-282.999l.001-257c16-2.667 40.333-4 73-4 50 0 91.333 10.5 124 31.5s49 54.167 49 99.5c0 43.333-16.333 75.833-49 97.5s-74.334 32.5-125.001 32.5h-72z"/><glyph glyph-name="C" unicode="C" horiz-adv-x="580" d="M529 91l16.997-70C504.664-.333 445.331-11 367.998-11c-98 0-177.833 30-239.5 90s-92.5 144-92.5 252c0 106 32.5 191.5 97.5 256.5s149.833 97.5 254.5 97.5c68.667 0 122-10 160-30l-22-71c-37.333 18.667-82.333 28-135 28-80 0-143.833-24.5-191.5-73.5s-71.5-117.167-71.5-204.5c0-83.333 22.833-149.333 68.5-198S305.332 63 386 63c56.666 0 104.333 9.333 143 28z"/><glyph glyph-name="D" unicode="D" horiz-adv-x="666" d="M76 2v662c58.667 10 120.334 15 185.001 15 120.667 0 211.667-28 273-84 64-58 96-138.667 96-242 0-110-32.333-197.333-97-262-66-64.667-165.667-97-299-97C175.334-6 122.667-3.333 76 2zm87 599V68c19.333-2.667 48.666-4 87.999-4 92.667 0 163.667 24.833 213 74.5s74 120.167 74 211.5c.667 81.333-22.166 145-68.499 191S355 610 265 610c-40.667 0-74.667-3-102-9z"/><glyph glyph-name="E" unicode="E" horiz-adv-x="492" d="M424 388v-72H163V73h292V0H75v674h365v-73H163V388h261z"/><glyph glyph-name="F" unicode="F" horiz-adv-x="487" d="M75 0v674h363v-73H163V377h254v-72H163V0H75z"/><glyph glyph-name="G" unicode="G" horiz-adv-x="646" d="M590 354l.001-324.001c-64-24.667-133.333-37-208-37-106 0-190 29.667-252 89-62.667 60.667-94 144.334-94 251.001 0 102 33 185.5 99 250.5s154.667 97.5 266 97.5c70 0 126.333-10.333 169-31l-22-71c-40.667 19.333-90.334 29-149.001 29-82.667 0-148.5-24.167-197.5-72.5S128 421 128 337c0-84.667 23.5-151.167 70.5-199.5S308.667 65 388 65c53.333 0 92 6 116 18v201H368v70h222z"/><glyph glyph-name="H" unicode="H" horiz-adv-x="652" d="M75 674h88V392h326v282h88V0h-88v316H163V0H75v674z"/><glyph glyph-name="I" unicode="I" horiz-adv-x="239" d="M75 674h88V0H75v674z"/><glyph glyph-name="J" unicode="J" horiz-adv-x="370" d="M213 230l.001 444h88V223c0-156-68-234-204-234-37.333 0-68.333 5.333-93 16l12 71c22-8.667 46.667-13 74-13 41.333 0 72.166 12.167 92.499 36.5S213 167.333 213 230z"/><glyph glyph-name="K" unicode="K" horiz-adv-x="542" d="M76 0v674h87V349h3c15.333 22 33 46 53 72l206 253h108L289 388 552 0H449L228 331l-65-74V0H76z"/><glyph glyph-name="L" unicode="L" horiz-adv-x="472" d="M75 0v674h88V73h288V0H75z"/><glyph glyph-name="M" unicode="M" horiz-adv-x="804" d="M660 0l-16.001 296c-7.333 138-11 235-11 291h-2c-30.667-98.667-59-184-85-256l-119-327h-66l-110 321c-34 102.667-59.667 190-77 262h-2c-2-86-6.333-185.333-13-298l-18-289h-83l47 674h111l115-326c26.667-80 49.334-155.667 68.001-227h2c16 61.333 40 137 72 227l120 326h111L746 0h-86z"/><glyph glyph-name="N" unicode="N" horiz-adv-x="658" d="M158 0L76 .001v674h96l215-341c52-84 92-157 120-219l3 1c-6.667 75.333-10 167.666-10 276.999v282h82V0h-88L280 342c-56 88.667-97.667 163.667-125 225l-3-1c4-68 6-160.667 6-278V0z"/><glyph glyph-name="O" unicode="O" horiz-adv-x="689" d="M348 686c92 0 165.667-31.668 221-95.001S652 445.333 652 344c0-111.333-29.667-198.333-89-261S429-11 339-11c-89.333 0-162.166 31.667-218.499 95s-84.5 146-84.5 248c0 106 29.167 191.5 87.5 256.5S256.667 686 348 686zm-3-71.001c-68.667 0-122.001-27.167-160.001-81.5s-57-120.833-57-199.5c0-76 19.5-140.667 58.5-194s91.5-80 157.5-80c66.667 0 119.334 26.667 158.001 80s58 120 58 200c0 74-18.833 138.333-56.5 193s-90.5 82-158.5 82z"/><glyph glyph-name="P" unicode="P" horiz-adv-x="532" d="M76 0v666c52 8.667 107.667 13 167 13 84.667 0 147.667-18.667 189-56 39.333-34.667 59-81.667 59-141 0-60-17.333-108-52-144-47.333-49.333-116-74-206-74-30.667 0-54 2-70 6V0H76zm87 603l-.002-262c18-4.667 42-7 72-7 52.667 0 94 12.5 124 37.5s45 60.167 45 105.5c0 44-14.167 77.167-42.5 99.5S294.332 610 244.999 610c-37.333 0-64.666-2.333-81.999-7z"/><glyph glyph-name="Q" unicode="Q" horiz-adv-x="689" d="M657-26l-24.997-72.999c-91.333 24-177.333 50-258 78-20 6.667-33.667 10-41 10-84.667 3.333-155.334 35-212.001 95s-85 142.333-85 247c0 106.667 29.167 192.5 87.5 257.5s133.5 97.5 225.5 97.5c91.333 0 164.666-31.667 219.999-95s83-145.333 83-246c0-84-17.333-153.833-52-209.5S518.667 41.667 460 21v-4c72-18 137.667-32.333 197-43zM344.003 60.001c66.667 0 119.332 26.667 157.999 80s58 120 58 200c0 74-18.667 138.333-56 193s-89.666 82-156.999 82c-46.667 0-87-13.5-121-40.5s-58.833-61.5-74.5-103.5-23.5-88-23.5-138c0-76 19.5-140.5 58.5-193.5s91.5-79.5 157.5-79.5z"/><glyph glyph-name="R" unicode="R" horiz-adv-x="538" d="M76 0l-.001 664.998c51.333 9.333 107 14 167 14 89.333 0 154.333-18.333 195-55 35.333-32 53-75 53-129 0-42-11.667-77.833-35-107.5S402.333 336.664 365 323.997v-3c48.667-17.333 81.334-62.666 98.001-135.999 24.667-104 42-165.667 52-185h-90C414.334 18.665 399.667 72.332 381 160.999c-10 46.667-25.333 79.834-46 99.501s-50.667 30.167-90 31.5h-82V0H76zm86.999 603.998v-246h89c46 0 82.833 11.667 110.5 35s41.5 54.333 41.5 93c0 42-13.833 73.333-41.5 94s-65.5 31-113.5 31c-40 0-68.667-2.333-86-7z"/><glyph glyph-name="S" unicode="S" horiz-adv-x="493" d="M42 33l23 73.004c46-29.333 97.667-44 155-44 44 0 78.5 10.5 103.5 31.5s37.5 48.833 37.5 83.5c0 30.667-9.833 56.167-29.5 76.5s-52.167 39.166-97.5 56.499c-118.667 43.333-178 107.333-178 192 0 53.333 20.167 97.166 60.5 131.499s92.833 51.5 157.5 51.5c61.333 0 110.666-11 147.999-33l-24-71c-34.667 21.333-77 32-127 32-42 0-73.667-10.167-95-30.5s-32-43.833-32-70.5c0-30.667 10.167-55.334 30.5-74.001s54.833-37.334 103.5-56.001c58.667-22.667 101.834-49.334 129.501-80.001s41.5-70 41.5-118c0-55.333-20.167-101.666-60.5-139S290-11 214-11c-32 0-64 4.168-96 12.5S60.667 20.334 42 33z"/><glyph glyph-name="T" unicode="T" horiz-adv-x="497" d="M204 0v600H-1v74h499v-74H292V0h-88z"/><glyph glyph-name="U" unicode="U" horiz-adv-x="647" d="M75 674l87.999.002v-400c0-72 14.333-125.667 43-161s66.667-53 114-53c51.333 0 91.5 17.667 120.5 53s43.5 89 43.5 161v400h88v-394c0-98.667-23.167-171.834-69.5-219.501S394.333-10.999 317-10.999c-74 0-132.833 23.167-176.5 69.5S75 177.667 75 277v397z"/><glyph glyph-name="V" unicode="V" horiz-adv-x="558" d="M320 0h-96L3 674h95l105-332c34.667-113.333 58.667-197.333 72-252h2c17.333 70 43 153.667 77 251l114 333h93z"/><glyph glyph-name="W" unicode="W" horiz-adv-x="846" d="M277 0l-91-.001-171 674h92l80-341c20.667-87.333 37.334-165 50.001-233h2c7.333 45.333 25.666 123.333 54.999 234l90 340h91l82-342c24-100 39.667-177 47-231h2c8.667 46.667 26.667 124.334 54 233.001l89 340h89L647 0h-91l-85 351c-21.333 88.667-36 162-44 220h-2c-10-60.667-27.333-134-52-220z"/><glyph glyph-name="X" unicode="X" horiz-adv-x="571" d="M546 0L444.999.001l-87 149c-29.333 47.333-55 91.666-77 132.999h-2c-15.333-31.333-39.666-76-72.999-134L125 0H25l206 341L33 674h101l89-158c28-48.667 48.667-86.667 62-114h3c16 33.333 36.333 71.333 61 114l91 158h101L336 346z"/><glyph glyph-name="Y" unicode="Y" horiz-adv-x="541" d="M314 0h-88v286L12 674h100l95-186 67-139h2c8 18.667 30.667 65 68 139l97 186h98L314 287V0z"/><glyph glyph-name="Z" unicode="Z" horiz-adv-x="553" d="M30 0v51l373 547v3H62v73h455v-53L145 76v-3h377V0H30z"/><glyph glyph-name="bracketleft" unicode="[" horiz-adv-x="284" d="M264-112H81v798h183v-55H150V-57h114v-55z"/><glyph glyph-name="backslash" unicode="\" horiz-adv-x="341" d="M342-39h-68L2 686h68z"/><glyph glyph-name="bracketright" unicode="]" horiz-adv-x="284" d="M20 686h183v-798H20v55h114v688H20v55z"/><glyph glyph-name="asciicircum" unicode="^" horiz-adv-x="596" d="M536 189h-70L299 577h-2L130 189H61l206 461h63z"/><glyph glyph-name="underscore" unicode="_" horiz-adv-x="500" d="M0-75h500v-50H0v50z"/><glyph glyph-name="grave" unicode="`" d="M22 693h96l88-143h-62z"/><glyph glyph-name="a" unicode="a" horiz-adv-x="482" d="M413 297l.002-180.998c0-46.667 2.333-85.334 7-116.001h-79l-7 61h-3C316.335 40.334 296.168 23.167 270.501 9.5S215.667-11 183-11c-46.667 0-83 13.667-109 41s-39 60-39 98c0 58.667 25.167 103.5 75.5 134.5s122.166 46.167 215.499 45.5v10c0 12-1.167 23.5-3.5 34.5s-7 22.833-14 35.5-18.333 22.667-34 30-35.167 11-58.5 11c-49.333 0-91.666-12-126.999-36l-20 59c44.667 28 98 42 160 42 67.333 0 114.833-18.667 142.5-56S413 353.667 413 297zm-84.998-133.998v83.997c-136.667 2.667-205-33.666-205-108.999 0-27.333 7.833-48.166 23.5-62.499s35.167-21.5 58.5-21.5c30 0 55.333 7.833 76 23.5s35 34.834 43 57.501c2.667 8.667 4 18 4 28z"/><glyph glyph-name="b" unicode="b" horiz-adv-x="569" d="M73 125l-.001 585.001h87v-304h2c34 58.667 89 88 165 88 60.667 0 110-22.833 148-68.5s57-104.834 57-177.501c0-81.333-21.667-144.833-65-190.5s-94.333-68.5-153-68.5C240.666-11 186.333 19 151 79h-2l-5-79H69c2.667 44 4 85.667 4 125zm86.999 155.001v-85.997c0-12.667 1.333-23.334 4-32.001 8-30.667 24-55.5 48-74.5s52-28.5 84-28.5c46 0 82 17 108 51s39 79 39 135c0 51.333-12.833 94.166-38.5 128.499s-61.167 51.5-106.5 51.5c-30 0-57.5-9.833-82.5-29.5s-41.833-45.834-50.5-78.501c-3.333-12-5-24.333-5-37z"/><glyph glyph-name="c" unicode="c" horiz-adv-x="448" d="M403 83l14.997-65.999c-39.333-18.667-85.666-28-138.999-28-72.667 0-131 22.667-175 68s-66 105-66 179c0 75.333 23.833 137.166 71.5 185.499s110.5 72.5 188.5 72.5c49.333 0 90-8.667 122-26l-20-67c-29.333 15.333-63.333 23-102 23-53.333 0-95.166-17.5-125.499-52.5S127 293 127 241c0-55.333 15.833-99.333 47.5-132S246.333 60 295 60c37.333 0 73.333 7.667 108 23z"/><glyph glyph-name="d" unicode="d" horiz-adv-x="564" d="M403 710l87.001-.001v-585c0-39.333 1.333-81 4-125h-78l-4 84h-3c-13.333-28-34.333-50.833-63-68.5s-62-26.5-100-26.5c-59.333 0-108.833 22.833-148.5 68.5S38.001 162.333 38.001 235c-.667 78 20.166 140.667 62.499 188s93.833 71 154.5 71c35.333 0 65.5-7 90.5-21s43.5-31.333 55.5-52h2v289zm.001-507.001v83.999c0 14.667-1.333 27-4 37-6.667 28.667-21.5 52.667-44.5 72s-50.5 29-82.5 29c-44.667 0-80-17.5-106-52.5s-39-79.5-39-133.5c0-51.333 12.5-94 37.5-128s60.167-51 105.5-51c30 0 57 9.5 81 28.5s40 44.5 48 76.5c2.667 10.667 4 23.334 4 38.001z"/><glyph glyph-name="e" unicode="e" horiz-adv-x="501" d="M462 226l-340 .001c.667-56.667 16.5-98.834 47.5-126.501S240 58 288 58c51.333 0 96 8.333 134 25l16-63C392-.667 338-11 276-11c-73.333 0-131.333 22.333-174 67S38 160 38 234c0 74.667 20.667 136.667 62 186s96.333 74 165 74c37.333 0 69.833-7.5 97.5-22.5S411 437 425 413s24.167-48.167 30.5-72.5 9.5-48.833 9.5-73.5c0-17.333-1-31-3-41zm-339 63.001h257.001c.667 35.333-8.5 67.833-27.5 97.5s-50.5 44.5-94.5 44.5c-40.667 0-72.334-14.5-95.001-43.5s-36-61.833-40-98.5z"/><glyph glyph-name="f" unicode="f" horiz-adv-x="292" d="M169 0H82v417H15v67h67v23c0 76 18.667 132.333 56 169 30.667 30 70 45 118 45 27.333 0 52.333-4.667 75-14l-12-68c-16 7.333-34.667 11-56 11-62.667 0-94-46.667-94-140v-26h117v-67H169V0z"/><glyph glyph-name="g" unicode="g" horiz-adv-x="559" d="M487 352l.002-281c0-104.667-23-178.667-69-222-43.333-38.667-102.333-58-177-58-67.333 0-121 13.333-161 40l22 68c39.333-26 86.666-39 141.999-39 48 0 86 13.667 114 41s42 70.333 42 129v53h-2c-14-24-34.167-43.5-60.5-58.5S280.001 2 244.001 2c-59.333 0-108.5 22.5-147.5 67.5s-58.5 101.167-58.5 168.5c0 78 21.667 140.167 65 186.5S197.667 494 257 494c70 0 120.333-27.667 151-83h2l3 73h78c-2.667-30-4-74-4-132zm-87.998-146l.001 86.999c0 16.667-1.667 29.667-5 39-8.667 27.333-23.5 49.833-44.5 67.5s-47.167 26.5-78.5 26.5c-42.667 0-77.334-16.667-104.001-50s-40-77.666-40-132.999c0-50 12.5-91.5 37.5-124.5S224.669 69 270.002 69c28 0 53.167 8 75.5 24s37.833 38 46.5 66c4.667 14 7 29.667 7 47z"/><glyph glyph-name="h" unicode="h" horiz-adv-x="555" d="M73 0l-.003 710.001h88v-303h2c15.333 27.333 36.333 48.333 63 63 28 16 58 24 90 24 14 0 28.167-1.833 42.5-5.5s29.333-10.167 45-19.5 29.334-21.5 41.001-36.5 21.334-34.833 29.001-59.5 11.5-53 11.5-85v-288h-88v278c0 42.667-9 77.167-27 103.5s-46.333 39.5-85 39.5c-27.333 0-51.666-8.333-72.999-25S175.667 358.667 167 334c-4-10.667-6-24.667-6-42V0H73z"/><glyph glyph-name="i" unicode="i" horiz-adv-x="234" d="M161 0H73v484h88V0zm-44 675c16 0 29-5.167 39-15.5s15-23.5 15-39.5c0-15.333-5-28.166-15-38.499s-23.667-15.5-41-15.5c-16 0-28.833 5.167-38.5 15.5S62 604.667 62 620s5.167 28.333 15.5 39 23.5 16 39.5 16z"/><glyph glyph-name="j" unicode="j" horiz-adv-x="243" d="M-36-211l-10 68.999c44.667 3.333 76.667 16 96 38 12.667 14 21.5 33.667 26.5 59s7.5 66 7.5 122v407h88v-441c0-93.333-19.333-159.666-58-198.999-18-18-41-31.667-69-41s-55-14-81-14zm164 885.999c16 0 29-5.335 39-16.002s15-23.667 15-39-5-28.166-15-38.499-23.667-15.5-41-15.5c-15.333 0-28 5.333-38 16s-15 23.334-15 38.001c0 15.333 5.167 28.333 15.5 39s23.5 16 39.5 16z"/><glyph glyph-name="k" unicode="k" horiz-adv-x="469" d="M160 710V262h2c13.333 18.667 27.333 37 42 55l143 167h105L266 285 479 0H371L205 232l-45-50V0H73v710h87z"/><glyph glyph-name="l" unicode="l" horiz-adv-x="236" d="M73 0v710h88V0H73z"/><glyph glyph-name="m" unicode="m" horiz-adv-x="834" d="M73 0l.002 352.999c0 34-1.333 77.667-4 131h77l4-79h3c34.667 59.333 85.667 89 153 89 32 0 60-8.833 84-26.5s41.333-41.167 52-70.5h2c12.667 24 31 45 55 63 30 22.667 65.333 34 106 34 18 0 35.667-3.167 53-9.5s34.333-16.833 51-31.5 30.167-36.5 40.5-65.5 15.5-63.5 15.5-103.5v-284h-86v273c0 47.333-8.833 84-26.5 110s-43.834 39-78.501 39c-24 0-45.333-7.5-64-22.5s-32.334-33.833-41.001-56.5c-4.667-15.333-7-30-7-44v-299h-86v290c0 40-8.667 72-26 96s-42.333 36-75 36c-25.333 0-48-8.667-68-26s-33.667-38-41-62c-4.667-11.333-7-25.666-7-42.999V0H73z"/><glyph glyph-name="n" unicode="n" horiz-adv-x="555" d="M73 0l-.001 352.998c0 52-1.333 95.667-4 131h78l5-80h2c13.333 25.333 34 46.666 62 63.999s60.667 26 98 26c18.667 0 37.167-3.167 55.5-9.5s36.5-16.666 54.5-30.999 32.667-35.666 44-63.999 17-62.166 17-101.499V0h-88v279c0 42.667-9 77.167-27 103.5s-46.333 39.5-85 39.5c-27.333 0-51.666-8.667-72.999-26s-36.333-38.666-45-63.999c-4-10.667-6-24.334-6-41.001V0H73z"/><glyph glyph-name="o" unicode="o" horiz-adv-x="549" d="M278 494c69.333 0 125.499-23.001 168.499-69.001s64.5-105.667 64.5-179c0-83.333-24-147-72-191s-104.333-66-169-66c-66.667 0-122 22.833-166 68.5s-66 105.834-66 180.501c0 78 22.833 140.167 68.5 186.5S209.333 494 278 494zm-2.001-66.001c-48 0-84.667-18.501-110-55.501s-38-80.833-38-131.5c0-53.333 13.667-97.666 41-132.999s62.333-53 105-53c42 0 77 17.833 105 53.5s42 80.5 42 134.5c0 47.333-12.167 90-36.5 128s-60.5 57-108.5 57z"/><glyph glyph-name="p" unicode="p" horiz-adv-x="569" d="M73-198v524c0 44-1.333 96.667-4 158h78l5-83h2c36.667 62 94 93 172 93 59.333 0 108.5-22.667 147.5-68S532 321.667 532 249c0-82.667-21.5-146.667-64.5-192S372.333-11 311-11c-32 0-61.167 6.667-87.5 20S176.667 41 162 65h-2v-263H73zm87 479l.002-83.998c0-14 1.333-26 4-36 8-30.667 24.167-55.5 48.5-74.5s52.166-28.5 83.499-28.5c46 0 82 17 108 51s39 79.333 39 136c0 50.667-12.833 93.167-38.5 127.5s-60.834 51.5-105.501 51.5c-30.667 0-58.5-9.833-83.5-29.5S174 348.668 166 316.001c-4-14.667-6-26.334-6-35.001z"/><glyph glyph-name="q" unicode="q" horiz-adv-x="563" d="M403-198l.001 271.998h-2c-32.667-56.667-85.334-85-158.001-85-58 0-106.667 22.667-146 68s-59 104-59 176c0 84.667 22.167 149.334 66.5 194.001s95.166 67 152.499 67c35.333 0 65.833-7.667 91.5-23s44.834-35.333 57.501-60h2l3 73h83c-2.667-53.333-4-97.666-4-132.999v-549h-87zm.001 394.998l-.001 91c0 14-1.333 26-4 36-7.333 28.667-22.333 52.5-45 71.5s-49.667 28.5-81 28.5c-44.667 0-80.167-17.167-106.5-51.5s-39.5-78.833-39.5-133.5c0-51.333 12.333-94.166 37-128.499s60-51.5 106-51.5c28.667 0 54.334 8.333 77.001 25s39 40 49 70c4.667 15.333 7 29.666 7 42.999z"/><glyph glyph-name="r" unicode="r" horiz-adv-x="327" d="M73 0l-.001 333c0 60.667-1.333 111-4 151h77l4-96h3c10.667 32 28.334 57.667 53.001 77s52 29 82 29c5.333 0 13.333-.667 24-2v-83c-6 1.333-16 2-30 2-30.667 0-56.5-10.333-77.5-31S170 332.333 164 299c-2-12-3-25.667-3-41V0H73z"/><glyph glyph-name="s" unicode="s" horiz-adv-x="396" d="M40 23l21 66c38-22.667 77-34 117-34 30 0 53 6.667 69 20s24 30.666 24 51.999c0 20.667-6.667 37.5-20 50.5s-36.333 25.5-69 37.5c-86 31.333-129 77-129 137 0 40 15.333 73.667 46 101s71 41 121 41c48 0 87.333-10 118-30l-21-64c-30.667 19.333-63.667 29-99 29-25.333 0-45-6.333-59-19s-21-28.334-21-47.001c0-19.333 6.833-34.666 20.5-45.999S195.667 293.333 229 280c42.667-16 74.5-35.5 95.5-58.5S356 169.667 356 135c0-44-16-79.333-48-106s-76-40-132-40C124-11 78.667.333 40 23z"/><glyph glyph-name="t" unicode="t" horiz-adv-x="331" d="M93 574l86.001 26.001v-116h126v-67h-126v-261c0-62.667 22-94 66-94 20.667 0 37.667 2 51 6l4-67c-22.667-8-48.667-12-78-12-40.667 0-72.334 12.333-95.001 37C104.333 51.334 93 93.667 93 153v264H18v67h75v90z"/><glyph glyph-name="u" unicode="u" horiz-adv-x="551" d="M478 484l-.002-351c0-54.667 1.333-99 4-133h-78l-5 79h-2c-13.333-24-33.666-45-60.999-63s-60.333-27-99-27c-20.667 0-40.167 3.333-58.5 10s-36 17.5-53 32.5-30.5 37-40.5 66-15 63.5-15 103.5v283h88V217c0-103.333 36-155 108-155 27.333 0 51.333 8 72 24s35.334 35 44.001 57c5.333 12.667 8 27.667 8 45v296h88z"/><glyph glyph-name="v" unicode="v" horiz-adv-x="481" d="M13 484h94l95-271c17.333-48.667 30.333-90.334 39-125.001h3c8 28.667 21.667 70.334 41 125.001l94 271h92L281 0h-84z"/><glyph glyph-name="w" unicode="w" horiz-adv-x="736" d="M18 484l90 .001 65-246c19.333-80 31-131.333 35-154h3c7.333 32.667 21.666 83.667 42.999 153l79 247h74l75-242c18-58.667 32.333-111.334 43-158.001h3c6.667 40 19 92.333 37 157l69 243h87l-156-484h-80l-74 231C391.666 291.667 377.333 344.667 368 390h-2c-9.333-46-24-99.333-44-160L244 0h-80z"/><glyph glyph-name="x" unicode="x" horiz-adv-x="463" d="M16 484l97.999.001 69-104c16-22.667 32.667-48.667 50-78h2c12 21.333 28.333 47.666 49 78.999l67 103h96l-165-234 169-250h-99l-72 109c-13.333 20-30.666 48-51.999 84h-2c-14.667-26-31.667-54-51-84L105 0H8l172 247z"/><glyph glyph-name="y" unicode="y" horiz-adv-x="471" d="M9 484h95.997l105-286c12-31.333 22.667-64.333 32-99h2c.667 2 4.834 15.833 12.501 41.5S270.332 186 275 200l96 284h93L332 139c-32.667-85.333-61.167-150.666-85.5-195.999s-51.166-81-80.499-107C129.333-194.666 93.333-213.333 58-220l-22 73c28 8.667 53.667 23 77 43 30 23.333 54.667 56 74 98 4.667 10.667 7 17.667 7 21 0 5.333-2.333 13-7 23z"/><glyph glyph-name="z" unicode="z" horiz-adv-x="428" d="M18 0l.002 51 218 285c5.333 6.667 26.666 32 63.999 76v2h-262v70h368v-55l-216-281C161.334 111.333 140.667 86 128 72v-2h282V0H18z"/><glyph glyph-name="braceleft" unicode="{" horiz-adv-x="284" d="M28 263l-.001 51c31.333 0 52.5 6.833 63.5 20.5s16.833 31.5 17.5 53.5c0 19.333-2.667 47-8 83-5.333 38.667-8 66.667-8 84 0 44 13.167 76.833 39.5 98.5s61.833 32.5 106.5 32.5h20v-55h-17c-53.333-.667-80-29.334-80-86.001 0-10 2.333-33.667 7-71 5.333-33.333 8-58.666 8-75.999.667-58.667-23.666-94.667-72.999-108v-2c48.667-12.667 73-49 73-109 0-18-2.667-43.667-8-77-4.667-37.333-7-61.333-7-72 0-57.333 26.667-86.333 80-87h17v-55h-21C141.333-112 93-66.333 93 25c0 22 3 49.333 9 82 4.667 43.333 7 70.333 7 81 0 50-27 75-81 75z"/><glyph glyph-name="bar" unicode="|" horiz-adv-x="239" d="M86 750h67V-250H86V750z"/><glyph glyph-name="braceright" unicode="}" horiz-adv-x="284" d="M256 314l.001-50.999c-52.667 0-79.667-25-81-75 0-16.667 2.667-43.667 8-81 5.333-36 8-63.333 8-82 0-91.333-48.333-137-145-137h-21v55h17c53.333.667 80 29.667 80 87 0 10.667-2.333 34.667-7 72-5.333 33.333-8 59-8 77C106.334 238.334 130.667 274.667 180 288v2c-48.667 12.667-73 48.667-73 108 0 17.333 2.667 42.666 8 75.999 4.667 37.333 7 61 7 71 0 56.667-26.667 85.334-80 86.001H25v55h20c44.667 0 80.167-10.833 106.5-32.5S191 599 191 555c0-17.333-2.667-45.333-8-84-5.333-36-8-63.667-8-83 0-22 5.5-39.833 16.5-53.5S224 314 256 314z"/><glyph glyph-name="asciitilde" unicode="~" horiz-adv-x="596" d="M109 210H49c-1.333 48 9.167 85.167 31.5 111.5S132 361 168 361c20 0 39.5-3.167 58.5-9.5s46.833-18.166 83.5-35.499c58-28 99.333-42 124-42 34.667 0 52.667 28 54 84h59c2-52-7.833-90.167-29.5-114.5s-49.834-36.5-84.501-36.5c-33.333 0-81.666 14.667-144.999 44l-19.5 9.5c-9 4.333-15.333 7.5-19 9.5s-9.167 4.667-16.5 8-13.166 5.666-17.499 6.999l-15.5 5c-6 2-11.5 3.333-16.5 4s-10.167 1-15.5 1c-38.667 0-58.334-28.333-59.001-85z"/><glyph glyph-name="uni00A0" horiz-adv-x="212"/><glyph glyph-name="exclamdown" unicode="¡" horiz-adv-x="230" d="M163-195H67l14 477h68zm-47 683c17.333 0 31.334-5.833 42.001-17.5s16-26.834 16-45.501c0-17.333-5.5-31.833-16.5-43.5s-25.167-17.5-42.5-17.5-31.5 5.833-42.5 17.5-16.5 26.167-16.5 43.5c0 18.667 5.667 33.834 17 45.501S98.667 488 116 488z"/><glyph glyph-name="cent" unicode="¢" horiz-adv-x="513" d="M331-14l-62.999.002v101c-58.667 6.667-106.667 30-144 70-38 41.333-57 97.666-57 168.999 0 64.667 18.333 119.5 55 164.5s85.334 72.5 146.001 82.5v100h63v-98c41.333-.667 77.666-9 108.999-25l-20-67c-29.333 16.667-64.333 25-105 25-48 0-86.667-17.167-116-51.5s-44-76.833-44-127.5c0-53.333 14.833-95.833 44.5-127.5s67.167-47.5 112.5-47.5c42.667 0 80.667 8.333 114 25l15-64C412.334 98.334 375.667 88.667 331 86V-14z"/><glyph glyph-name="sterling" unicode="£" horiz-adv-x="513" d="M471 0H56v50c34 17.333 61.5 41.666 82.5 72.999s31.5 65.333 31.5 102c0 24.667-1.667 48-5 70H62v63h93c-7.333 44-11 80-11 108 0 58.667 18 105.834 54 141.501S280 661 336 661c46 0 82.333-8.333 109-25l-19-66c-24 13.333-54 20-90 20-37.333 0-64.833-11.333-82.5-34S227 503 227 465c0-32 3.667-67.667 11-107h144v-63H246c4-48.667 2.667-86-4-112-10.667-42-33.667-78-69-108v-2h298V0z"/><glyph glyph-name="currency" unicode="¤" horiz-adv-x="513" d="M257 534c46.667 0 85-13.332 115-39.999l71 75 45-46-79-71c23.333-31.333 35-70.666 35-117.999 0-50.667-11.667-91.334-35-122.001l75-74-44-44-69 76c-30-28-69-42-117-42-47.333 0-85.333 13.333-114 40l-67-74-43 44 72 70C77.333 241.334 65 281.667 65 329c0 48.667 13 89.667 39 123l-76 71 45 46 68-76c32 27.333 70.667 41 116 41zm-3-62.999c-35.333 0-63.833-13.499-85.5-40.499s-32.5-60.5-32.5-100.5c0-44.667 12.167-79 36.5-103s51.5-36 81.5-36c32 0 59.833 11.833 83.5 35.5s35.5 59.167 35.5 106.5c0 37.333-10.5 69.666-31.5 96.999s-50.167 41-87.5 41z"/><glyph glyph-name="yen" unicode="¥" horiz-adv-x="513" d="M292 0h-83v176H54v49h155v73H54v49h131L16 650h94l104-206c16-34 29.333-64.333 40-91h3c10.667 30 24 61 40 93l108 204h92L318 347h130v-49H292v-73h156v-49H292V0z"/><glyph glyph-name="brokenbar" unicode="¦" horiz-adv-x="239" d="M86 174h67v-350H86v350zm0 500h67V324H86v350z"/><glyph glyph-name="section" unicode="§" horiz-adv-x="519" d="M131 350c0-18.667 8-35.502 24-50.502s43-29.5 81-43.5c58.667-20.667 96.667-36.667 114-48 25.333 18.667 38 44.334 38 77.001 0 41.333-29.667 72.333-89 93-6 2.667-16 6.5-30 11.5l-34.5 12.5c-9 3.333-19 7.5-30 12.5s-20.5 9.833-28.5 14.5c-30-21.333-45-47.666-45-78.999zm287 299.998L396.002 593c-33.333 21.333-73 32-119 32-30 0-54.833-6.833-74.5-20.5s-29.5-31.5-29.5-53.5c0-24 9.667-42.333 29-55s51.333-26.334 96-41.001c53.333-17.333 93.666-37.5 120.999-60.5s41-55.167 41-96.5c0-48-21.333-88.333-64-121 25.333-24 38-53.667 38-89 0-48.667-18.667-85.834-56-111.501s-82-38.5-134-38.5c-66.667 0-119 14-157 42l24 57c37.333-26.667 81.666-40 132.999-40 32.667 0 59.334 7.167 80.001 21.5s31 34.166 31 59.499c0 23.333-8.667 42.5-26 57.5s-49.333 30.833-96 47.5c-58.667 20-102.334 41.333-131.001 64s-43 53.667-43 93c0 46 24.667 85.333 74 118-10.667 7.333-19.5 18.833-26.5 34.5S96 524.331 96 540.998c0 43.333 17.5 77.833 52.5 103.5s78.833 38.5 131.5 38.5 98.667-11 138-33z"/><glyph glyph-name="dieresis" unicode="¨" d="M56 570c-14 0-25.667 5.001-35 15.001s-14 22-14 36 4.833 26 14.5 36 21.834 15 36.501 15c13.333 0 24.666-4.833 33.999-14.5s14-21.834 14-36.501c0-14-4.667-26-14-36s-21.333-15-36-15zm186 .001c-14 0-25.667 5.001-35 15.001s-14 22-14 36 4.833 26 14.5 36 21.5 15 35.5 15 25.667-4.833 35-14.5 14-21.834 14-36.501c0-14-4.667-26-14-36s-21.333-15-36-15z"/><glyph glyph-name="copyright" unicode="©" horiz-adv-x="677" d="M341 648c84 0 155-30 213-90s87-132.667 87-218c0-86-29.167-159.167-87.5-219.5S424 30 340 30c-84.667 0-156.5 30.167-215.5 90.5S36 254 36 340c0 85.333 29.5 158 88.5 218s131.167 90 216.5 90zm-2-41c-71.333 0-131.332-26.001-179.999-78.001s-73-116-73-192c0-74.667 24.333-137.667 73-189s109-77 181-77c70.667-.667 130.167 25 178.5 77s72.5 116 72.5 192c0 74.667-24.333 137.834-73 189.501S409.667 607 339 607zm135.001-114.001L462 454.002c-28.667 15.333-61 23-97 23-45.333 0-80-12.833-104-38.5s-36-59.5-36-101.5c0-40.667 12.333-74.334 37-101.001s59.334-40 104.001-40c40.667 0 74.334 8.667 101.001 26l12-38c-31.333-20.667-72.333-31-123-31-56.667 0-101.334 17.167-134.001 51.5s-49 77.5-49 129.5c0 55.333 18.667 100.166 56 134.499s82.333 51.5 135 51.5c24 0 46.333-2.833 67-8.5s35-11.834 43-18.501z"/><glyph glyph-name="ordfeminine" unicode="ª" horiz-adv-x="346" d="M304 266l-58.999.001-5 42h-2c-26-31.333-60-47-102-47-32 0-57.167 9.167-75.5 27.5s-27.5 41.166-27.5 68.499c0 36 17.667 64.167 53 84.5S170.667 471.333 234 470v10c0 5.333-.833 11-2.5 17s-4.834 12.667-9.501 20-12.5 13.333-23.5 18-24.167 7-39.5 7c-33.333 0-61.666-8.667-84.999-26l-16 42c30.667 22 68.667 33 114 33 84.667 0 127-46.667 127-140V344c0-25.333 1.667-51.333 5-78zm-68.999 106.001L235 427c-90.667 2.667-136-19.333-136-66 0-16 5.5-28.667 16.5-38s24.833-14 41.5-14c30.667 0 53.334 12.333 68.001 37 6.667 8.667 10 17.334 10 26.001z"/><glyph glyph-name="guillemotleft" unicode="«" horiz-adv-x="419" d="M232 436L99 252 233 68h-72L29 252l132 184h71zm164 0L263 252 396 68h-71L193 252l132 184h71z"/><glyph glyph-name="logicalnot" unicode="¬" horiz-adv-x="596" d="M40 399h516V121h-64v218H40v60z"/><glyph glyph-name="uni00AD" unicode="­" horiz-adv-x="291" d="M30 302h247v-64H30v64z"/><glyph glyph-name="registered" unicode="®" horiz-adv-x="419" d="M184 499v-64.999h-38v164c25.333 3.333 46.333 5 63 5 25.333 0 44-4.333 56-13 11.333-8 17-19.667 17-35 0-18.667-11.333-31.667-34-39v-2c14-4.667 23.667-18 29-40 3.333-18 7.333-31.333 12-40h-40c-2.667 3.333-7 16.666-13 39.999-2.667 16.667-14 25-34 25h-18zm1 74.001v-47h18c25.333 0 38 8 38 24 0 16.667-11.667 25-35 25-8.667 0-15.667-.667-21-2zm26 110c46.667 0 86.168-15.833 118.501-47.5s48.5-70.5 48.5-116.5-16.333-85-49-117-72.334-48-119.001-48c-47.333 0-87.333 16-120 48s-49 71-49 117 16.5 84.833 49.5 116.5 73.167 47.5 120.5 47.5zm-1.999-33c-35.333 0-65.167-12.834-89.5-38.501s-36.5-56.5-36.5-92.5c0-36.667 12.333-67.667 37-93s55-38 91-38c35.333-.667 65 11.833 89 37.5s36 56.5 36 92.5c0 36.667-12.167 67.834-36.5 93.501s-54.5 38.5-90.5 38.5z"/><glyph glyph-name="macron" unicode="¯" d="M38 643h225v-57H38v57z"/><glyph glyph-name="degree" unicode="°" horiz-adv-x="318" d="M163 686c39.333 0 71-12.833 95-38.5s36-56.167 36-91.5c0-39.333-13.333-71.5-40-96.5S196 422 160 422c-38 0-69.333 12.5-94 37.5S29 515 29 551c0 38 12.833 70 38.5 96s57.5 39 95.5 39zm-3-47c-24 0-42.834-8.832-56.501-26.499s-20.5-38.167-20.5-61.5 7.333-42.833 22-58.5 33.334-23.5 56.001-23.5 41.5 8.167 56.5 24.5 22.5 36.833 22.5 61.5c0 21.333-6.667 40.666-20 57.999s-33.333 26-60 26z"/><glyph glyph-name="plusminus" unicode="±" horiz-adv-x="596" d="M266 571h64V377h226v-60H330V117h-64v200H40v60h226v194zM40 60h516V0H40v60z"/><glyph glyph-name="twosuperior" unicode="²" horiz-adv-x="311" d="M12 443l.002 37.001 63 58c45.333 41.333 77.666 74.666 96.999 99.999s29 50 29 74c0 20-6.5 36.5-19.5 49.5s-31.833 19.5-56.5 19.5c-28 0-56-10.333-84-31l-21 46c33.333 27.333 74.333 41 123 41 43.333 0 76.166-11.167 98.499-33.5S275 755 275 725c0-34-10.667-65.333-32-94s-55-63-101-103l-30-28v-2h170v-55H12z"/><glyph glyph-name="threesuperior" unicode="³" horiz-adv-x="305" d="M45 759l-16.999 48.001c32 20.667 70.333 31 115 31 40.667 0 71.167-9 91.5-27s30.5-40.333 30.5-67c0-20.667-6.833-38.834-20.5-54.501s-32.5-27.834-56.5-36.501v-2c27.333-4 49.666-14.833 66.999-32.5s26-39.167 26-64.5c0-32-14.167-59.5-42.5-82.5s-66.833-34.5-115.5-34.5c-48 0-86.333 9.333-115 28l18 50c28-17.333 59-26 93-26 28.667 0 50.667 6.833 66 20.5s22.666 29.167 21.999 46.5c0 24-10.333 41.833-31 53.5s-45.667 17.5-75 17.5h-27v46h28c22.667 0 43.5 5.333 62.5 16s28.5 26.334 28.5 47.001c0 14-5.167 25.833-15.5 35.5S151.333 786 130 786c-30.667 0-59-9-85-27z"/><glyph glyph-name="acute" unicode="´" d="M189 693h96L163 550h-62z"/><glyph glyph-name="mu" unicode="µ" horiz-adv-x="553" d="M403 75h-2.999c-12-22.667-30-42.334-54-59.001s-52.333-25-85-25c-50.667 0-86 17.667-106 53v-59c0-89.333 3.667-150.333 11-183h-79c-9.333 28-14 87.667-14 179v503h88v-286c0-40.667 9-73.667 27-99s45.333-38 82-38c27.333 0 51.166 8 71.499 24s34.833 35 43.5 57c5.333 14 8 29.333 8 46v296h88v-351c0-27.333 3.333-46.666 10-57.999s18.667-17.333 36-18l-7-64c-10-2.667-20.333-4-31-4-50 0-78.667 28.667-86 86z"/><glyph glyph-name="paragraph" unicode="¶" horiz-adv-x="512" d="M293-49h-62.002v314h-7c-45.333 0-88.166 16.833-128.499 50.5s-60.833 80.167-61.5 139.5c0 28 4.167 54.333 12.5 79s22.333 48 42 70 48.334 39.5 86.001 52.5S257 676 309 676c51.333 0 90.333-2.667 117-8V-49h-62v665h-71V-49z"/><glyph glyph-name="periodcentered" unicode="·" horiz-adv-x="207" d="M102 200c-16.667 0-30.499 6-41.499 18s-16.5 26.667-16.5 44c0 18.667 5.667 33.834 17 45.501s25.666 17.5 42.999 17.5 31.5-5.833 42.5-17.5S163 280.667 163 262c0-18-5.667-32.833-17-44.5S120 200 102 200z"/><glyph glyph-name="cedilla" unicode="¸" d="M135 3l55.002.001-33-53c19.333-2 35.833-9.333 49.5-22s20.5-28.334 20.5-47.001c0-28-9.833-48.5-29.5-61.5S152.668-200 122.001-200c-26 0-48.667 5.667-68 17l15 43c17.333-9.333 35.333-14 54-14 12.667 0 23.167 2.5 31.5 7.5S166.667-133.667 166-123c0 23.333-26 37.333-78 42z"/><glyph glyph-name="onesuperior" unicode="¹" horiz-adv-x="244" d="M177 443h-70v328h-2l-72-35-11 52 94 45h61V443z"/><glyph glyph-name="ordmasculine" unicode="º" horiz-adv-x="355" d="M180 591c47.333 0 85.335-15.168 114.002-45.501s43-69.5 43-117.5c-.667-54-16.834-95.333-48.501-124s-68.834-43-111.501-43c-45.333 0-83.166 15-113.499 45s-45.5 69-45.5 117c0 50.667 15.667 91.334 47 122.001S134.667 591 180 591zm-3.998-50.001c-29.333 0-51.832-11.832-67.499-35.499s-23.5-50.834-23.5-81.501c0-32 9.167-58.833 27.5-80.5s40.166-32.5 65.499-32.5c26.667 0 48.667 10.667 66 32s26 49 26 83c0 29.333-8 55.833-24 79.5s-39.333 35.5-70 35.5z"/><glyph glyph-name="guillemotright" unicode="»" horiz-adv-x="419" d="M157 252L24 436h70l133-184L94 68H24zm163 0L186 436h71l133-184L257 68h-70z"/><glyph glyph-name="onequarter" unicode="¼" horiz-adv-x="759" d="M198 266h-70v329h-2l-72-35-11 52 94 44h61V266zm-3-277h-57l380 672h56zM663 0h-66v103H397v39l193 253h73V152h60v-49h-60V0zm-66 152v118c0 6 1 27 3 63h-2c-4-6-9.5-15.167-16.5-27.5S569 284 565 278l-96-125 1-1h127z"/><glyph glyph-name="onehalf" unicode="½" horiz-adv-x="759" d="M184 266h-70v329h-2l-72-35-11 52 94 44h61V266zm-9-277h-56l379 672h56zM440 0l.001 36.999 63 58c46 42.667 78.5 76.334 97.5 101.001s28.5 49 28.5 73c0 20.667-6.5 37.5-19.5 50.5s-31.833 19.5-56.5 19.5c-28 0-56-10.333-84-31l-21 46c33.333 27.333 74.333 41 123 41 43.333 0 76.166-11.167 98.499-33.5S703 313 703 283c0-34.667-10.5-66-31.5-94S616.667 126.333 570 85l-30-28v-2h170V0H440z"/><glyph glyph-name="threequarters" unicode="¾" horiz-adv-x="759" d="M66 582l-16.999 47.001c30.667 21.333 68.667 32 114 32 40.667 0 71.334-9 92.001-27s31-40.333 31-67c0-20.667-6.667-38.834-20-54.501s-32-27.5-56-35.5v-2c27.333-4 49.666-14.833 66.999-32.5s26-39.167 26-64.5c0-32.667-14.167-60.334-42.5-83.001s-66.833-34-115.5-34c-48 0-86.333 9.333-115 28l18 50c25.333-17.333 56.333-26 93-26 28.667 0 50.667 6.833 66 20.5s22.666 29.167 21.999 46.5c0 24-10.333 41.833-31 53.5s-45.667 17.167-75 16.5H96v46h27c22.667 0 43.5 5.333 62.5 16S214 538.333 214 559c0 14-5.333 25.833-16 35.5S171.333 609 150 609c-30 0-58-9-84-27zM232.001-10.999h-57l380 672h56zm442 11h-66v103h-200v39l193 253h73v-243h60v-49h-60v-103zm-66 152V270c0 6 1 27 3 63h-2c-19.333-33.333-30.333-51.666-33-54.999l-97-125 1-1h128z"/><glyph glyph-name="questiondown" unicode="¿" horiz-adv-x="406" d="M238 488c17.333 0 31.333-5.833 42-17.5s16-26.834 16-45.501c0-18-5.333-32.833-16-44.5s-25-17.5-43-17.5c-17.333 0-31.5 5.833-42.5 17.5s-16.5 26.5-16.5 44.5c0 18.667 5.5 33.834 16.5 45.501S220 488 238 488zm-41-202l77.001.003 3-26c6.667-57.333-14-115.333-62-174-46.667-54.667-70-100.334-70-137.001 0-26 8.167-46.833 24.5-62.5s39.833-23.5 70.5-23.5c38.667 0 72.667 10.333 102 31l23-63c-39.333-26.667-87-40-143-40-54 0-95.333 14.167-124 42.5s-43 63.166-43 104.499c0 30.667 7.167 58.667 21.5 84S112.667 77.334 142 112c41.333 49.333 60 98.666 56 147.999z"/><glyph glyph-name="Agrave" unicode="À" horiz-adv-x="612" d="M424 212H185L115 0H25l230 674h104L589 0h-93zm-221 68h203.999l-67 194c-9.333 27.333-21 68.333-35 123h-2C287.666 537 276.333 496.333 269 475zm-42.001 547h106l93-116h-71z"/><glyph glyph-name="Aacute" unicode="Á" horiz-adv-x="612" d="M424 212H185L115 0H25l230 674h104L589 0h-93zm-221 68h203.999l-67 194c-9.333 27.333-21 68.333-35 123h-2C287.666 537 276.333 496.333 269 475zm144.999 547h106l-128-117h-71z"/><glyph glyph-name="Acircumflex" unicode="Â" horiz-adv-x="612" d="M424 212H185L115 0H25l230 674h104L589 0h-93zm-221 68h203.999l-67 194c-9.333 27.333-21 68.333-35 123h-2C287.666 537 276.333 496.333 269 475zm72.999 544h67l105-114h-74l-63 69h-2l-64-69h-71z"/><glyph glyph-name="Atilde" unicode="Ã" horiz-adv-x="612" d="M424 212H185L115 0H25l230 674h104L589 0h-93zm-221 68h203.999l-67 194c-9.333 27.333-21 68.333-35 123h-2C287.666 537 276.333 496.333 269 475zm28.999 435h-46.997c-.667 30.667 5.166 55.334 17.499 74.001s29.166 28 50.499 28c14.667 0 34.667-6.667 60-20 21.333-12 37.333-18 48-18 8 0 14.167 2.667 18.5 8s7.166 15.666 8.499 30.999h46c1.333-64.667-21-97-67-97-16.667 0-37 6.333-61 19-25.333 12.667-41.333 19-48 19-14 0-22.667-14.667-26-44z"/><glyph glyph-name="Adieresis" unicode="Ä" horiz-adv-x="612" d="M424 212H185L115 0H25l230 674h104L589 0h-93zm-221 68h203.999l-67 194c-9.333 27.333-21 68.333-35 123h-2C287.666 537 276.333 496.333 269 475zm12.999 439c-14 0-25.5 5.001-34.5 15.001s-13.5 22-13.5 36 4.667 25.833 14 35.5 21 14.5 35 14.5 25.5-4.833 34.5-14.5 13.5-21.5 13.5-35.5c0-14.667-4.5-26.834-13.5-36.501s-20.833-14.5-35.5-14.5zm186 .001c-14 0-25.5 5.001-34.5 15.001s-13.5 22-13.5 36 4.833 25.833 14.5 35.5 21.5 14.5 35.5 14.5 25.5-4.833 34.5-14.5 13.5-21.5 13.5-35.5c0-14.667-4.5-26.834-13.5-36.501s-21.167-14.5-36.5-14.5z"/><glyph glyph-name="Aring" unicode="Å" horiz-adv-x="612" d="M424 212H185L115 0H25l230 674h104L589 0h-93zm-221 68h203.999l-67 194c-9.333 27.333-21 68.333-35 123h-2C287.666 537 276.333 496.333 269 475zm105.999 598c29.333 0 53.001-8.667 71.001-26s27-39 27-65c0-25.333-9.333-46.333-28-63s-42.334-25-71.001-25c-29.333 0-53.333 8.5-72 25.5s-28 37.833-28 62.5c0 26 9.167 47.667 27.5 65s42.833 26 73.5 26zM306 842c-14.667 0-26.167-5.334-34.5-16.001s-12.5-23.667-12.5-39c0-13.333 4.5-25.166 13.5-35.499S293 736 307 736s25.5 5 34.5 15 13.5 22.667 13.5 38c0 14.667-4.5 27.167-13.5 37.5S320.667 842 306 842z"/><glyph glyph-name="AE" unicode="Æ" horiz-adv-x="788" d="M89 0H-1l308 674h422l-1-73H442l26-215h251v-72H479l30-241h247l-1-73H434l-30 237H197zm137 308l168 .001-22 194c-6.667 53.333-10.667 89.666-12 108.999h-4c-6.667-18.667-21-54-43-106z"/><glyph glyph-name="Ccedilla" unicode="Ç" horiz-adv-x="585" d="M530 91l17.002-69c-38-20.667-96.333-31.334-175-32.001l-25-40c20-4 36.667-12.5 50-25.5s20-29.167 20-48.5c0-27.333-9.833-47.666-29.5-60.999s-44.167-20-73.5-20c-26.667 0-50.334 5.667-71.001 17l14 45c15.333-9.333 33.666-14 54.999-14 28.667 0 43 10.333 43 31 0 22-26 36.333-78 43l42 76C233.667 3 165.167 37.167 113.5 95.5S36 232.333 36 331c0 106 32.5 191.5 97.5 256.5S283.667 685 389 685c69.333 0 122.333-10 159-30l-21-71c-38.667 18.667-84 28-136 28-80 0-143.833-24.5-191.5-73.5S128 421.333 128 334c0-84 22.833-150.167 68.5-198.5S305.667 63 387 63c56 0 103.667 9.333 143 28z"/><glyph glyph-name="Egrave" unicode="È" horiz-adv-x="492" d="M424 388v-72H163V73h292V0H75v674h365v-73H163V388h261zM119 827h106l93-116h-71z"/><glyph glyph-name="Eacute" unicode="É" horiz-adv-x="492" d="M424 388v-72H163V73h292V0H75v674h365v-73H163V388h261zM302 827h106L280 710h-71z"/><glyph glyph-name="Ecircumflex" unicode="Ê" horiz-adv-x="492" d="M424 388v-72H163V73h292V0H75v674h365v-73H163V388h261zM223 824h67l105-114h-74l-63 69h-2l-64-69h-71z"/><glyph glyph-name="Edieresis" unicode="Ë" horiz-adv-x="492" d="M425 388v-72H163V73h293V0H75v674h365v-73H163V388h262zM162 721c-14 0-25.5 5.001-34.5 15.001s-13.5 22-13.5 36 4.667 25.833 14 35.5 21 14.5 35 14.5 25.5-4.833 34.5-14.5 13.5-21.5 13.5-35.5c0-14.667-4.5-26.834-13.5-36.501S176.667 721 162 721zm185 .001c-14 0-25.5 5.001-34.5 15.001s-13.5 22-13.5 36 4.833 25.833 14.5 35.5 21.5 14.5 35.5 14.5 25.5-4.833 34.5-14.5 13.5-21.5 13.5-35.5c0-14.667-4.5-26.834-13.5-36.501s-21.167-14.5-36.5-14.5z"/><glyph glyph-name="Igrave" unicode="Ì" horiz-adv-x="239" d="M75 674h88V0H75v674zM-25 827H81l93-116h-71z"/><glyph glyph-name="Iacute" unicode="Í" horiz-adv-x="239" d="M75 674h88V0H75v674zm85 153h106L138 710H67z"/><glyph glyph-name="Icircumflex" unicode="Î" horiz-adv-x="239" d="M75 674h88V0H75v674zm10 150h67l105-114h-74l-63 69h-2l-64-69h-71z"/><glyph glyph-name="Idieresis" unicode="Ï" horiz-adv-x="239" d="M75 674h88V0H75v674zm-48 47c-14 0-25.5 5.001-34.5 15.001s-13.5 22-13.5 36 4.667 25.833 14 35.5 21 14.5 35 14.5 25.5-4.833 34.5-14.5 13.5-21.5 13.5-35.5c0-14.667-4.5-26.834-13.5-36.501S41.667 721 27 721zm185 .001c-14 0-25.5 5.001-34.5 15.001s-13.5 22-13.5 36 4.833 25.833 14.5 35.5 21.5 14.5 35.5 14.5 25.5-4.833 34.5-14.5 13.5-21.5 13.5-35.5c0-14.667-4.5-26.834-13.5-36.501s-21.167-14.5-36.5-14.5z"/><glyph glyph-name="Eth" unicode="Ð" horiz-adv-x="671" d="M-1 307l-.001 70.001h82v290c58.667 10 120.334 15 185.001 15 122 0 212.667-28 272-84 64-56.667 96-138.334 96-245.001 0-109.333-32.333-197-97-263C471 25.333 371.667-7 239-7 185-7 132.333-4.667 81 0v307H-1zm348.999 70.001V307h-180V67c19.333-2.667 48.333-4 87-4 93.333 0 164.5 24.833 213.5 74.5s73.5 121.167 73.5 214.5c.667 82.667-22 146.834-68 192.501s-114 68.5-204 68.5c-40.667 0-74.667-3-102-9v-227h180z"/><glyph glyph-name="Ntilde" unicode="Ñ" horiz-adv-x="658" d="M158 0L76 .001v674h96l215-341c52-84 92-157 120-219l3 1c-6.667 75.333-10 167.666-10 276.999v282h82V0h-88L280 342c-56 88.667-97.667 163.667-125 225l-3-1c4-68 6-160.667 6-278V0zm99 715.001h-46.998c-.667 30.667 5.166 55.334 17.499 74.001s29.166 28 50.499 28c14 0 33.667-6.667 59-20 21.333-12 37.333-18 48-18 8 0 14.167 2.667 18.5 8s7.166 15.666 8.499 30.999h46c1.333-64.667-21-97-67-97-15.333 0-35.666 6.333-60.999 19-24 12.667-39.667 19-47 19-14 0-22.667-14.667-26-44z"/><glyph glyph-name="Ograve" unicode="Ò" horiz-adv-x="689" d="M348 686c92 0 165.667-31.668 221-95.001S652 445.333 652 344c0-111.333-29.667-198.333-89-261S429-11 339-11c-89.333 0-162.166 31.667-218.499 95s-84.5 146-84.5 248c0 106 29.167 191.5 87.5 256.5S256.667 686 348 686zm-3-71.001c-68.667 0-122.001-27.167-160.001-81.5s-57-120.833-57-199.5c0-76 19.5-140.667 58.5-194s91.5-80 157.5-80c66.667 0 119.334 26.667 158.001 80s58 120 58 200c0 74-18.833 138.333-56.5 193s-90.5 82-158.5 82zm-146.001 214h106l93-116h-71z"/><glyph glyph-name="Oacute" unicode="Ó" horiz-adv-x="689" d="M348 686c92 0 165.667-31.668 221-95.001S652 445.333 652 344c0-111.333-29.667-198.333-89-261S429-11 339-11c-89.333 0-162.166 31.667-218.499 95s-84.5 146-84.5 248c0 106 29.167 191.5 87.5 256.5S256.667 686 348 686zm-3-71.001c-68.667 0-122.001-27.167-160.001-81.5s-57-120.833-57-199.5c0-76 19.5-140.667 58.5-194s91.5-80 157.5-80c66.667 0 119.334 26.667 158.001 80s58 120 58 200c0 74-18.833 138.333-56.5 193s-90.5 82-158.5 82zm38.999 214h106l-128-117h-71z"/><glyph glyph-name="Ocircumflex" unicode="Ô" horiz-adv-x="689" d="M348 686c92 0 165.667-31.668 221-95.001S652 445.333 652 344c0-111.333-29.667-198.333-89-261S429-11 339-11c-89.333 0-162.166 31.667-218.499 95s-84.5 146-84.5 248c0 106 29.167 191.5 87.5 256.5S256.667 686 348 686zm-3-71.001c-68.667 0-122.001-27.167-160.001-81.5s-57-120.833-57-199.5c0-76 19.5-140.667 58.5-194s91.5-80 157.5-80c66.667 0 119.334 26.667 158.001 80s58 120 58 200c0 74-18.833 138.333-56.5 193s-90.5 82-158.5 82zm-36.001 212h67l105-114h-74l-63 69h-2l-64-69h-71z"/><glyph glyph-name="Otilde" unicode="Õ" horiz-adv-x="689" d="M348 686c92 0 165.667-31.668 221-95.001S652 445.333 652 344c0-111.333-29.667-198.333-89-261S429-11 339-11c-89.333 0-162.166 31.667-218.499 95s-84.5 146-84.5 248c0 106 29.167 191.5 87.5 256.5S256.667 686 348 686zm-3-71.001c-68.667 0-122.001-27.167-160.001-81.5s-57-120.833-57-199.5c0-76 19.5-140.667 58.5-194s91.5-80 157.5-80c66.667 0 119.334 26.667 158.001 80s58 120 58 200c0 74-18.833 138.333-56.5 193s-90.5 82-158.5 82zm-78.001 103l-46.998.001c-.667 30 5.166 54.333 17.499 73s29.166 28 50.499 28c14 0 33.667-6.667 59-20 21.333-12 37.333-18 48-18 8 0 14.167 2.667 18.5 8s7.166 15.666 8.499 30.999h46c1.333-64.667-21-97-67-97-15.333 0-35.666 6.333-60.999 19-24 12.667-39.667 19-47 19-14 0-22.667-14.333-26-43z"/><glyph glyph-name="Odieresis" unicode="Ö" horiz-adv-x="689" d="M348 686c92 0 165.667-31.668 221-95.001S652 445.333 652 344c0-111.333-29.667-198.333-89-261S429-11 339-11c-89.333 0-162.166 31.667-218.499 95s-84.5 146-84.5 248c0 106 29.167 191.5 87.5 256.5S256.667 686 348 686zm-3-71.001c-68.667 0-122.001-27.167-160.001-81.5s-57-120.833-57-199.5c0-76 19.5-140.667 58.5-194s91.5-80 157.5-80c66.667 0 119.334 26.667 158.001 80s58 120 58 200c0 74-18.833 138.333-56.5 193s-90.5 82-158.5 82zm-94.001 106c-14 0-25.5 5.001-34.5 15.001s-13.5 22-13.5 36 4.667 25.833 14 35.5 21 14.5 35 14.5 25.5-4.833 34.5-14.5 13.5-21.5 13.5-35.5c0-14.667-4.5-26.834-13.5-36.501s-20.833-14.5-35.5-14.5zm185 .001c-14 0-25.5 5.001-34.5 15.001s-13.5 22-13.5 36 4.833 25.833 14.5 35.5 21.5 14.5 35.5 14.5 25.5-4.833 34.5-14.5 13.5-21.5 13.5-35.5c0-14.667-4.5-26.834-13.5-36.501s-21.167-14.5-36.5-14.5z"/><glyph glyph-name="multiply" unicode="×" horiz-adv-x="596" d="M40 482l44 44 214-219 214 219 44-44-215-219L556 44 512 0 298 219 84 0 40 44l214 219z"/><glyph glyph-name="Oslash" unicode="Ø" horiz-adv-x="689" d="M112-43L63-3l62 87c-59.333 64.667-89 148-89 250 0 105.333 29.333 190.333 88 255s133 97 223 97c64 0 120-18 168-54l59 81 53-36-62-86c58-63.333 87-146 87-248 0-112-29.667-199-89-261S431-11 345-11c-64 0-120.667 18-170 54zm64 201l296 411c-36.667 31.333-79 47-127 47-69.333 0-123.333-27.333-162-82s-58-120-58-196c0-64 16.333-124.333 49-181zm337 358L218.001 107c34-32 76-48 126-48C411.334 59 464.667 86 504 140s59 120.667 59 200c0 65.333-15.667 124-47 176h-3z"/><glyph glyph-name="Ugrave" unicode="Ù" horiz-adv-x="647" d="M75 674l87.999.002v-400c0-72 14.333-125.667 43-161s66.667-53 114-53c51.333 0 91.5 17.667 120.5 53s43.5 89 43.5 161v400h88v-394c0-98.667-23.167-171.834-69.5-219.501S394.333-10.999 317-10.999c-74 0-132.833 23.167-176.5 69.5S75 177.667 75 277v397zm107.999 153.002h106l93-116h-71z"/><glyph glyph-name="Uacute" unicode="Ú" horiz-adv-x="647" d="M75 674l87.999.002v-400c0-72 14.333-125.667 43-161s66.667-53 114-53c51.333 0 91.5 17.667 120.5 53s43.5 89 43.5 161v400h88v-394c0-98.667-23.167-171.834-69.5-219.501S394.333-10.999 317-10.999c-74 0-132.833 23.167-176.5 69.5S75 177.667 75 277v397zm291.999 153.002h106l-128-117h-71z"/><glyph glyph-name="Ucircumflex" unicode="Û" horiz-adv-x="647" d="M75 674l87.999.002v-400c0-72 14.333-125.667 43-161s66.667-53 114-53c51.333 0 91.5 17.667 120.5 53s43.5 89 43.5 161v400h88v-394c0-98.667-23.167-171.834-69.5-219.501S394.333-10.999 317-10.999c-74 0-132.833 23.167-176.5 69.5S75 177.667 75 277v397zm219.999 150.002h67l105-114h-74l-63 69h-2l-64-69h-71z"/><glyph glyph-name="Udieresis" unicode="Ü" horiz-adv-x="647" d="M75 674l87.999.002v-400c0-72 14.333-125.667 43-161s66.667-53 114-53c51.333 0 91.5 17.667 120.5 53s43.5 89 43.5 161v400h88v-394c0-98.667-23.167-171.834-69.5-219.501S394.333-10.999 317-10.999c-74 0-132.833 23.167-176.5 69.5S75 177.667 75 277v397zm156.999 47.002c-14 0-25.5 5.001-34.5 15.001s-13.5 22-13.5 36 4.667 25.833 14 35.5 21 14.5 35 14.5 25.5-4.833 34.5-14.5 13.5-21.5 13.5-35.5c0-14.667-4.5-26.834-13.5-36.501s-20.833-14.5-35.5-14.5zm186 .001c-14 0-25.5 5.001-34.5 15.001s-13.5 22-13.5 36 4.833 25.833 14.5 35.5 21.5 14.5 35.5 14.5 25.5-4.833 34.5-14.5 13.5-21.5 13.5-35.5c0-14.667-4.5-26.834-13.5-36.501s-21.167-14.5-36.5-14.5z"/><glyph glyph-name="Yacute" unicode="Ý" horiz-adv-x="541" d="M314 0h-88v286L12 674h100l95-186 67-139h2c8 18.667 30.667 65 68 139l97 186h98L314 287V0zm6 822h106L298 705h-71z"/><glyph glyph-name="Thorn" unicode="Þ" horiz-adv-x="531" d="M76 0l-.001 673.999h86v-131c25.333 4.667 57.333 7 96 7 78 0 137.333-18.333 178-55 36.667-33.333 55-76.666 55-129.999 0-69.333-23.167-122.333-69.5-159s-107.5-55-183.5-55c-27.333 0-52.666 1.667-75.999 5V0H76zm85.999 472.999l-.001-246c18.667-4 43.667-6 75-6 53.333 0 94.5 12 123.5 36s43.5 56.667 43.5 98c0 42-13.833 73.5-41.5 94.5s-65.167 31.5-112.5 31.5c-37.333 0-66.666-2.667-87.999-8z"/><glyph glyph-name="germandbls" unicode="ß" horiz-adv-x="548" d="M161 0L72.999-.001v452c0 102.667 24 175.334 72 218.001 36.667 34 85.334 51 146.001 51 50 0 92.167-15 126.5-45S469 604.667 469 552c0-32-8-59.333-24-82-47.333-20-71-47-71-81 0-10.667 2.333-21.167 7-31.5s10-18.833 16-25.5l28-30c17.333-17.333 30.666-31.5 39.999-42.5s18.5-26.667 27.5-47 13.5-41.833 13.5-64.5c0-47.333-16.167-85.666-48.5-114.999s-75.833-44-130.5-44c-43.333 0-78.666 7-105.999 21l16 67c26.667-13.333 54.667-20 84-20 30.667 0 54.667 8 72 24s26 36 26 60c0 34.667-18 69-54 103-26 24.667-45.5 46.667-58.5 66S287 351.667 287 377c0 53.333 30 94.333 90 123 5.333 12.667 8 27 8 43 0 34-9.5 60.667-28.5 80s-44.167 29-75.5 29c-40 0-70-15.333-90-46s-30-80.667-30-150V0z"/><glyph glyph-name="agrave" unicode="à" horiz-adv-x="482" d="M413 297l.002-180.998c0-46.667 2.333-85.334 7-116.001h-79l-7 61h-3C316.335 40.334 296.168 23.167 270.501 9.5S215.667-11 183-11c-46.667 0-83 13.667-109 41s-39 60-39 98c0 58.667 25.167 103.5 75.5 134.5s122.166 46.167 215.499 45.5v10c0 12-1.167 23.5-3.5 34.5s-7 22.833-14 35.5-18.333 22.667-34 30-35.167 11-58.5 11c-49.333 0-91.666-12-126.999-36l-20 59c44.667 28 98 42 160 42 67.333 0 114.833-18.667 142.5-56S413 353.667 413 297zm-84.998-133.998v83.997c-136.667 2.667-205-33.666-205-108.999 0-27.333 7.833-48.166 23.5-62.499s35.167-21.5 58.5-21.5c30 0 55.333 7.833 76 23.5s35 34.834 43 57.501c2.667 8.667 4 18 4 28zm-233 529.997h96l88-143h-62z"/><glyph glyph-name="aacute" unicode="á" horiz-adv-x="482" d="M413 297l.002-180.998c0-46.667 2.333-85.334 7-116.001h-79l-7 61h-3C316.335 40.334 296.168 23.167 270.501 9.5S215.667-11 183-11c-46.667 0-83 13.667-109 41s-39 60-39 98c0 58.667 25.167 103.5 75.5 134.5s122.166 46.167 215.499 45.5v10c0 12-1.167 23.5-3.5 34.5s-7 22.833-14 35.5-18.333 22.667-34 30-35.167 11-58.5 11c-49.333 0-91.666-12-126.999-36l-20 59c44.667 28 98 42 160 42 67.333 0 114.833-18.667 142.5-56S413 353.667 413 297zm-84.998-133.998v83.997c-136.667 2.667-205-33.666-205-108.999 0-27.333 7.833-48.166 23.5-62.499s35.167-21.5 58.5-21.5c30 0 55.333 7.833 76 23.5s35 34.834 43 57.501c2.667 8.667 4 18 4 28zm-53 529.997h97l-122-143h-62z"/><glyph glyph-name="acircumflex" unicode="â" horiz-adv-x="482" d="M413 297l.002-180.998c0-46.667 2.333-85.334 7-116.001h-79l-7 61h-3C316.335 40.334 296.168 23.167 270.501 9.5S215.667-11 183-11c-46.667 0-83 13.667-109 41s-39 60-39 98c0 58.667 25.167 103.5 75.5 134.5s122.166 46.167 215.499 45.5v10c0 12-1.167 23.5-3.5 34.5s-7 22.833-14 35.5-18.333 22.667-34 30-35.167 11-58.5 11c-49.333 0-91.666-12-126.999-36l-20 59c44.667 28 98 42 160 42 67.333 0 114.833-18.667 142.5-56S413 353.667 413 297zm-84.998-133.998v83.997c-136.667 2.667-205-33.666-205-108.999 0-27.333 7.833-48.166 23.5-62.499s35.167-21.5 58.5-21.5c30 0 55.333 7.833 76 23.5s35 34.834 43 57.501c2.667 8.667 4 18 4 28zm-123 529.997h61l96-143h-67l-58 94h-2l-58-94h-66z"/><glyph glyph-name="atilde" unicode="ã" horiz-adv-x="482" d="M413 297l.002-180.998c0-46.667 2.333-85.334 7-116.001h-79l-7 61h-3C316.335 40.334 296.168 23.167 270.501 9.5S215.667-11 183-11c-46.667 0-83 13.667-109 41s-39 60-39 98c0 58.667 25.167 103.5 75.5 134.5s122.166 46.167 215.499 45.5v10c0 12-1.167 23.5-3.5 34.5s-7 22.833-14 35.5-18.333 22.667-34 30-35.167 11-58.5 11c-49.333 0-91.666-12-126.999-36l-20 59c44.667 28 98 42 160 42 67.333 0 114.833-18.667 142.5-56S413 353.667 413 297zm-84.998-133.998v83.997c-136.667 2.667-205-33.666-205-108.999 0-27.333 7.833-48.166 23.5-62.499s35.167-21.5 58.5-21.5c30 0 55.333 7.833 76 23.5s35 34.834 43 57.501c2.667 8.667 4 18 4 28zm-165 403.997h-47.998c-.667 32 5 57.333 17 76s29 28 51 28c13.333 0 34-7.333 62-22 20-11.333 34-17 42-17 16.667 0 26 14 28 42h47c1.333-67.333-21.334-101-68.001-101-14.667 0-35.334 7-62.001 21-20 12-34.333 18-43 18-15.333 0-24-15-26-45z"/><glyph glyph-name="adieresis" unicode="ä" horiz-adv-x="482" d="M413 297l.002-180.998c0-46.667 2.333-85.334 7-116.001h-79l-7 61h-3C316.335 40.334 296.168 23.167 270.501 9.5S215.667-11 183-11c-46.667 0-83 13.667-109 41s-39 60-39 98c0 58.667 25.167 103.5 75.5 134.5s122.166 46.167 215.499 45.5v10c0 12-1.167 23.5-3.5 34.5s-7 22.833-14 35.5-18.333 22.667-34 30-35.167 11-58.5 11c-49.333 0-91.666-12-126.999-36l-20 59c44.667 28 98 42 160 42 67.333 0 114.833-18.667 142.5-56S413 353.667 413 297zm-84.998-133.998v83.997c-136.667 2.667-205-33.666-205-108.999 0-27.333 7.833-48.166 23.5-62.499s35.167-21.5 58.5-21.5c30 0 55.333 7.833 76 23.5s35 34.834 43 57.501c2.667 8.667 4 18 4 28zm-180 406.997c-14 0-25.667 5.001-35 15.001s-14 22-14 36 4.833 26 14.5 36 21.834 15 36.501 15c13.333 0 24.666-4.833 33.999-14.5s14-21.834 14-36.501c0-14-4.667-26-14-36s-21.333-15-36-15zm185 .001c-14 0-25.667 5.001-35 15.001s-14 22-14 36 4.833 26 14.5 36 21.5 15 35.5 15 25.667-4.833 35-14.5 14-21.834 14-36.501c0-14-4.667-26-14-36s-21.333-15-36-15z"/><glyph glyph-name="aring" unicode="å" horiz-adv-x="482" d="M413 297l.002-180.998c0-46.667 2.333-85.334 7-116.001h-79l-7 61h-3C316.335 40.334 296.168 23.167 270.501 9.5S215.667-11 183-11c-46.667 0-83 13.667-109 41s-39 60-39 98c0 58.667 25.167 103.5 75.5 134.5s122.166 46.167 215.499 45.5v10c0 12-1.167 23.5-3.5 34.5s-7 22.833-14 35.5-18.333 22.667-34 30-35.167 11-58.5 11c-49.333 0-91.666-12-126.999-36l-20 59c44.667 28 98 42 160 42 67.333 0 114.833-18.667 142.5-56S413 353.667 413 297zm-84.998-133.998v83.997c-136.667 2.667-205-33.666-205-108.999 0-27.333 7.833-48.166 23.5-62.499s35.167-21.5 58.5-21.5c30 0 55.333 7.833 76 23.5s35 34.834 43 57.501c2.667 8.667 4 18 4 28zm-88 373.997c-29.333 0-53.5 8.667-72.5 26s-28.5 39-28.5 65c0 26.667 9.333 49 28 67s43.334 27 74.001 27c29.333 0 53.166-8.833 71.499-26.5s27.5-40.167 27.5-67.5c0-26-9.5-47.667-28.5-65s-42.833-26-71.5-26zm0 37c15.333 0 27.667 5.333 37 16s14 23.667 14 39c0 16-4.833 29.333-14.5 40s-22.167 16-37.5 16-27.333-5.5-36-16.5-13-24.5-13-40.5c0-14 4.667-26.5 14-37.5s21.333-16.5 36-16.5z"/><glyph glyph-name="ae" unicode="æ" horiz-adv-x="773" d="M734 233l-325.003-.003c-1.333-56 12.334-99.333 41.001-130s66.667-46 114-46c49.333 0 93.333 9 132 27l16-62c-42-22-95-33-159-33-42.667 0-80.5 9.333-113.5 28s-56.5 45-70.5 79h-3c-15.333-33.333-38.666-59.5-69.999-78.5s-67.666-28.5-108.999-28.5c-48 0-85.167 13.5-111.5 40.5s-39.5 59.5-39.5 97.5c0 56.667 25.333 100.334 76 131.001S234.334 303.332 327.001 302v20c0 8-1.333 17.167-4 27.5s-7.5 21.833-14.5 34.5-18.667 23.334-35 32.001-35.833 13-58.5 13c-48 0-89.333-12-124-36l-21 57c45.333 29.333 95.666 44 150.999 44 82 0 134-34 156-102h2c16 32 38.667 57 68 75s63 27 101 27c34.667 0 65.167-7.667 91.5-23s46-35 59-59 22.667-47.667 29-71 9.5-46.333 9.5-69c0-17.333-1-30.333-3-39zm-405.003-61.003l.001 70.999c-137.333 2.667-206-33.666-206-108.999 0-24.667 8-44.167 24-58.5s36-21.5 60-21.5c30-.667 55.167 7 75.5 23s34.166 36 41.499 60c3.333 12 5 23.667 5 35zm80.001 123.999l243.997-.001c.667 18.667-2.166 37.834-8.499 57.501s-18.666 37.667-36.999 54-41.166 24.5-68.499 24.5c-40 0-71.167-14.333-93.5-43s-34.5-59.667-36.5-93z"/><glyph glyph-name="ccedilla" unicode="ç" horiz-adv-x="447" d="M403 84l14.998-65.997c-36-18-78-27.333-126-28l-25-40c20-4 36.667-12.333 50-25s20-28.667 20-48c0-28-9.833-48.833-29.5-62.5s-44.5-20.5-74.5-20.5c-27.333 0-50.666 5.667-69.999 17l15 45c15.333-9.333 33.666-14 54.999-14 28.667 0 43 10.667 43 32-.667 22.667-26.667 36.667-78 42l42 77c-61.333 7.333-110.333 33.166-147 77.499s-55 99.833-55 166.5c0 74.667 23.833 136.167 71.5 184.5s110.5 72.5 188.5 72.5c49.333 0 90-8.667 122-26l-20-67c-29.333 15.333-63.333 23-102 23-53.333 0-95.166-17.333-125.499-52s-45.5-78.334-45.5-131.001c0-54.667 15.833-98.334 47.5-131.001S246.333 61 295 61c38.667 0 74.667 7.667 108 23z"/><glyph glyph-name="egrave" unicode="è" horiz-adv-x="501" d="M462 226l-340 .001c.667-56.667 16.5-98.834 47.5-126.501S240 58 288 58c51.333 0 96 8.333 134 25l16-63C392-.667 338-11 276-11c-73.333 0-131.333 22.333-174 67S38 160 38 234c0 74.667 20.667 136.667 62 186s96.333 74 165 74c37.333 0 69.833-7.5 97.5-22.5S411 437 425 413s24.167-48.167 30.5-72.5 9.5-48.833 9.5-73.5c0-17.333-1-31-3-41zm-339 63.001h257.001c.667 35.333-8.5 67.833-27.5 97.5s-50.5 44.5-94.5 44.5c-40.667 0-72.334-14.5-95.001-43.5s-36-61.833-40-98.5zm12.001 404h96l88-143h-62z"/><glyph glyph-name="eacute" unicode="é" horiz-adv-x="501" d="M462 226l-340 .001c.667-56.667 16.5-98.834 47.5-126.501S240 58 288 58c51.333 0 96 8.333 134 25l16-63C392-.667 338-11 276-11c-73.333 0-131.333 22.333-174 67S38 160 38 234c0 74.667 20.667 136.667 62 186s96.333 74 165 74c37.333 0 69.833-7.5 97.5-22.5S411 437 425 413s24.167-48.167 30.5-72.5 9.5-48.833 9.5-73.5c0-17.333-1-31-3-41zm-339 63.001h257.001c.667 35.333-8.5 67.833-27.5 97.5s-50.5 44.5-94.5 44.5c-40.667 0-72.334-14.5-95.001-43.5s-36-61.833-40-98.5zm181.001 404h96l-122-143h-62z"/><glyph glyph-name="ecircumflex" unicode="ê" horiz-adv-x="501" d="M462 226l-340 .001c.667-56.667 16.5-98.834 47.5-126.501S240 58 288 58c51.333 0 96 8.333 134 25l16-63C392-.667 338-11 276-11c-73.333 0-131.333 22.333-174 67S38 160 38 234c0 74.667 20.667 136.667 62 186s96.333 74 165 74c37.333 0 69.833-7.5 97.5-22.5S411 437 425 413s24.167-48.167 30.5-72.5 9.5-48.833 9.5-73.5c0-17.333-1-31-3-41zm-339 63.001h257.001c.667 35.333-8.5 67.833-27.5 97.5s-50.5 44.5-94.5 44.5c-40.667 0-72.334-14.5-95.001-43.5s-36-61.833-40-98.5zm108.001 404h61l96-143h-67l-58 94h-2l-58-94h-66z"/><glyph glyph-name="edieresis" unicode="ë" horiz-adv-x="501" d="M462 226l-340 .001c.667-56.667 16.5-98.834 47.5-126.501S240 58 288 58c51.333 0 96 8.333 134 25l16-63C392-.667 338-11 276-11c-73.333 0-131.333 22.333-174 67S38 160 38 234c0 74.667 20.667 136.667 62 186s96.333 74 165 74c37.333 0 69.833-7.5 97.5-22.5S411 437 425 413s24.167-48.167 30.5-72.5 9.5-48.833 9.5-73.5c0-17.333-1-31-3-41zm-339 63.001h257.001c.667 35.333-8.5 67.833-27.5 97.5s-50.5 44.5-94.5 44.5c-40.667 0-72.334-14.5-95.001-43.5s-36-61.833-40-98.5zm52.001 281c-14 0-25.667 5.001-35 15.001s-14 22-14 36 4.833 26 14.5 36 21.834 15 36.501 15c13.333 0 24.666-4.833 33.999-14.5s14-21.834 14-36.501c0-14-4.667-26-14-36s-21.333-15-36-15zm185 .001c-14 0-25.667 5.001-35 15.001s-14 22-14 36 4.833 26 14.5 36 21.5 15 35.5 15 25.667-4.833 35-14.5 14-21.834 14-36.501c0-14-4.667-26-14-36s-21.333-15-36-15z"/><glyph glyph-name="igrave" unicode="ì" horiz-adv-x="234" d="M161 0H73v484h88V0zM-27 693h96l88-143H95z"/><glyph glyph-name="iacute" unicode="í" horiz-adv-x="234" d="M161 0H73v484h88V0zm-5 693h96L130 550H68z"/><glyph glyph-name="icircumflex" unicode="î" horiz-adv-x="234" d="M161 0H73v484h88V0zM86 693h61l96-143h-67l-58 94h-2l-58-94H-8z"/><glyph glyph-name="idieresis" unicode="ï" horiz-adv-x="234" d="M161 0H73v484h88V0zM24 570c-14 0-25.667 5.001-35 15.001s-14 22-14 36 4.833 26 14.5 36 21.834 15 36.501 15c13.333 0 24.666-4.833 33.999-14.5S74 635.667 74 621c0-14-4.667-26-14-36s-21.333-15-36-15zm185 .001c-14 0-25.667 5.001-35 15.001s-14 22-14 36 4.833 26 14.5 36 21.5 15 35.5 15 25.667-4.833 35-14.5 14-21.834 14-36.501c0-14-4.667-26-14-36s-21.333-15-36-15z"/><glyph glyph-name="eth" unicode="ð" horiz-adv-x="541" d="M268 55c43.333 0 77.999 17.5 103.999 52.5s39 80.167 39 135.5c0 61.333-11.333 106-34 134-27.333 31.333-62.666 47-105.999 47-47.333 0-83-19.333-107-58s-36-81.667-36-129c0-51.333 13.333-94.5 40-129.5S228 55 268 55zM115.999 507l-19 43 116 55c-27.333 20.667-62 40.667-104 60l39 55c48.667-21.333 95.334-48.333 140.001-81l127 61 22-44-106-50c55.333-45.333 97.666-98.333 126.999-159 28.667-57.333 43-122.333 43-195 0-44.667-6.667-84.334-20-119.001s-31.333-62.167-54-82.5-47.5-35.666-74.5-45.999-55.5-15.5-85.5-15.5c-66.667 0-121.5 22.5-164.5 67.5s-64.5 104.833-64.5 179.5 22 134.5 66 179.5 96.333 67.833 157 68.5c44 0 81.667-14.333 113-43l2 3c-30 48.667-69.333 91.667-118 129z"/><glyph glyph-name="ntilde" unicode="ñ" horiz-adv-x="555" d="M73 0l-.001 352.998c0 52-1.333 95.667-4 131h78l5-80h2c13.333 25.333 34 46.666 62 63.999s60.667 26 98 26c18.667 0 37.167-3.167 55.5-9.5s36.5-16.666 54.5-30.999 32.667-35.666 44-63.999 17-62.166 17-101.499V0h-88v279c0 42.667-9 77.167-27 103.5s-46.333 39.5-85 39.5c-27.333 0-51.666-8.667-72.999-26s-36.333-38.666-45-63.999c-4-10.667-6-24.334-6-41.001V0H73zm129.999 566.998h-48c-.667 32 5 57.333 17 76s29 28 51 28c13.333 0 34-7.333 62-22 20-11.333 34-17 42-17 16 0 25 14 27 42h47c1.333-67.333-21.334-101-68.001-101-15.333 0-35.666 7-60.999 21-22 12-36.333 18-43 18-15.333 0-24-15-26-45z"/><glyph glyph-name="ograve" unicode="ò" horiz-adv-x="549" d="M278 494c69.333 0 125.499-23.001 168.499-69.001s64.5-105.667 64.5-179c0-83.333-24-147-72-191s-104.333-66-169-66c-66.667 0-122 22.833-166 68.5s-66 105.834-66 180.501c0 78 22.833 140.167 68.5 186.5S209.333 494 278 494zm-2.001-66.001c-48 0-84.667-18.501-110-55.501s-38-80.833-38-131.5c0-53.333 13.667-97.666 41-132.999s62.333-53 105-53c42 0 77 17.833 105 53.5s42 80.5 42 134.5c0 47.333-12.167 90-36.5 128s-60.5 57-108.5 57zm-131 264.999h96l88-143h-62z"/><glyph glyph-name="oacute" unicode="ó" horiz-adv-x="549" d="M278 494c69.333 0 125.499-23.001 168.499-69.001s64.5-105.667 64.5-179c0-83.333-24-147-72-191s-104.333-66-169-66c-66.667 0-122 22.833-166 68.5s-66 105.834-66 180.501c0 78 22.833 140.167 68.5 186.5S209.333 494 278 494zm-2.001-66.001c-48 0-84.667-18.501-110-55.501s-38-80.833-38-131.5c0-53.333 13.667-97.666 41-132.999s62.333-53 105-53c42 0 77 17.833 105 53.5s42 80.5 42 134.5c0 47.333-12.167 90-36.5 128s-60.5 57-108.5 57zm33 264.999h97l-122-143h-62z"/><glyph glyph-name="ocircumflex" unicode="ô" horiz-adv-x="549" d="M278 494c69.333 0 125.499-23.001 168.499-69.001s64.5-105.667 64.5-179c0-83.333-24-147-72-191s-104.333-66-169-66c-66.667 0-122 22.833-166 68.5s-66 105.834-66 180.501c0 78 22.833 140.167 68.5 186.5S209.333 494 278 494zm-2.001-66.001c-48 0-84.667-18.501-110-55.501s-38-80.833-38-131.5c0-53.333 13.667-97.666 41-132.999s62.333-53 105-53c42 0 77 17.833 105 53.5s42 80.5 42 134.5c0 47.333-12.167 90-36.5 128s-60.5 57-108.5 57zm-33 264.999h61l96-143h-67l-59 94h-2l-57-94h-66z"/><glyph glyph-name="otilde" unicode="õ" horiz-adv-x="549" d="M278 494c69.333 0 125.499-23.001 168.499-69.001s64.5-105.667 64.5-179c0-83.333-24-147-72-191s-104.333-66-169-66c-66.667 0-122 22.833-166 68.5s-66 105.834-66 180.501c0 78 22.833 140.167 68.5 186.5S209.333 494 278 494zm-2.001-66.001c-48 0-84.667-18.501-110-55.501s-38-80.833-38-131.5c0-53.333 13.667-97.666 41-132.999s62.333-53 105-53c42 0 77 17.833 105 53.5s42 80.5 42 134.5c0 47.333-12.167 90-36.5 128s-60.5 57-108.5 57zm-77 138.999h-47.998c-.667 32 5 57.333 17 76s29 28 51 28c12.667 0 33.667-7.333 63-22 20-11.333 34-17 42-17 16 0 25 14 27 42h47c1.333-67.333-21.334-101-68.001-101-14.667 0-35.334 7-62.001 21-20 12-34.333 18-43 18-15.333 0-24-15-26-45z"/><glyph glyph-name="odieresis" unicode="ö" horiz-adv-x="549" d="M278 494c69.333 0 125.499-23.001 168.499-69.001s64.5-105.667 64.5-179c0-83.333-24-147-72-191s-104.333-66-169-66c-66.667 0-122 22.833-166 68.5s-66 105.834-66 180.501c0 78 22.833 140.167 68.5 186.5S209.333 494 278 494zm-2.001-66.001c-48 0-84.667-18.501-110-55.501s-38-80.833-38-131.5c0-53.333 13.667-97.666 41-132.999s62.333-53 105-53c42 0 77 17.833 105 53.5s42 80.5 42 134.5c0 47.333-12.167 90-36.5 128s-60.5 57-108.5 57zm-95 141.999c-14 0-25.667 5.001-35 15.001s-14 22-14 36 4.833 26 14.5 36 21.834 15 36.501 15c13.333 0 24.666-4.833 33.999-14.5s14-21.834 14-36.501c0-14-4.667-26-14-36s-21.333-15-36-15zm185 .001c-14 0-25.667 5.001-35 15.001s-14 22-14 36 4.833 26 14.5 36 21.5 15 35.5 15 25.667-4.833 35-14.5 14-21.834 14-36.501c0-14-4.667-26-14-36s-21.333-15-36-15z"/><glyph glyph-name="divide" unicode="÷" horiz-adv-x="596" d="M297 387c-15.333 0-27.833 5.167-37.5 15.5S245 426 245 442c0 16.667 5 30.167 15 40.5s22.667 15.5 38 15.5c16 0 28.833-5.167 38.5-15.5S351 458.667 351 442c0-16-5-29.167-15-39.5S313 387 297 387zm259-150H40v60h516v-60zM297 36c-15.333 0-27.833 5.167-37.5 15.5S245 75 245 91c0 16.667 5 30.167 15 40.5s22.667 15.5 38 15.5c16 0 28.833-5.167 38.5-15.5S351 107.667 351 91c0-16-5-29.167-15-39.5S313 36 297 36z"/><glyph glyph-name="oslash" unicode="ø" horiz-adv-x="549" d="M277 494c46 0 86.667-11.333 122-34l42 60 39-27-43-63c49.333-47.333 74-109 74-185 0-82.667-23.667-146-71-190S337.667-11 275-11C227.667-11 186.667.333 152 23l-44-61L71-8l42 60c-50 48-75 110.333-75 187 0 78 22.667 140 68 186s102.333 69 171 69zM161 119l197.999 280c-22.667 19.333-51 29-85 29-49.333 0-86.666-18.833-111.999-56.5s-38-81.167-38-130.5c0-48 11.667-88.333 35-121zm227.999 242L191 83c22.667-18.667 49.667-28 81-28 45.333 0 82.166 17.5 110.499 52.5s42.5 79.833 42.5 134.5c0 45.333-11.333 85-34 119h-2z"/><glyph glyph-name="ugrave" unicode="ù" horiz-adv-x="551" d="M478 484l-.002-351c0-54.667 1.333-99 4-133h-78l-5 79h-2c-13.333-24-33.666-45-60.999-63s-60.333-27-99-27c-20.667 0-40.167 3.333-58.5 10s-36 17.5-53 32.5-30.5 37-40.5 66-15 63.5-15 103.5v283h88V217c0-103.333 36-155 108-155 27.333 0 51.333 8 72 24s35.334 35 44.001 57c5.333 12.667 8 27.667 8 45v296h88zM139.998 693h96l88-143h-62z"/><glyph glyph-name="uacute" unicode="ú" horiz-adv-x="551" d="M478 484l-.002-351c0-54.667 1.333-99 4-133h-78l-5 79h-2c-13.333-24-33.666-45-60.999-63s-60.333-27-99-27c-20.667 0-40.167 3.333-58.5 10s-36 17.5-53 32.5-30.5 37-40.5 66-15 63.5-15 103.5v283h88V217c0-103.333 36-155 108-155 27.333 0 51.333 8 72 24s35.334 35 44.001 57c5.333 12.667 8 27.667 8 45v296h88zM320.998 693h96l-122-143h-62z"/><glyph glyph-name="ucircumflex" unicode="û" horiz-adv-x="551" d="M478 484l-.002-351c0-54.667 1.333-99 4-133h-78l-5 79h-2c-13.333-24-33.666-45-60.999-63s-60.333-27-99-27c-20.667 0-40.167 3.333-58.5 10s-36 17.5-53 32.5-30.5 37-40.5 66-15 63.5-15 103.5v283h88V217c0-103.333 36-155 108-155 27.333 0 51.333 8 72 24s35.334 35 44.001 57c5.333 12.667 8 27.667 8 45v296h88zM243.998 693h61l96-143h-67l-58 94h-2l-58-94h-66z"/><glyph glyph-name="udieresis" unicode="ü" horiz-adv-x="551" d="M478 484l-.002-351c0-54.667 1.333-99 4-133h-78l-5 79h-2c-13.333-24-33.666-45-60.999-63s-60.333-27-99-27c-20.667 0-40.167 3.333-58.5 10s-36 17.5-53 32.5-30.5 37-40.5 66-15 63.5-15 103.5v283h88V217c0-103.333 36-155 108-155 27.333 0 51.333 8 72 24s35.334 35 44.001 57c5.333 12.667 8 27.667 8 45v296h88zm-293.002 86c-14 0-25.667 5.001-35 15.001s-14 22-14 36 4.833 26 14.5 36 21.834 15 36.501 15c13.333 0 24.666-4.833 33.999-14.5s14-21.834 14-36.501c0-14-4.667-26-14-36s-21.333-15-36-15zm185 .001c-14 0-25.667 5.001-35 15.001s-14 22-14 36 4.833 26 14.5 36 21.5 15 35.5 15 25.667-4.833 35-14.5 14-21.834 14-36.501c0-14-4.667-26-14-36s-21.333-15-36-15z"/><glyph glyph-name="yacute" unicode="ý" horiz-adv-x="471" d="M9 484h95.997l105-286c12-31.333 22.667-64.333 32-99h2c.667 2 4.834 15.833 12.501 41.5S270.332 186 275 200l96 284h93L332 139c-32.667-85.333-61.167-150.666-85.5-195.999s-51.166-81-80.499-107C129.333-194.666 93.333-213.333 58-220l-22 73c28 8.667 53.667 23 77 43 30 23.333 54.667 56 74 98 4.667 10.667 7 17.667 7 21 0 5.333-2.333 13-7 23zm275.997 209h97l-122-143h-62z"/><glyph glyph-name="thorn" unicode="þ" horiz-adv-x="569" d="M73 669h87.001V407h2c36 58 91 87 165 87 58 .667 106.667-21.833 146-67.5s59-105.167 59-178.5c0-83.333-21.833-147.333-65.5-192s-95.5-67-155.5-67C244.334-11 194.667 14.333 162 65h-2v-263H73v867zm87.001-389l.001-89c0-17.333 3-32 9-44 10-27.333 26.667-49 50-65s49.666-24 78.999-24c44 0 79.167 17 105.5 51s39.5 79.667 39.5 137c0 50-12.833 92.167-38.5 126.5s-60.5 51.5-104.5 51.5c-28.667 0-55-8.667-79-26s-41-40.333-51-69c-6.667-18.667-10-35-10-49z"/><glyph glyph-name="ydieresis" unicode="ÿ" horiz-adv-x="471" d="M9 484h95.997l105-286c12-31.333 22.667-64.333 32-99h2c.667 2 4.834 15.833 12.501 41.5S270.332 186 275 200l96 284h93L332 139c-32.667-85.333-61.167-150.666-85.5-195.999s-51.166-81-80.499-107C129.333-194.666 93.333-213.333 58-220l-22 73c28 8.667 53.667 23 77 43 30 23.333 54.667 56 74 98 4.667 10.667 7 17.667 7 21 0 5.333-2.333 13-7 23zm144.997 86c-14 0-25.667 5.001-35 15.001s-14 22-14 36 4.833 26 14.5 36 21.834 15 36.501 15c13.333 0 24.666-4.833 33.999-14.5s14-21.834 14-36.501c0-14-4.667-26-14-36s-21.333-15-36-15zm185 .001c-14 0-25.667 5.001-35 15.001s-14 22-14 36 4.833 26 14.5 36 21.5 15 35.5 15 25.667-4.833 35-14.5 14-21.834 14-36.501c0-14-4.667-26-14-36s-21.333-15-36-15z"/><glyph glyph-name="Amacron" unicode="Ā" horiz-adv-x="612" d="M424 212H185L115 0H25l230 674h104L589 0h-93zm-221 68h203.999l-67 194c-9.333 27.333-21 68.333-35 123h-2C287.666 537 276.333 496.333 269 475zm-18.001 508h240v-55h-240v55z"/><glyph glyph-name="amacron" unicode="ā" horiz-adv-x="482" d="M413 297l.002-180.998c0-46.667 2.333-85.334 7-116.001h-79l-7 61h-3C316.335 40.334 296.168 23.167 270.501 9.5S215.667-11 183-11c-46.667 0-83 13.667-109 41s-39 60-39 98c0 58.667 25.167 103.5 75.5 134.5s122.166 46.167 215.499 45.5v10c0 12-1.167 23.5-3.5 34.5s-7 22.833-14 35.5-18.333 22.667-34 30-35.167 11-58.5 11c-49.333 0-91.666-12-126.999-36l-20 59c44.667 28 98 42 160 42 67.333 0 114.833-18.667 142.5-56S413 353.667 413 297zm-84.998-133.998v83.997c-136.667 2.667-205-33.666-205-108.999 0-27.333 7.833-48.166 23.5-62.499s35.167-21.5 58.5-21.5c30 0 55.333 7.833 76 23.5s35 34.834 43 57.501c2.667 8.667 4 18 4 28zm-199 479.997h225v-57h-225v57z"/><glyph glyph-name="Abreve" unicode="Ă" horiz-adv-x="612" d="M424 212H185L115 0H25l230 674h104L589 0h-93zm-221 68h203.999l-67 194c-9.333 27.333-21 68.333-35 123h-2C287.666 537 276.333 496.333 269 475zm-22.001 537H233c7.333-32.667 31.333-49 72-49 42.667 0 67 16.333 73 49h51c-1.333-31.333-12.333-56.833-33-76.5S344.666 711 303.999 711s-71 9.667-91 29-30.667 45-32 77z"/><glyph glyph-name="abreve" unicode="ă" horiz-adv-x="482" d="M413 297l.002-180.998c0-46.667 2.333-85.334 7-116.001h-79l-7 61h-3C316.335 40.334 296.168 23.167 270.501 9.5S215.667-11 183-11c-46.667 0-83 13.667-109 41s-39 60-39 98c0 58.667 25.167 103.5 75.5 134.5s122.166 46.167 215.499 45.5v10c0 12-1.167 23.5-3.5 34.5s-7 22.833-14 35.5-18.333 22.667-34 30-35.167 11-58.5 11c-49.333 0-91.666-12-126.999-36l-20 59c44.667 28 98 42 160 42 67.333 0 114.833-18.667 142.5-56S413 353.667 413 297zm-84.998-133.998v83.997c-136.667 2.667-205-33.666-205-108.999 0-27.333 7.833-48.166 23.5-62.499s35.167-21.5 58.5-21.5c30 0 55.333 7.833 76 23.5s35 34.834 43 57.501c2.667 8.667 4 18 4 28zm-211 518.997l52.002.002c3.333-20.667 11.166-37.334 23.499-50.001s28.166-19 47.499-19c22.667 0 40 6.667 52 20s19 29.666 21 48.999h52c0-37.333-11.333-67.5-34-90.5s-52.667-34.5-90-34.5c-41.333 0-72.333 12.167-93 36.5s-31 53.833-31 88.5z"/><glyph glyph-name="Aogonek" unicode="Ą" horiz-adv-x="612" d="M359 674L589.999 0l-37-2c-35.333-35.333-53-66.333-53-93 0-16 4.833-28.667 14.5-38s21.834-14 36.501-14c16.667 0 31.667 3.333 45 10l14-45c-21.333-16-48-24-80-24-28.667 0-51.5 7.5-68.5 22.5S436-147 436-119c0 36 19.667 77 59 123l-71 208H185L116 0H25l230 674h104zM202.999 280h203.999l-67 194c-9.333 27.333-21 68.333-35 123h-2c-15.333-60-26.666-100.667-33.999-122z"/><glyph glyph-name="aogonek" unicode="ą" horiz-adv-x="482" d="M413 297l.003-180.997c0-48.667 2.667-87.334 8-116.001h-25c-26-34.667-39-66.667-39-96 0-33.333 16-50 48-50 16 0 31.333 3.333 46 10l14-46c-22.667-16-50.334-24-83.001-24-26 0-47.333 7.5-64 22.5s-25 35.833-25 62.5c0 35.333 16 76.666 48 123.999l-7 58h-3C316.335 40.334 296.168 23.167 270.5 9.5S215.667-11 183-11c-46.667 0-83 13.667-109 41s-39 60-39 98c0 58.667 25.167 103.5 75.5 134.5s122.166 46.167 215.499 45.5v10c0 12-1.167 23.5-3.5 34.5s-7 22.833-14 35.5-18.333 22.667-34 30-35.167 11-58.5 11c-49.333 0-91.666-12-127-36l-20 59c44.668 28 98 42 160 42 67.334 0 114.834-18.667 142.5-56S413 353.667 413 297zm-84.997-133.997V247c-136.667 2.667-205-33.666-205-108.999 0-27.333 7.833-48.166 23.5-62.499s35.167-21.5 58.5-21.5c30 0 55.333 7.833 76 23.5s35 34.834 43 57.501c2.667 8 4 17.333 4 28z"/><glyph glyph-name="Cacute" unicode="Ć" horiz-adv-x="580" d="M529 91l16.997-70C504.664-.333 445.331-11 367.998-11c-98 0-177.833 30-239.5 90s-92.5 144-92.5 252c0 106 32.5 191.5 97.5 256.5s149.833 97.5 254.5 97.5c68.667 0 122-10 160-30l-22-71c-37.333 18.667-82.333 28-135 28-80 0-143.833-24.5-191.5-73.5s-71.5-117.167-71.5-204.5c0-83.333 22.833-149.333 68.5-198S305.332 63 386 63c56.666 0 104.333 9.333 143 28zM399.997 829h106l-128-117h-71z"/><glyph glyph-name="cacute" unicode="ć" horiz-adv-x="448" d="M403 83l14.997-65.999c-39.333-18.667-85.666-28-138.999-28-72.667 0-131 22.667-175 68s-66 105-66 179c0 75.333 23.833 137.166 71.5 185.499s110.5 72.5 188.5 72.5c49.333 0 90-8.667 122-26l-20-67c-29.333 15.333-63.333 23-102 23-53.333 0-95.166-17.5-125.499-52.5S127 293 127 241c0-55.333 15.833-99.333 47.5-132S246.333 60 295 60c37.333 0 73.333 7.667 108 23zM301.997 693.001h96l-122-143h-62z"/><glyph glyph-name="Ccircumflex" unicode="Ĉ" horiz-adv-x="580" d="M529 91l16.997-70C504.664-.333 445.331-11 367.998-11c-98 0-177.833 30-239.5 90s-92.5 144-92.5 252c0 106 32.5 191.5 97.5 256.5s149.833 97.5 254.5 97.5c68.667 0 122-10 160-30l-22-71c-37.333 18.667-82.333 28-135 28-80 0-143.833-24.5-191.5-73.5s-71.5-117.167-71.5-204.5c0-83.333 22.833-149.333 68.5-198S305.332 63 386 63c56.666 0 104.333 9.333 143 28zM313.997 828h67l105-114h-74l-63 69h-2l-64-69h-71z"/><glyph glyph-name="ccircumflex" unicode="ĉ" horiz-adv-x="448" d="M403 83l14.997-65.999c-39.333-18.667-85.666-28-138.999-28-72.667 0-131 22.667-175 68s-66 105-66 179c0 75.333 23.833 137.166 71.5 185.499s110.5 72.5 188.5 72.5c49.333 0 90-8.667 122-26l-20-67c-29.333 15.333-63.333 23-102 23-53.333 0-95.166-17.5-125.499-52.5S127 293 127 241c0-55.333 15.833-99.333 47.5-132S246.333 60 295 60c37.333 0 73.333 7.667 108 23zM228.997 693.001h61l96-143h-67l-59 94h-2l-57-94h-66z"/><glyph glyph-name="Cdotaccent" unicode="Ċ" horiz-adv-x="580" d="M529 91l16.997-70C504.664-.333 445.331-11 367.998-11c-98 0-177.833 30-239.5 90s-92.5 144-92.5 252c0 106 32.5 191.5 97.5 256.5s149.833 97.5 254.5 97.5c68.667 0 122-10 160-30l-22-71c-37.333 18.667-82.333 28-135 28-80 0-143.833-24.5-191.5-73.5s-71.5-117.167-71.5-204.5c0-83.333 22.833-149.333 68.5-198S305.332 63 386 63c56.666 0 104.333 9.333 143 28zM347.997 719c-14 0-25.666 5-34.999 15s-14 22-14 36c0 13.333 4.833 25 14.5 35s21.5 15 35.5 15c13.333 0 24.666-5 33.999-15s14-21.667 14-35c0-14-4.667-26-14-36s-21-15-35-15z"/><glyph glyph-name="cdotaccent" unicode="ċ" horiz-adv-x="448" d="M403 83l14.997-65.999c-39.333-18.667-85.666-28-138.999-28-72.667 0-131 22.667-175 68s-66 105-66 179c0 75.333 23.833 137.166 71.5 185.499s110.5 72.5 188.5 72.5c49.333 0 90-8.667 122-26l-20-67c-29.333 15.333-63.333 23-102 23-53.333 0-95.166-17.5-125.499-52.5S127 293 127 241c0-55.333 15.833-99.333 47.5-132S246.333 60 295 60c37.333 0 73.333 7.667 108 23zM263.997 570.001c-14 0-25.833 5-35.5 15s-14.5 22-14.5 36c0 14.667 5 27 15 37s22 15 36 15 25.667-5 35-15 14-22.333 14-37c0-14-4.667-26-14-36s-21.333-15-36-15z"/><glyph glyph-name="Ccaron" unicode="Č" horiz-adv-x="580" d="M529 91l16.997-70C504.664-.333 445.331-11 367.998-11c-98 0-177.833 30-239.5 90s-92.5 144-92.5 252c0 106 32.5 191.5 97.5 256.5s149.833 97.5 254.5 97.5c68.667 0 122-10 160-30l-22-71c-37.333 18.667-82.333 28-135 28-80 0-143.833-24.5-191.5-73.5s-71.5-117.167-71.5-204.5c0-83.333 22.833-149.333 68.5-198S305.332 63 386 63c56.666 0 104.333 9.333 143 28zM386.997 713h-67l-105 114h74l64-69h2l63 69h71z"/><glyph glyph-name="ccaron" unicode="č" horiz-adv-x="448" d="M403 83l14.997-65.999c-39.333-18.667-85.666-28-138.999-28-72.667 0-131 22.667-175 68s-66 105-66 179c0 75.333 23.833 137.166 71.5 185.499s110.5 72.5 188.5 72.5c49.333 0 90-8.667 122-26l-20-67c-29.333 15.333-63.333 23-102 23-53.333 0-95.166-17.5-125.499-52.5S127 293 127 241c0-55.333 15.833-99.333 47.5-132S246.333 60 295 60c37.333 0 73.333 7.667 108 23zM293.997 550.001h-63l-96 143h67l59-95h2l59 95h66z"/><glyph glyph-name="Dcaron" unicode="Ď" horiz-adv-x="666" d="M76 2v662c58.667 10 120.334 15 185.001 15 120.667 0 211.667-28 273-84 64-58 96-138.667 96-242 0-110-32.333-197.333-97-262-66-64.667-165.667-97-299-97C175.334-6 122.667-3.333 76 2zm87 599V68c19.333-2.667 48.666-4 87.999-4 92.667 0 163.667 24.833 213 74.5s74 120.167 74 211.5c.667 81.333-22.166 145-68.499 191S355 610 265 610c-40.667 0-74.667-3-102-9zm179 111h-67L170 826h74l64-69h2l63 69h71z"/><glyph glyph-name="dcaron" unicode="ď" horiz-adv-x="574" d="M403 710l87.001-.001v-585c0-39.333 1.333-81 4-125h-78l-4 84h-3c-13.333-28-34.333-50.833-63-68.5s-62-26.5-100-26.5c-59.333 0-108.833 22.833-148.5 68.5S38.001 162.333 38.001 235c-.667 78 20.166 140.667 62.499 188s93.833 71 154.5 71c35.333 0 65.5-7 90.5-21s43.5-31.333 55.5-52h2v289zm.001-507.001v83.999c0 14.667-1.333 27-4 37-6.667 28.667-21.5 52.667-44.5 72s-50.5 29-82.5 29c-44.667 0-80-17.5-106-52.5s-39-79.5-39-133.5c0-51.333 12.5-94 37.5-128s60.167-51 105.5-51c30 0 57 9.5 81 28.5s40 44.5 48 76.5c2.667 10.667 4 23.334 4 38.001zm169 317.999l-36.999 30c24 27.333 36 57 36 89 0 25.333-10.333 47-31 65l63 14c9.333-6 17.666-15.667 24.999-29s11-28 11-44c0-47.333-22.333-89-67-125z"/><glyph glyph-name="Dcroat" unicode="Đ" horiz-adv-x="671" d="M-1 307l-.001 70.001h82v290c58.667 10 120.334 15 185.001 15 122 0 212.667-28 272-84 64-56.667 96-138.334 96-245.001 0-109.333-32.333-197-97-263C471 25.333 371.667-7 239-7 185-7 132.333-4.667 81 0v307H-1zm348.999 70.001V307h-180V67c19.333-2.667 48.333-4 87-4 93.333 0 164.5 24.833 213.5 74.5s73.5 121.167 73.5 214.5c.667 82.667-22 146.834-68 192.501s-114 68.5-204 68.5c-40.667 0-74.667-3-102-9v-227h180z"/><glyph glyph-name="dcroat" unicode="đ" horiz-adv-x="564" d="M568 552l-77.999-.001v-427c0-39.333 1.333-81 4-125h-78l-4 84h-3c-13.333-28-34.333-50.833-63-68.5s-62-26.5-100-26.5c-59.333 0-108.833 22.833-148.5 68.5S38.001 162.333 38.001 235c-.667 78 20.166 140.667 62.499 188s93.833 71 154.5 71c35.333 0 65.5-7 90.5-21s43.5-31.333 55.5-52h2v131H206v55h197v103h87V607h78v-55zM403.001 202.999v83.999c0 14.667-1.333 27-4 37-6.667 28.667-21.5 52.667-44.5 72s-50.5 29-82.5 29c-44.667 0-80-17.5-106-52.5s-39-79.5-39-133.5c0-51.333 12.5-94 37.5-128s60.167-51 105.5-51c30 0 57 9.5 81 28.5s40 44.5 48 76.5c2.667 10.667 4 23.334 4 38.001z"/><glyph glyph-name="Emacron" unicode="Ē" horiz-adv-x="492" d="M424 388v-72H163V73h292V0H75v674h365v-73H163V388h261zM139 788h240v-55H139v55z"/><glyph glyph-name="emacron" unicode="ē" horiz-adv-x="501" d="M462 226l-340 .001c.667-56.667 16.5-98.834 47.5-126.501S240 58 288 58c51.333 0 96 8.333 134 25l16-63C392-.667 338-11 276-11c-73.333 0-131.333 22.333-174 67S38 160 38 234c0 74.667 20.667 136.667 62 186s96.333 74 165 74c37.333 0 69.833-7.5 97.5-22.5S411 437 425 413s24.167-48.167 30.5-72.5 9.5-48.833 9.5-73.5c0-17.333-1-31-3-41zm-339 63.001h257.001c.667 35.333-8.5 67.833-27.5 97.5s-50.5 44.5-94.5 44.5c-40.667 0-72.334-14.5-95.001-43.5s-36-61.833-40-98.5zm18.001 354h225v-57h-225v57z"/><glyph glyph-name="Ebreve" unicode="Ĕ" horiz-adv-x="492" d="M424 388v-72H163V73h292V0H75v674h365v-73H163V388h261zM130 825h52.001c7.333-32.667 31.333-49 72-49 42.667 0 67 16.333 73 49h51c-1.333-31.333-12.333-56.833-33-76.5S293.667 719 253 719s-71 9.667-91 29-30.667 45-32 77z"/><glyph glyph-name="ebreve" unicode="ĕ" horiz-adv-x="501" d="M462 226l-340 .001c.667-56.667 16.5-98.834 47.5-126.501S240 58 288 58c51.333 0 96 8.333 134 25l16-63C392-.667 338-11 276-11c-73.333 0-131.333 22.333-174 67S38 160 38 234c0 74.667 20.667 136.667 62 186s96.333 74 165 74c37.333 0 69.833-7.5 97.5-22.5S411 437 425 413s24.167-48.167 30.5-72.5 9.5-48.833 9.5-73.5c0-17.333-1-31-3-41zm-339 63.001h257.001c.667 35.333-8.5 67.833-27.5 97.5s-50.5 44.5-94.5 44.5c-40.667 0-72.334-14.5-95.001-43.5s-36-61.833-40-98.5zm6.001 393l52.002.002c3.333-20.667 11.166-37.334 23.499-50.001s28.166-19 47.499-19c22.667 0 40 6.667 52 20s19 29.666 21 48.999h52c0-37.333-11.333-67.5-34-90.5s-52.667-34.5-90-34.5c-41.333 0-72.333 12.167-93 36.5s-31 53.833-31 88.5z"/><glyph glyph-name="Edotaccent" unicode="Ė" horiz-adv-x="492" d="M424 388v-72H163V73h292V0H75v674h365v-73H163V388h261zM250 721c-14 0-25.666 5-34.999 15s-14 22-14 36c0 13.333 4.833 25 14.5 35s21.5 15 35.5 15c13.333 0 24.666-5 33.999-15s14-21.667 14-35c0-14-4.667-26-14-36s-21-15-35-15z"/><glyph glyph-name="edotaccent" unicode="ė" horiz-adv-x="501" d="M462 226l-340 .001c.667-56.667 16.5-98.834 47.5-126.501S240 58 288 58c51.333 0 96 8.333 134 25l16-63C392-.667 338-11 276-11c-73.333 0-131.333 22.333-174 67S38 160 38 234c0 74.667 20.667 136.667 62 186s96.333 74 165 74c37.333 0 69.833-7.5 97.5-22.5S411 437 425 413s24.167-48.167 30.5-72.5 9.5-48.833 9.5-73.5c0-17.333-1-31-3-41zm-339 63.001h257.001c.667 35.333-8.5 67.833-27.5 97.5s-50.5 44.5-94.5 44.5c-40.667 0-72.334-14.5-95.001-43.5s-36-61.833-40-98.5zm131.001 281c-14 0-25.833 5-35.5 15s-14.5 22-14.5 36c0 14.667 5 27 15 37s22 15 36 15 25.667-5 35-15 14-22.333 14-37c0-14-4.667-26-14-36s-21.333-15-36-15z"/><glyph glyph-name="Eogonek" unicode="Ę" horiz-adv-x="492" d="M446-138l14.002-47.001c-22.667-14-49.667-21-81-21-28.667 0-51.167 7-67.5 21s-24.5 34-24.5 60c0 24.667 8.167 48.167 24.5 70.5s35.166 40.5 56.499 54.5h-293v674h365v-73h-277v-213h261v-72h-261v-243h292v-73c-1.333 0-3.833-.167-7.5-.5s-6.5-.5-8.5-.5c-22.667-14-42-30.667-58-50s-24-37.666-24-54.999c0-12.667 4.167-22.5 12.5-29.5S388.667-146 402-146c16 0 30.667 2.667 44 8z"/><glyph glyph-name="eogonek" unicode="ę" horiz-adv-x="501" d="M385-136l13.999-45.003c-22-16-49-24-81-24-27.333 0-49 6.833-65 20.5s-24 32.834-24 57.501c0 22.667 7.333 44.5 22 65.5s31.334 37.833 50.001 50.5v1c-2.667 0-7-.167-13-.5s-10.667-.5-14-.5C201.333-10.335 143.833 12.332 101.5 57S38 160.666 38 234c0 74.667 20.667 136.667 62 186s96.333 74 165 74c37.333 0 69.833-7.5 97.5-22.5S411 437 425 413s24.167-48.167 30.5-72.5 9.5-48.833 9.5-73.5c0-18-1-31.667-3-41H122c.667-56.667 16.5-98.834 47.5-126.5S240 58 288 58c50 0 94.667 8.332 134 25l15-63c-.667-.668-15.667-6.335-45-17.002-22-9.333-43.333-24.666-64-45.999S297-84.668 297-104c0-13.333 4-23.666 12-30.999s17.667-11 29-11c18 0 33.667 3.333 47 10zM123.999 288.997l256.002.001c0 15.333-1.667 30.666-5 45.999s-9.333 30.5-18 45.5-21.334 27.167-38.001 36.5-36.667 14-60 14c-40.667 0-72.334-14.5-95.001-43.5s-36-61.833-40-98.5z"/><glyph glyph-name="Ecaron" unicode="Ě" horiz-adv-x="492" d="M424 388v-72H163V73h292V0H75v674h365v-73H163V388h261zM291 710h-67L119 824h74l64-69h2l63 69h71z"/><glyph glyph-name="ecaron" unicode="ě" horiz-adv-x="501" d="M462 226l-340 .001c.667-56.667 16.5-98.834 47.5-126.501S240 58 288 58c51.333 0 96 8.333 134 25l16-63C392-.667 338-11 276-11c-73.333 0-131.333 22.333-174 67S38 160 38 234c0 74.667 20.667 136.667 62 186s96.333 74 165 74c37.333 0 69.833-7.5 97.5-22.5S411 437 425 413s24.167-48.167 30.5-72.5 9.5-48.833 9.5-73.5c0-17.333-1-31-3-41zm-339 63.001h257.001c.667 35.333-8.5 67.833-27.5 97.5s-50.5 44.5-94.5 44.5c-40.667 0-72.334-14.5-95.001-43.5s-36-61.833-40-98.5zm162.001 261h-63l-96 143h67l59-95h2l59 95h66z"/><glyph glyph-name="Gcircumflex" unicode="Ĝ" horiz-adv-x="646" d="M590 354l.001-324.001c-64-24.667-133.333-37-208-37-106 0-190 29.667-252 89-62.667 60.667-94 144.334-94 251.001 0 102 33 185.5 99 250.5s154.667 97.5 266 97.5c70 0 126.333-10.333 169-31l-22-71c-40.667 19.333-90.334 29-149.001 29-82.667 0-148.5-24.167-197.5-72.5S128 421 128 337c0-84.667 23.5-151.167 70.5-199.5S308.667 65 388 65c53.333 0 92 6 116 18v201H368v70h222zM326.001 826.999h67l105-114h-74l-63 69h-2l-64-69h-71z"/><glyph glyph-name="gcircumflex" unicode="ĝ" horiz-adv-x="559" d="M487 352l.002-281c0-104.667-23-178.667-69-222-43.333-38.667-102.333-58-177-58-67.333 0-121 13.333-161 40l22 68c39.333-26 86.666-39 141.999-39 48 0 86 13.667 114 41s42 70.333 42 129v53h-2c-14-24-34.167-43.5-60.5-58.5S280.001 2 244.001 2c-59.333 0-108.5 22.5-147.5 67.5s-58.5 101.167-58.5 168.5c0 78 21.667 140.167 65 186.5S197.667 494 257 494c70 0 120.333-27.667 151-83h2l3 73h78c-2.667-30-4-74-4-132zm-87.998-146l.001 86.999c0 16.667-1.667 29.667-5 39-8.667 27.333-23.5 49.833-44.5 67.5s-47.167 26.5-78.5 26.5c-42.667 0-77.334-16.667-104.001-50s-40-77.666-40-132.999c0-50 12.5-91.5 37.5-124.5S224.669 69 270.002 69c28 0 53.167 8 75.5 24s37.833 38 46.5 66c4.667 14 7 29.667 7 47zM248.003 695.999h61l96-143h-67l-58 94h-2l-58-94h-66z"/><glyph glyph-name="Gbreve" unicode="Ğ" horiz-adv-x="646" d="M590 354l.001-324.001c-64-24.667-133.333-37-208-37-106 0-190 29.667-252 89-62.667 60.667-94 144.334-94 251.001 0 102 33 185.5 99 250.5s154.667 97.5 266 97.5c70 0 126.333-10.333 169-31l-22-71c-40.667 19.333-90.334 29-149.001 29-82.667 0-148.5-24.167-197.5-72.5S128 421 128 337c0-84.667 23.5-151.167 70.5-199.5S308.667 65 388 65c53.333 0 92 6 116 18v201H368v70h222zM231.001 826.999h52.001c7.333-32.667 31.333-49 72-49 42 0 66 16.333 72 49h51c-1.333-31.333-12.333-56.833-33-76.5s-51.334-29.5-92.001-29.5c-40 0-70 9.667-90 29s-30.667 45-32 77z"/><glyph glyph-name="gbreve" unicode="ğ" horiz-adv-x="559" d="M487 352l.002-281c0-104.667-23-178.667-69-222-43.333-38.667-102.333-58-177-58-67.333 0-121 13.333-161 40l22 68c39.333-26 86.666-39 141.999-39 48 0 86 13.667 114 41s42 70.333 42 129v53h-2c-14-24-34.167-43.5-60.5-58.5S280.001 2 244.001 2c-59.333 0-108.5 22.5-147.5 67.5s-58.5 101.167-58.5 168.5c0 78 21.667 140.167 65 186.5S197.667 494 257 494c70 0 120.333-27.667 151-83h2l3 73h78c-2.667-30-4-74-4-132zm-87.998-146l.001 86.999c0 16.667-1.667 29.667-5 39-8.667 27.333-23.5 49.833-44.5 67.5s-47.167 26.5-78.5 26.5c-42.667 0-77.334-16.667-104.001-50s-40-77.666-40-132.999c0-50 12.5-91.5 37.5-124.5S224.669 69 270.002 69c28 0 53.167 8 75.5 24s37.833 38 46.5 66c4.667 14 7 29.667 7 47zM148.003 681.999l52.002.002c3.333-20.667 11.166-37.334 23.499-50.001s28.166-19 47.499-19c22.667 0 40 6.667 52 20s19 29.666 21 48.999h52c0-37.333-11.333-67.5-34-90.5s-52.667-34.5-90-34.5c-41.333 0-72.333 12.167-93 36.5s-31 53.833-31 88.5z"/><glyph glyph-name="Gdotaccent" unicode="Ġ" horiz-adv-x="646" d="M590 354l.001-324.001c-64-24.667-133.333-37-208-37-106 0-190 29.667-252 89-62.667 60.667-94 144.334-94 251.001 0 102 33 185.5 99 250.5s154.667 97.5 266 97.5c70 0 126.333-10.333 169-31l-22-71c-40.667 19.333-90.334 29-149.001 29-82.667 0-148.5-24.167-197.5-72.5S128 421 128 337c0-84.667 23.5-151.167 70.5-199.5S308.667 65 388 65c53.333 0 92 6 116 18v201H368v70h222zM361.001 718.999c-14 0-25.666 5-34.999 15s-14 22-14 36c0 13.333 4.833 25 14.5 35s21.5 15 35.5 15c13.333 0 24.666-5 33.999-15s14-21.667 14-35c0-14-4.667-26-14-36s-21-15-35-15z"/><glyph glyph-name="gdotaccent" unicode="ġ" horiz-adv-x="559" d="M487 352l.002-281c0-104.667-23-178.667-69-222-43.333-38.667-102.333-58-177-58-67.333 0-121 13.333-161 40l22 68c39.333-26 86.666-39 141.999-39 48 0 86 13.667 114 41s42 70.333 42 129v53h-2c-14-24-34.167-43.5-60.5-58.5S280.001 2 244.001 2c-59.333 0-108.5 22.5-147.5 67.5s-58.5 101.167-58.5 168.5c0 78 21.667 140.167 65 186.5S197.667 494 257 494c70 0 120.333-27.667 151-83h2l3 73h78c-2.667-30-4-74-4-132zm-87.998-146l.001 86.999c0 16.667-1.667 29.667-5 39-8.667 27.333-23.5 49.833-44.5 67.5s-47.167 26.5-78.5 26.5c-42.667 0-77.334-16.667-104.001-50s-40-77.666-40-132.999c0-50 12.5-91.5 37.5-124.5S224.669 69 270.002 69c28 0 53.167 8 75.5 24s37.833 38 46.5 66c4.667 14 7 29.667 7 47zM278.003 572.999c-14 0-25.833 5.167-35.5 15.5s-14.5 22.5-14.5 36.5 5 26 15 36 22 15 36 15 25.667-5 35-15 14-22 14-36c0-14.667-4.667-27-14-37s-21.333-15-36-15z"/><glyph glyph-name="Gcommaaccent" unicode="Ģ" horiz-adv-x="646" d="M590 354l.001-324.001c-64-24.667-133.333-37-208-37-106 0-190 29.667-252 89-62.667 60.667-94 144.334-94 251.001 0 102 33 185.5 99 250.5s154.667 97.5 266 97.5c70 0 126.333-10.333 169-31l-22-71c-40.667 19.333-90.334 29-149.001 29-82.667 0-148.5-24.167-197.5-72.5S128 421 128 337c0-84.667 23.5-151.167 70.5-199.5S308.667 65 388 65c53.333 0 92 6 116 18v201H368v70h222zM298.001-222.001l-17.001 41c50 8 75 29.667 75 65 0 22-11.333 42.333-34 61l65 14c26.667-17.333 40-42 40-74 0-34-12.667-59.833-38-77.5s-55.666-27.5-90.999-29.5z"/><glyph glyph-name="gcommaaccent" unicode="ģ" horiz-adv-x="559" d="M487 352l.002-281c0-104.667-23-178.667-69-222-43.333-38.667-102.333-58-177-58-67.333 0-121 13.333-161 40l22 68c39.333-26 86.666-39 141.999-39 48 0 86 13.667 114 41s42 70.333 42 129v53h-2c-14-24-34.167-43.5-60.5-58.5S280.001 2 244.001 2c-59.333 0-108.5 22.5-147.5 67.5s-58.5 101.167-58.5 168.5c0 78 21.667 140.167 65 186.5S197.667 494 257 494c70 0 120.333-27.667 151-83h2l3 73h78c-2.667-30-4-74-4-132zm-87.998-146l.001 86.999c0 16.667-1.667 29.667-5 39-8.667 27.333-23.5 49.833-44.5 67.5s-47.167 26.5-78.5 26.5c-42.667 0-77.334-16.667-104.001-50s-40-77.666-40-132.999c0-50 12.5-91.5 37.5-124.5S224.669 69 270.002 69c28 0 53.167 8 75.5 24s37.833 38 46.5 66c4.667 14 7 29.667 7 47zm-59.999 502.999l16.001-37.001c-52-7.333-78-29-78-65 0-22 11.667-41.667 35-59l-64-13c-10.667 6.667-19.834 16.334-27.501 29.001s-11.5 26.667-11.5 42c0 32.667 12.667 57.5 38 74.5s56 26.5 92 28.5z"/><glyph glyph-name="Hcircumflex" unicode="Ĥ" horiz-adv-x="652" d="M75 674h88V392h326v282h88V0h-88v316H163V0H75v674zm217 150h67l105-114h-74l-63 69h-2l-64-69h-71z"/><glyph glyph-name="hcircumflex" unicode="ĥ" horiz-adv-x="555" d="M73 0l-.003 710.001h88v-303h2c15.333 27.333 36.333 48.333 63 63 28 16 58 24 90 24 14 0 28.167-1.833 42.5-5.5s29.333-10.167 45-19.5 29.334-21.5 41.001-36.5 21.334-34.833 29.001-59.5 11.5-53 11.5-85v-288h-88v278c0 42.667-9 77.167-27 103.5s-46.333 39.5-85 39.5c-27.333 0-51.666-8.333-72.999-25S175.667 358.667 167 334c-4-10.667-6-24.667-6-42V0H73zm12.997 843.001h67l105-114h-74l-63 69h-2l-64-69h-71z"/><glyph glyph-name="Hbar" unicode="Ħ" horiz-adv-x="657" d="M636 479h-57V0h-88v301H166V0H78v479H21v58h57v137h88V537h325v137h88V537h57v-58zM491 377v102H166V377h325z"/><glyph glyph-name="hbar" unicode="ħ" horiz-adv-x="555" d="M485 0l-88.003.001v278c0 42.667-9 77.167-27 103.5s-46.333 39.5-85 39.5c-27.333 0-51.666-8.333-72.999-25s-36.333-37.334-45-62.001c-4-10.667-6-24.667-6-42V0h-88v552h-77v55h77v103h88V607h194v-55h-194V407h2c15.333 27.333 36.333 48.333 63 63 28 16 58 24 90 24 14 0 28.167-1.833 42.5-5.5s29.333-10.167 45-19.5 29.334-21.5 41.001-36.5 21.334-34.833 29.001-59.5 11.5-53 11.5-85V0z"/><glyph glyph-name="Itilde" unicode="Ĩ" horiz-adv-x="239" d="M75 674h88V0H75v674zm-32 41H-3.998c-.667 30.667 5.166 55.334 17.499 74.001s29.166 28 50.499 28c14 0 33.667-6.667 59-20 21.333-12 37.333-18 48-18 8 0 14.167 2.667 18.5 8s7.166 15.666 8.499 30.999h46c1.333-64.667-21-97-67-97-15.333 0-35.666 6.333-60.999 19-24 12.667-39.667 19-47 19-14 0-22.667-14.667-26-44z"/><glyph glyph-name="itilde" unicode="ĩ" horiz-adv-x="234" d="M161 0H73v484h88V0zM42 567H-5.999c-.667 32 5 57.333 17 76s29 28 51 28c13.333 0 34-7.333 62-22 20-11.333 34.333-17 43-17 16 0 25 14 27 42h47c1.333-67.333-21.334-101-68.001-101-15.333 0-36 7.333-62 22-20.667 11.333-35 17-43 17-15.333 0-24-15-26-45z"/><glyph glyph-name="Imacron" unicode="Ī" horiz-adv-x="239" d="M75 674h88V0H75v674zM0 788h240v-55H0v55z"/><glyph glyph-name="imacron" unicode="ī" horiz-adv-x="234" d="M161 0H73v484h88V0zM5 643h225v-57H5v57z"/><glyph glyph-name="Ibreve" unicode="Ĭ" horiz-adv-x="239" d="M75 674h88V0H75v674zM-4 823h52.001c7.333-32.667 31.333-49 72-49 42 0 66 16.333 72 49h51c-1.333-31.333-12.333-56.833-33-76.5S158.667 717 118 717c-40 0-70 9.667-90 29s-30.667 45-32 77z"/><glyph glyph-name="ibreve" unicode="ĭ" horiz-adv-x="234" d="M161 0H73v484h88V0zM-4 682l52.002.002c3.333-20.667 11.166-37.334 23.499-50.001s28.166-19 47.499-19c22.667 0 40 6.667 52 20s19 29.666 21 48.999h52c0-37.333-11.333-67.5-34-90.5S157.333 557 120 557c-41.333 0-72.333 12.167-93 36.5S-4 647.333-4 682z"/><glyph glyph-name="Iogonek" unicode="Į" horiz-adv-x="239" d="M163 674l.001-674h-30c-27.333-38-41-70.667-41-98 0-16.667 4.667-29.5 14-38.5S127.667-150 143-150c16.667 0 31.667 3 45 9l14-46c-21.333-15.333-48.333-23-81-23-28 0-50.5 7.5-67.5 22.5S28-151 28-123C28-91 43.667-50 75 0v674h88z"/><glyph glyph-name="iogonek" unicode="į" horiz-adv-x="234" d="M115 571c-16 0-29.001 5.333-39.001 16s-15 23.667-15 39c0 16 5.333 29.333 16 40s24 16 40 16 29.167-5.333 39.5-16 15.5-24 15.5-40c0-15.333-5.167-28.333-15.5-39S132.333 571 115 571zm45.999-87L161 0h-31c-27.333-38-41-70.667-41-98 0-16.667 4.667-29.5 14-38.5s21.666-13.5 36.999-13.5c16.667 0 31.667 3 45 9l14-46c-21.333-15.333-48.333-23-81-23-28 0-50.5 7.5-67.5 22.5s-25.5 36.5-25.5 64.5c0 34 16 75 48 123v484h88z"/><glyph glyph-name="Idotaccent" unicode="İ" horiz-adv-x="239" d="M75 674h88V0H75v674zm45 47c-14 0-25.666 5-34.999 15s-14 22-14 36c0 13.333 4.833 25 14.5 35s21.5 15 35.5 15c13.333 0 24.666-5 33.999-15s14-21.667 14-35c0-14-4.667-26-14-36s-21-15-35-15z"/><glyph glyph-name="dotlessi" unicode="ı" horiz-adv-x="234" d="M161 0H73v484h88V0z"/><glyph glyph-name="IJ" unicode="Ĳ" horiz-adv-x="609" d="M75 674h88V0H75v674zm378-443v443.001h88v-451c0-156-68-234-204-234-36.667 0-68 5.333-94 16l13 71c22-8.667 46.667-13 74-13 42 0 73 12.167 93 36.5S453 167.667 453 231z"/><glyph glyph-name="ij" unicode="ĳ" horiz-adv-x="477" d="M161 0H73v484h88V0zm-44 675c16 0 29-5.167 39-15.5s15-23.5 15-39.5c0-15.333-5-28.166-15-38.499s-23.667-15.5-41-15.5c-16 0-28.833 5.167-38.5 15.5S62 604.667 62 620s5.167 28.333 15.5 39 23.5 16 39.5 16zm80-886l-9 69c44.667 3.333 76.667 15.666 96 36.999 12.667 14.667 21.5 34.667 26.5 60s7.5 66 7.5 122v407h88v-441c0-93.333-19.333-159.666-58-198.999-18-18-41-31.667-69-41s-55.333-14-82-14zm165 886c16 0 29-5.335 39-16.002s15-23.667 15-39-5-28.166-15-38.499-23.667-15.5-41-15.5c-15.333 0-28 5.333-38 16S307 605.333 307 620c0 15.333 5.167 28.333 15.5 39s23.5 16 39.5 16z"/><glyph glyph-name="Jcircumflex" unicode="Ĵ" horiz-adv-x="370" d="M213 230l.001 444h88V223c0-156-68-234-204-234-37.333 0-68.333 5.333-93 16l12 71c22-8.667 46.667-13 74-13 41.333 0 72.166 12.167 92.499 36.5S213 167.333 213 230zm6.001 594h67l105-114h-74l-63 69h-2l-64-69h-71z"/><glyph glyph-name="jcircumflex" unicode="ĵ" horiz-adv-x="243" d="M-36-211l-10 68.999c44.667 3.333 76.667 16 96 38 12.667 14 21.5 33.667 26.5 59s7.5 66 7.5 122v407h88v-441c0-93.333-19.333-159.666-58-198.999-18-18-41-31.667-69-41s-55-14-81-14zM90 685.999h61l96-143h-67l-58 94h-2l-58-94H-4z"/><glyph glyph-name="Kcommaaccent" unicode="Ķ" horiz-adv-x="542" d="M76 0v674h87V349h3c15.333 22 33 46 53 72l206 253h108L289 388 552 0H449L228 331l-65-74V0H76zm139-220l-17.001 41c50 8 75 29.667 75 65 0 22-11.333 42.333-34 61l65 14c26.667-17.333 40-42 40-74 0-34-12.667-59.833-38-77.5S250.333-218 215-220z"/><glyph glyph-name="kcommaaccent" unicode="ķ" horiz-adv-x="469" d="M160 710V262h2c13.333 18.667 27.333 37 42 55l143 167h105L266 285 479 0H371L205 232l-45-50V0H73v710h87zm17-932l-17.001 41.001c50 8 75 29.667 75 65 0 23.333-11.333 43.666-34 60.999l65 14c26.667-17.333 40-42 40-74 0-34-12.667-59.833-38-77.5S212.333-220 177-222z"/><glyph glyph-name="kgreenlandic" unicode="ĸ" horiz-adv-x="469" d="M160 484V262h2c13.333 18.667 27.333 37 42 55l143 167h105L266 285 479 0H371L205 232l-45-50V0H73v484h87z"/><glyph glyph-name="Lacute" unicode="Ĺ" horiz-adv-x="472" d="M75 0v674h88V73h288V0H75zm104 827h106L157 710H86z"/><glyph glyph-name="lacute" unicode="ĺ" horiz-adv-x="236" d="M73 0v710h88V0H73zm81 856h106L132 739H61z"/><glyph glyph-name="Lcommaaccent" unicode="Ļ" horiz-adv-x="472" d="M75 0v674h88V73h288V0H75zm112-222l-17.001 41c50 8 75 29.667 75 65 0 22-11.333 42.333-34 61l65 14c26.667-17.333 40-42 40-74 0-34-12.667-59.833-38-77.5S222.333-220 187-222z"/><glyph glyph-name="lcommaaccent" unicode="ļ" horiz-adv-x="236" d="M73 0v710h88V0H73zM52-222l-17.001 41.001c50 8 75 29.667 75 65 0 23.333-11.333 43.666-34 60.999l65 14c26.667-17.333 40-42 40-74 0-34-12.667-59.833-38-77.5S87.333-220 52-222z"/><glyph glyph-name="Lcaron" unicode="Ľ" horiz-adv-x="472" d="M75 0v674h88V73h288V0H75zm185 504l-17.001 41c50 8 75 29.667 75 65 0 22-11.333 42.333-34 61l65 14c26.667-17.333 40-42 40-74 0-34-12.667-59.833-38-77.5S295.333 506 260 504z"/><glyph glyph-name="lcaron" unicode="ľ" horiz-adv-x="244" d="M73 0v710h88V0H73zm166 522l-38.002 28.997c23.333 29.333 35 59 35 89 0 24.667-10 46.334-30 65.001l62 14c10-6 18.5-15.833 25.5-29.5s10.5-28.834 10.5-45.5c0-8-.5-15.668-1.5-23s-2.667-14.167-5-20.5-4.666-12.166-6.999-17.499-5.333-10.666-9-15.999l-9-13c-2.333-3.333-5.666-7-9.999-11s-7.333-6.833-9-8.5-4.5-4.167-8.5-7.5z"/><glyph glyph-name="Ldot" unicode="Ŀ" horiz-adv-x="472" d="M75 0v674h88V73h288V0H75zm265 321c-14 0-25.666 5-34.999 15s-14 22-14 36c0 13.333 4.833 25 14.5 35s21.5 15 35.5 15c13.333 0 24.666-5 33.999-15s14-21.667 14-35c0-14-4.667-26-14-36s-21-15-35-15z"/><glyph glyph-name="ldot" unicode="ŀ" horiz-adv-x="272" d="M73 0v710h88V0H73zm179 341c-13.333 0-24.499 4.833-33.499 14.5s-13.5 21.5-13.5 35.5c0 13.333 4.667 25 14 35s20.666 15 33.999 15c12.667 0 23.5-4.833 32.5-14.5S299 405 299 391s-4.333-25.833-13-35.5-20-14.5-34-14.5z"/><glyph glyph-name="Lslash" unicode="Ł" horiz-adv-x="476" d="M455 0H79v269l-84-61v67l84 61v338h88V396l134 97v-68l-134-97V73h288V0z"/><glyph glyph-name="lslash" unicode="ł" horiz-adv-x="242" d="M165 0H77v288L9 230v69l68 58v353h88V425l71 61v-70l-71-61V0z"/><glyph glyph-name="Nacute" unicode="Ń" horiz-adv-x="658" d="M158 0L76 .001v674h96l215-341c52-84 92-157 120-219l3 1c-6.667 75.333-10 167.666-10 276.999v282h82V0h-88L280 342c-56 88.667-97.667 163.667-125 225l-3-1c4-68 6-160.667 6-278V0zm212 827.001h107l-128-117h-71z"/><glyph glyph-name="nacute" unicode="ń" horiz-adv-x="555" d="M73 0l-.001 352.998c0 52-1.333 95.667-4 131h78l5-80h2c13.333 25.333 34 46.666 62 63.999s60.667 26 98 26c18.667 0 37.167-3.167 55.5-9.5s36.5-16.666 54.5-30.999 32.667-35.666 44-63.999 17-62.166 17-101.499V0h-88v279c0 42.667-9 77.167-27 103.5s-46.333 39.5-85 39.5c-27.333 0-51.666-8.667-72.999-26s-36.333-38.666-45-63.999c-4-10.667-6-24.334-6-41.001V0H73zm244.999 692.998h96l-122-143h-62z"/><glyph glyph-name="Ncommaaccent" unicode="Ņ" horiz-adv-x="658" d="M158 0L76 .001v674h96l215-341c52-84 92-157 120-219l3 1c-6.667 75.333-10 167.666-10 276.999v282h82V0h-88L280 342c-56 88.667-97.667 163.667-125 225l-3-1c4-68 6-160.667 6-278V0zm112-220.999l-17.001 41c50 8 75 29.667 75 65 0 22-11.333 42.333-34 61l65 14c26.667-17.333 40-42 40-74 0-34-12.667-59.833-38-77.5s-55.666-27.5-90.999-29.5z"/><glyph glyph-name="ncommaaccent" unicode="ņ" horiz-adv-x="555" d="M73 0l-.001 352.998c0 52-1.333 95.667-4 131h78l5-80h2c13.333 25.333 34 46.666 62 63.999s60.667 26 98 26c18.667 0 37.167-3.167 55.5-9.5s36.5-16.666 54.5-30.999 32.667-35.666 44-63.999 17-62.166 17-101.499V0h-88v279c0 42.667-9 77.167-27 103.5s-46.333 39.5-85 39.5c-27.333 0-51.666-8.667-72.999-26s-36.333-38.666-45-63.999c-4-10.667-6-24.334-6-41.001V0H73zm147.999-220.002l-17.001 41.001c50 8 75 29.667 75 65 0 23.333-11.333 43.666-34 60.999l65 14c26.667-17.333 40-42 40-74 0-34-12.667-59.833-38-77.5s-55.666-27.5-90.999-29.5z"/><glyph glyph-name="Ncaron" unicode="Ň" horiz-adv-x="658" d="M158 0L76 .001v674h96l215-341c52-84 92-157 120-219l3 1c-6.667 75.333-10 167.666-10 276.999v282h82V0h-88L280 342c-56 88.667-97.667 163.667-125 225l-3-1c4-68 6-160.667 6-278V0zm206 705.001h-66l-105 114h74l64-69h2l63 69h71z"/><glyph glyph-name="ncaron" unicode="ň" horiz-adv-x="555" d="M73 0l-.001 352.998c0 52-1.333 95.667-4 131h78l5-80h2c13.333 25.333 34 46.666 62 63.999s60.667 26 98 26c18.667 0 37.167-3.167 55.5-9.5s36.5-16.666 54.5-30.999 32.667-35.666 44-63.999 17-62.166 17-101.499V0h-88v279c0 42.667-9 77.167-27 103.5s-46.333 39.5-85 39.5c-27.333 0-51.666-8.667-72.999-26s-36.333-38.666-45-63.999c-4-10.667-6-24.334-6-41.001V0H73zm236.999 549.998h-63l-96 143h67l59-95h2l59 95h66z"/><glyph glyph-name="napostrophe" unicode="ŉ" horiz-adv-x="555" d="M73 0l-.001 352.998c0 52-1.333 95.667-4 131h78l5-80h2c13.333 25.333 34 46.666 62 63.999s60.667 26 98 26c18.667 0 37.167-3.167 55.5-9.5s36.5-16.666 54.5-30.999 32.667-35.666 44-63.999 17-62.166 17-101.499V0h-88v279c0 42.667-9 77.167-27 103.5s-46.333 39.5-85 39.5c-27.333 0-51.666-8.667-72.999-26s-36.333-38.666-45-63.999c-4-10.667-6-24.334-6-41.001V0H73zM55.999 535.998l-38 29c24.667 27.333 37 54.666 37 81.999 0 22-10.333 41.667-31 59l64 17c9.333-6 17.5-15.5 24.5-28.5s10.5-27.5 10.5-43.5c0-43.333-22.333-81.666-67-114.999z"/><glyph glyph-name="Eng" unicode="Ŋ" horiz-adv-x="658" d="M158 0L76 .001v674h96l215-341c52-84 92-157 120-219l3 1c-6.667 75.333-10 167.666-10 276.999v282h82V38c0-138.667-64.333-217.667-193-237l-18 68c40 8 70.333 22 91 42s32.667 47.667 36 83L280 342c-56 88.667-97.667 163.667-125 225l-3-1c4-68 6-160.667 6-278V0z"/><glyph glyph-name="eng" unicode="ŋ" horiz-adv-x="555" d="M73 0l-.001 352.998c0 52-1.333 95.667-4 131h78l5-80h2c13.333 25.333 34 46.666 62 63.999s60.667 26 98 26c18.667 0 37.167-3.167 55.5-9.5s36.5-16.666 54.5-30.999 32.667-35.666 44-63.999 17-62.166 17-101.499V59c0-72.667-17.333-128.5-52-167.5s-80.667-62.5-138-70.5l-17 70c79.333 16 119 69.333 119 160v228c0 42.667-9 77.167-27 103.5s-46.333 39.5-85 39.5c-27.333 0-51.666-8.667-72.999-26s-36.333-38.666-45-63.999c-4-10.667-6-24.334-6-41.001V0H73z"/><glyph glyph-name="Omacron" unicode="Ō" horiz-adv-x="689" d="M348 686c92 0 165.667-31.668 221-95.001S652 445.333 652 344c0-111.333-29.667-198.333-89-261S429-11 339-11c-89.333 0-162.166 31.667-218.499 95s-84.5 146-84.5 248c0 106 29.167 191.5 87.5 256.5S256.667 686 348 686zm-3-71.001c-68.667 0-122.001-27.167-160.001-81.5s-57-120.833-57-199.5c0-76 19.5-140.667 58.5-194s91.5-80 157.5-80c66.667 0 119.334 26.667 158.001 80s58 120 58 200c0 74-18.833 138.333-56.5 193s-90.5 82-158.5 82zm-120.001 179h240v-55h-240v55z"/><glyph glyph-name="omacron" unicode="ō" horiz-adv-x="549" d="M278 494c69.333 0 125.499-23.001 168.499-69.001s64.5-105.667 64.5-179c0-83.333-24-147-72-191s-104.333-66-169-66c-66.667 0-122 22.833-166 68.5s-66 105.834-66 180.501c0 78 22.833 140.167 68.5 186.5S209.333 494 278 494zm-2.001-66.001c-48 0-84.667-18.501-110-55.501s-38-80.833-38-131.5c0-53.333 13.667-97.666 41-132.999s62.333-53 105-53c42 0 77 17.833 105 53.5s42 80.5 42 134.5c0 47.333-12.167 90-36.5 128s-60.5 57-108.5 57zm-114 214.999h225v-57h-225v57z"/><glyph glyph-name="Obreve" unicode="Ŏ" horiz-adv-x="689" d="M348 686c92 0 165.667-31.668 221-95.001S652 445.333 652 344c0-111.333-29.667-198.333-89-261S429-11 339-11c-89.333 0-162.166 31.667-218.499 95s-84.5 146-84.5 248c0 106 29.167 191.5 87.5 256.5S256.667 686 348 686zm-3-71.001c-68.667 0-122.001-27.167-160.001-81.5s-57-120.833-57-199.5c0-76 19.5-140.667 58.5-194s91.5-80 157.5-80c66.667 0 119.334 26.667 158.001 80s58 120 58 200c0 74-18.833 138.333-56.5 193s-90.5 82-158.5 82zm-125.001 215H272c7.333-32.667 31.333-49 72-49 42 0 66 16.333 72 49h51c-1.333-31.333-12.333-56.833-33-76.5s-51.334-29.5-92.001-29.5c-40 0-70 9.667-90 29s-30.667 45-32 77z"/><glyph glyph-name="obreve" unicode="ŏ" horiz-adv-x="549" d="M278 494c69.333 0 125.499-23.001 168.499-69.001s64.5-105.667 64.5-179c0-83.333-24-147-72-191s-104.333-66-169-66c-66.667 0-122 22.833-166 68.5s-66 105.834-66 180.501c0 78 22.833 140.167 68.5 186.5S209.333 494 278 494zm-2.001-66.001c-48 0-84.667-18.501-110-55.501s-38-80.833-38-131.5c0-53.333 13.667-97.666 41-132.999s62.333-53 105-53c42 0 77 17.833 105 53.5s42 80.5 42 134.5c0 47.333-12.167 90-36.5 128s-60.5 57-108.5 57zm-126 253.999l52.002.002c3.333-20.667 11.166-37.334 23.499-50.001s28.166-19 47.499-19c22.667 0 40 6.667 52 20s19 29.666 21 48.999h52c0-37.333-11.333-67.5-34-90.5s-52.667-34.5-90-34.5c-41.333 0-72.333 12.167-93 36.5s-31 53.833-31 88.5z"/><glyph glyph-name="Ohungarumlaut" unicode="Ő" horiz-adv-x="689" d="M348 686c92 0 165.667-31.668 221-95.001S652 445.333 652 344c0-111.333-29.667-198.333-89-261S429-11 339-11c-89.333 0-162.166 31.667-218.499 95s-84.5 146-84.5 248c0 106 29.167 191.5 87.5 256.5S256.667 686 348 686zm-3-71.001c-68.667 0-122.001-27.167-160.001-81.5s-57-120.833-57-199.5c0-76 19.5-140.667 58.5-194s91.5-80 157.5-80c66.667 0 119.334 26.667 158.001 80s58 120 58 200c0 74-18.833 138.333-56.5 193s-90.5 82-158.5 82zm-26.001 215h95l-111-112h-64zm147 0h95l-111-112h-64z"/><glyph glyph-name="ohungarumlaut" unicode="ő" horiz-adv-x="549" d="M278 494c69.333 0 125.499-23.001 168.499-69.001s64.5-105.667 64.5-179c0-83.333-24-147-72-191s-104.333-66-169-66c-66.667 0-122 22.833-166 68.5s-66 105.834-66 180.501c0 78 22.833 140.167 68.5 186.5S209.333 494 278 494zm-2.001-66.001c-48 0-84.667-18.501-110-55.501s-38-80.833-38-131.5c0-53.333 13.667-97.666 41-132.999s62.333-53 105-53c42 0 77 17.833 105 53.5s42 80.5 42 134.5c0 47.333-12.167 90-36.5 128s-60.5 57-108.5 57zm-38 264.999h86l-110-136h-55zm144 0h86l-110-136h-55z"/><glyph glyph-name="OE" unicode="Œ" horiz-adv-x="894" d="M857 73l.002-72.999h-345c-12 0-34-2-66-6-41.333-3.333-69-5-83-5-102 0-182 32.167-240 96.5s-87 146.5-87 246.5c0 109.333 30.667 195.666 92 258.999s141.333 95 240 95c25.333 0 54.666-2 87.999-6s54.666-6 63.999-6h322v-73H565V387h261v-72H565V73h292zm-379.998.001l.001 526.998c-28.667 10-64.334 15-107.001 15-74 0-132.833-25.667-176.5-77s-65.5-118.666-65.5-201.999 22.333-150.166 67-200.499 106-75.5 184-75.5c41.333 0 74 4.333 98 13z"/><glyph glyph-name="oe" unicode="œ" horiz-adv-x="863" d="M824 227l-329-.002c0-53.333 14.833-94.833 44.5-124.5s68.5-44.5 116.5-44.5c44.667 0 87.667 9 129 27l17-63c-38.667-22-91-33-157-33-91.333 0-155.333 38-192 114h-2c-17.333-37.333-43-65.666-77-84.999s-70.667-29-110-29c-65.333 0-119.333 22.833-162 68.5s-64 106.167-64 181.5C38 315.666 60 377.333 104 424s99.333 70 166 70c41.333 0 78.333-10.167 111-30.5s56.334-48.5 71.001-84.5h2c17.333 37.333 41.5 65.833 72.5 85.5s65.833 29.5 104.5 29.5c29.333 0 55.833-5.167 79.5-15.5s42.5-23.5 56.5-39.5 25.667-34.333 35-55 15.666-40.5 18.999-59.5 5-37.833 5-56.5c0-15.333-.667-29-2-41zM270 427.998c-48 0-83.667-18.998-107-56.998s-35-81.333-35-130c0-52.667 13.5-96.834 40.5-132.501s61.167-53.5 102.5-53.5c42.667 0 77 17.333 103 52s39 79.667 39 135c0 51.333-12 95.166-36 131.499s-59.667 54.5-107 54.5zM494 290h248.001c0 15.333-1.667 30.5-5 45.5s-9 30-17 45-20.333 27.167-37 36.5-36.334 14-59.001 14c-39.333 0-70-14.5-92-43.5S497.333 326 494 290z"/><glyph glyph-name="Racute" unicode="Ŕ" horiz-adv-x="538" d="M76 0l-.001 664.998c51.333 9.333 107 14 167 14 89.333 0 154.333-18.333 195-55 35.333-32 53-75 53-129 0-42-11.667-77.833-35-107.5S402.333 336.664 365 323.997v-3c48.667-17.333 81.334-62.666 98.001-135.999 24.667-104 42-165.667 52-185h-90C414.334 18.665 399.667 72.332 381 160.999c-10 46.667-25.333 79.834-46 99.501s-50.667 30.167-90 31.5h-82V0H76zm86.999 603.998v-246h89c46 0 82.833 11.667 110.5 35s41.5 54.333 41.5 93c0 42-13.833 73.333-41.5 94s-65.5 31-113.5 31c-40 0-68.667-2.333-86-7zm139 225h106l-128-117h-71z"/><glyph glyph-name="racute" unicode="ŕ" horiz-adv-x="327" d="M73 0l-.001 333c0 60.667-1.333 111-4 151h77l4-96h3c10.667 32 28.334 57.667 53.001 77s52 29 82 29c5.333 0 13.333-.667 24-2v-83c-6 1.333-16 2-30 2-30.667 0-56.5-10.333-77.5-31S170 332.333 164 299c-2-12-3-25.667-3-41V0H73zm143.999 693h96l-122-143h-62z"/><glyph glyph-name="Rcommaaccent" unicode="Ŗ" horiz-adv-x="538" d="M76 0l-.001 664.998c51.333 9.333 107 14 167 14 89.333 0 154.333-18.333 195-55 35.333-32 53-75 53-129 0-42-11.667-77.833-35-107.5S402.333 336.664 365 323.997v-3c48.667-17.333 81.334-62.666 98.001-135.999 24.667-104 42-165.667 52-185h-90C414.334 18.665 399.667 72.332 381 160.999c-10 46.667-25.333 79.834-46 99.501s-50.667 30.167-90 31.5h-82V0H76zm86.999 603.998v-246h89c46 0 82.833 11.667 110.5 35s41.5 54.333 41.5 93c0 42-13.833 73.333-41.5 94s-65.5 31-113.5 31c-40 0-68.667-2.333-86-7zm49-819l-17.001 41c50 8 75 29.667 75 65 0 22-11.333 42.333-34 61l65 14c26.667-17.333 40-42 40-74 0-34-12.667-59.833-38-77.5s-55.666-27.5-90.999-29.5z"/><glyph glyph-name="rcommaaccent" unicode="ŗ" horiz-adv-x="327" d="M73 0l-.001 333c0 60.667-1.333 111-4 151h77l4-96h3c10.667 32 28.334 57.667 53.001 77s52 29 82 29c5.333 0 13.333-.667 24-2v-83c-6 1.333-16 2-30 2-30.667 0-56.5-10.333-77.5-31S170 332.333 164 299c-2-12-3-25.667-3-41V0H73zM59.999-222l-17.001 41.001c50 8 75 29.667 75 65 0 23.333-11.333 43.666-34 60.999l65 14c26.667-17.333 40-42 40-74 0-34-12.667-59.833-38-77.5S95.332-220 59.999-222z"/><glyph glyph-name="Rcaron" unicode="Ř" horiz-adv-x="538" d="M76 0l-.001 664.998c51.333 9.333 107 14 167 14 89.333 0 154.333-18.333 195-55 35.333-32 53-75 53-129 0-42-11.667-77.833-35-107.5S402.333 336.664 365 323.997v-3c48.667-17.333 81.334-62.666 98.001-135.999 24.667-104 42-165.667 52-185h-90C414.334 18.665 399.667 72.332 381 160.999c-10 46.667-25.333 79.834-46 99.501s-50.667 30.167-90 31.5h-82V0H76zm86.999 603.998v-246h89c46 0 82.833 11.667 110.5 35s41.5 54.333 41.5 93c0 42-13.833 73.333-41.5 94s-65.5 31-113.5 31c-40 0-68.667-2.333-86-7zm135 109h-67l-105 114h74l64-69h2l63 69h71z"/><glyph glyph-name="rcaron" unicode="ř" horiz-adv-x="327" d="M73 0l-.001 333c0 60.667-1.333 111-4 151h77l4-96h3c10.667 32 28.334 57.667 53.001 77s52 29 82 29c5.333 0 13.333-.667 24-2v-83c-6 1.333-16 2-30 2-30.667 0-56.5-10.333-77.5-31S170 332.333 164 299c-2-12-3-25.667-3-41V0H73zm140.999 550h-63l-96 143h67l59-95h2l59 95h66z"/><glyph glyph-name="Sacute" unicode="Ś" horiz-adv-x="493" d="M42 33l23 73.004c46-29.333 97.667-44 155-44 44 0 78.5 10.5 103.5 31.5s37.5 48.833 37.5 83.5c0 30.667-9.833 56.167-29.5 76.5s-52.167 39.166-97.5 56.499c-118.667 43.333-178 107.333-178 192 0 53.333 20.167 97.166 60.5 131.499s92.833 51.5 157.5 51.5c61.333 0 110.666-11 147.999-33l-24-71c-34.667 21.333-77 32-127 32-42 0-73.667-10.167-95-30.5s-32-43.833-32-70.5c0-30.667 10.167-55.334 30.5-74.001s54.833-37.334 103.5-56.001c58.667-22.667 101.834-49.334 129.501-80.001s41.5-70 41.5-118c0-55.333-20.167-101.666-60.5-139S290-11 214-11c-32 0-64 4.168-96 12.5S60.667 20.334 42 33zm256 796.004h107l-128-117h-71z"/><glyph glyph-name="sacute" unicode="ś" horiz-adv-x="396" d="M40 23l21 66c38-22.667 77-34 117-34 30 0 53 6.667 69 20s24 30.666 24 51.999c0 20.667-6.667 37.5-20 50.5s-36.333 25.5-69 37.5c-86 31.333-129 77-129 137 0 40 15.333 73.667 46 101s71 41 121 41c48 0 87.333-10 118-30l-21-64c-30.667 19.333-63.667 29-99 29-25.333 0-45-6.333-59-19s-21-28.334-21-47.001c0-19.333 6.833-34.666 20.5-45.999S195.667 293.333 229 280c42.667-16 74.5-35.5 95.5-58.5S356 169.667 356 135c0-44-16-79.333-48-106s-76-40-132-40C124-11 78.667.333 40 23zm204 670h97L219 550h-62z"/><glyph glyph-name="Scircumflex" unicode="Ŝ" horiz-adv-x="493" d="M42 33l23 73.004c46-29.333 97.667-44 155-44 44 0 78.5 10.5 103.5 31.5s37.5 48.833 37.5 83.5c0 30.667-9.833 56.167-29.5 76.5s-52.167 39.166-97.5 56.499c-118.667 43.333-178 107.333-178 192 0 53.333 20.167 97.166 60.5 131.499s92.833 51.5 157.5 51.5c61.333 0 110.666-11 147.999-33l-24-71c-34.667 21.333-77 32-127 32-42 0-73.667-10.167-95-30.5s-32-43.833-32-70.5c0-30.667 10.167-55.334 30.5-74.001s54.833-37.334 103.5-56.001c58.667-22.667 101.834-49.334 129.501-80.001s41.5-70 41.5-118c0-55.333-20.167-101.666-60.5-139S290-11 214-11c-32 0-64 4.168-96 12.5S60.667 20.334 42 33zm172 794.004h66l105-114h-74l-63 69h-2l-64-69h-71z"/><glyph glyph-name="scircumflex" unicode="ŝ" horiz-adv-x="396" d="M40 23l21 66c38-22.667 77-34 117-34 30 0 53 6.667 69 20s24 30.666 24 51.999c0 20.667-6.667 37.5-20 50.5s-36.333 25.5-69 37.5c-86 31.333-129 77-129 137 0 40 15.333 73.667 46 101s71 41 121 41c48 0 87.333-10 118-30l-21-64c-30.667 19.333-63.667 29-99 29-25.333 0-45-6.333-59-19s-21-28.334-21-47.001c0-19.333 6.833-34.666 20.5-45.999S195.667 293.333 229 280c42.667-16 74.5-35.5 95.5-58.5S356 169.667 356 135c0-44-16-79.333-48-106s-76-40-132-40C124-11 78.667.333 40 23zm129 670h61l96-143h-67l-59 94h-2l-57-94H75z"/><glyph glyph-name="Scedilla" unicode="Ş" horiz-adv-x="493" d="M42 33l23 73.005c46-29.333 97.667-44 155-44 44 0 78.5 10.5 103.5 31.5s37.5 48.833 37.5 83.5c0 30.667-9.833 56.167-29.5 76.5s-52.167 39.166-97.5 56.499c-118.667 43.333-178 107.333-178 192 0 53.333 20.167 97.166 60.5 131.499s92.833 51.5 157.5 51.5c61.333 0 110.666-11 147.999-33l-24-71c-34.667 21.333-77 32-127 32-42 0-73.667-10.167-95-30.5s-32-43.833-32-70.5c0-30.667 10.167-55.334 30.5-74.001s54.833-37.334 103.5-56.001C336.666 359.334 379.833 332.667 407.5 302S449 232 449 184c0-46.667-14.833-87.5-44.5-122.5S331.666 4 274.999-6l-28-44c20-3.333 36.667-11.333 50-24s20-28 20-46c0-26.667-9.833-46.667-29.5-60s-44.167-20-73.5-20c-28 0-51 5.667-69 17l14 43c18.667-9.333 37-14 55-14 27.333 0 41 10.333 41 31 0 22.667-25.667 36.667-77 42l40 70h-7c-29.333 0-60.166 4.167-92.499 12.5S60.667 20.333 42 33z"/><glyph glyph-name="scedilla" unicode="ş" horiz-adv-x="396" d="M40 23l21.004 66c38-22.667 77-34 117-34 30 0 53 6.667 69 20s24 30.666 24 51.999c0 20.667-6.667 37.5-20 50.5s-36.333 25.5-69 37.5c-86 31.333-129 77-129 137 0 40 15.333 73.667 46 101s71 41 121 41c48 0 87.333-10 118-30l-21-63c-32 18.667-65 28-99 28-25.333 0-45-6.333-59-19s-21-28.334-21-47.001c0-19.333 6.833-34.666 20.5-45.999s37.167-23.666 70.5-36.999c42.667-16 74.5-35.5 95.5-58.5s31.5-51.833 31.5-86.5c0-36-11.333-66.5-34-91.5S267.67 2.333 227.003-5l-27-45c19.333-2.667 35.833-10.167 49.5-22.5s20.5-27.833 20.5-46.5c0-28-9.833-48.5-29.5-61.5S195.669-200 165.002-200c-26 0-48.667 5.667-68 17l15 43c17.333-9.333 35.333-14 54-14 12.667 0 23.167 2.5 31.5 7.5S209.668-133.667 209-123c0 23.333-26 37.333-78 42l40 71h-3C121.334-10 78.667 1 40 23z"/><glyph glyph-name="Scaron" unicode="Š" horiz-adv-x="493" d="M42 33l23 73.004c46-29.333 97.667-44 155-44 44 0 78.5 10.5 103.5 31.5s37.5 48.833 37.5 83.5c0 30.667-9.833 56.167-29.5 76.5s-52.167 39.166-97.5 56.499c-118.667 43.333-178 107.333-178 192 0 53.333 20.167 97.166 60.5 131.499s92.833 51.5 157.5 51.5c61.333 0 110.666-11 147.999-33l-24-71c-34.667 21.333-77 32-127 32-42 0-73.667-10.167-95-30.5s-32-43.833-32-70.5c0-30.667 10.167-55.334 30.5-74.001s54.833-37.334 103.5-56.001c58.667-22.667 101.834-49.334 129.501-80.001s41.5-70 41.5-118c0-55.333-20.167-101.666-60.5-139S290-11 214-11c-32 0-64 4.168-96 12.5S60.667 20.334 42 33zm250 680.004h-67l-105 114h74l64-69h2l63 69h71z"/><glyph glyph-name="scaron" unicode="š" horiz-adv-x="396" d="M40 23l21 66c38-22.667 77-34 117-34 30 0 53 6.667 69 20s24 30.666 24 51.999c0 20.667-6.667 37.5-20 50.5s-36.333 25.5-69 37.5c-86 31.333-129 77-129 137 0 40 15.333 73.667 46 101s71 41 121 41c48 0 87.333-10 118-30l-21-64c-30.667 19.333-63.667 29-99 29-25.333 0-45-6.333-59-19s-21-28.334-21-47.001c0-19.333 6.833-34.666 20.5-45.999S195.667 293.333 229 280c42.667-16 74.5-35.5 95.5-58.5S356 169.667 356 135c0-44-16-79.333-48-106s-76-40-132-40C124-11 78.667.333 40 23zm195 527h-63L76 693h67l59-95h2l59 95h66z"/><glyph glyph-name="Tcommaaccent" unicode="Ţ" horiz-adv-x="497" d="M204 0v600H-1v74h499v-74H292V0h-88zm-24-222l-17.001 41c50 8 75 29.667 75 65 0 22-11.333 42.333-34 61l65 14c26.667-17.333 40-42 40-74 0-34-12.667-59.833-38-77.5S215.333-220 180-222z"/><glyph glyph-name="tcommaaccent" unicode="ţ" horiz-adv-x="331" d="M93 574l86.001 26.001v-116h126v-67h-126v-261c0-62.667 22-94 66-94 20.667 0 37.667 2 51 6l4-67c-22.667-8-48.667-12-78-12-40.667 0-72.334 12.333-95.001 37C104.333 51.334 93 93.667 93 153v264H18v67h75v90zm29.001-800.999L105-185.998c50 8 75 29.667 75 65 0 23.333-11.333 43.666-34 60.999l65 14c26.667-17.333 40-42 40-74 0-34-12.667-59.833-38-77.5s-55.666-27.5-90.999-29.5z"/><glyph glyph-name="Tcaron" unicode="Ť" horiz-adv-x="497" d="M204 0v600H-1v74h499v-74H292V0h-88zm79 710h-67L111 824h74l64-69h2l63 69h71z"/><glyph glyph-name="tcaron" unicode="ť" horiz-adv-x="339" d="M93 573l86.001 27.001v-116h127v-67h-127v-261c0-31.333 5.167-54.833 15.5-70.5s27.5-23.5 51.5-23.5c20 0 37 2 51 6l4-67c-22.667-8-49-12-79-12-40.667 0-72.334 12.333-95.001 37C104.333 51.334 93 93.667 93 153v264H18v67h75v89zm184.001-31.999l-25.999 35c25.333 18 38 43 38 75 0 22-10 41.333-30 58l64 13c23.333-15.333 35-38.333 35-69 0-30-8.833-54.333-26.5-73s-35.834-31.667-54.501-39z"/><glyph glyph-name="Tbar" unicode="Ŧ" horiz-adv-x="497" d="M498 600H292V378h124v-58H292V0h-88v320H79v58h125v222H-1v74h499v-74z"/><glyph glyph-name="tbar" unicode="ŧ" horiz-adv-x="331" d="M305 417l-125.999.001v-115h98v-54h-98v-96c0-60 22-90 66-90 20.667 0 37.667 2 51 6l4-67c-22.667-8-48.667-12-78-12-40.667 0-72.334 12.333-95.001 37C104.333 51.334 93 93.667 93 153v95H27v54h66v115H18v67h75v90l86 26V484h126v-67z"/><glyph glyph-name="Utilde" unicode="Ũ" horiz-adv-x="647" d="M75 674l87.999.002v-400c0-72 14.333-125.667 43-161s66.667-53 114-53c51.333 0 91.5 17.667 120.5 53s43.5 89 43.5 161v400h88v-394c0-98.667-23.167-171.834-69.5-219.501S394.333-10.999 317-10.999c-74 0-132.833 23.167-176.5 69.5S75 177.667 75 277v397zm170.999 41.002h-46.996c-.667 30.667 5.166 55.334 17.499 74.001s29.166 28 50.499 28c13.333 0 33.333-6.667 60-20 21.333-12 37.333-18 48-18 8 0 14.167 2.667 18.5 8s7.166 15.666 8.499 30.999h46c1.333-64.667-21-97-67-97-14.667 0-35.334 6.333-62.001 19-24 12.667-39.667 19-47 19-14 0-22.667-14.667-26-44z"/><glyph glyph-name="utilde" unicode="ũ" horiz-adv-x="551" d="M478 484l-.002-351c0-54.667 1.333-99 4-133h-78l-5 79h-2c-13.333-24-33.666-45-60.999-63s-60.333-27-99-27c-20.667 0-40.167 3.333-58.5 10s-36 17.5-53 32.5-30.5 37-40.5 66-15 63.5-15 103.5v283h88V217c0-103.333 36-155 108-155 27.333 0 51.333 8 72 24s35.334 35 44.001 57c5.333 12.667 8 27.667 8 45v296h88zm-278.002 83h-47.999c-.667 32 5 57.333 17 76s29 28 51 28c12.667 0 33.667-7.333 63-22 20-11.333 34-17 42-17 16 0 25 14 27 42h47c1.333-67.333-21.334-101-68.001-101-15.333 0-36 7.333-62 22-20.667 11.333-35 17-43 17-15.333 0-24-15-26-45z"/><glyph glyph-name="Umacron" unicode="Ū" horiz-adv-x="647" d="M75 674l87.999.002v-400c0-72 14.333-125.667 43-161s66.667-53 114-53c51.333 0 91.5 17.667 120.5 53s43.5 89 43.5 161v400h88v-394c0-98.667-23.167-171.834-69.5-219.501S394.333-10.999 317-10.999c-74 0-132.833 23.167-176.5 69.5S75 177.667 75 277v397zm127.999 114.002h240v-55h-240v55z"/><glyph glyph-name="umacron" unicode="ū" horiz-adv-x="551" d="M478 484l-.002-351c0-54.667 1.333-99 4-133h-78l-5 79h-2c-13.333-24-33.666-45-60.999-63s-60.333-27-99-27c-20.667 0-40.167 3.333-58.5 10s-36 17.5-53 32.5-30.5 37-40.5 66-15 63.5-15 103.5v283h88V217c0-103.333 36-155 108-155 27.333 0 51.333 8 72 24s35.334 35 44.001 57c5.333 12.667 8 27.667 8 45v296h88zM162.998 643h225v-57h-225v57z"/><glyph glyph-name="Ubreve" unicode="Ŭ" horiz-adv-x="647" d="M75 674l87.999.002v-400c0-72 14.333-125.667 43-161s66.667-53 114-53c51.333 0 91.5 17.667 120.5 53s43.5 89 43.5 161v400h88v-394c0-98.667-23.167-171.834-69.5-219.501S394.333-10.999 317-10.999c-74 0-132.833 23.167-176.5 69.5S75 177.667 75 277v397zm123.999 153.002H251c7.333-32.667 31.333-49 72-49 42.667 0 67 16.333 73 49h51c-1.333-31.333-12.333-56.833-33-76.5s-51.334-29.5-92.001-29.5-71 9.667-91 29-30.667 45-32 77z"/><glyph glyph-name="ubreve" unicode="ŭ" horiz-adv-x="551" d="M478 484l-.002-351c0-54.667 1.333-99 4-133h-78l-5 79h-2c-13.333-24-33.666-45-60.999-63s-60.333-27-99-27c-20.667 0-40.167 3.333-58.5 10s-36 17.5-53 32.5-30.5 37-40.5 66-15 63.5-15 103.5v283h88V217c0-103.333 36-155 108-155 27.333 0 51.333 8 72 24s35.334 35 44.001 57c5.333 12.667 8 27.667 8 45v296h88zM150.998 682l52.002.002c3.333-20.667 11.166-37.334 23.499-50.001s28.166-19 47.499-19c22.667 0 40 6.667 52 20s19 29.666 21 48.999h52c0-37.333-11.333-67.5-34-90.5s-52.667-34.5-90-34.5c-41.333 0-72.333 12.167-93 36.5s-31 53.833-31 88.5z"/><glyph glyph-name="Uring" unicode="Ů" horiz-adv-x="647" d="M75 674l87.999.002v-400c0-72 14.333-125.667 43-161s66.667-53 114-53c51.333 0 91.5 17.667 120.5 53s43.5 89 43.5 161v400h88v-394c0-98.667-23.167-171.834-69.5-219.501S394.333-10.999 317-10.999c-74 0-132.833 23.167-176.5 69.5S75 177.667 75 277v397zm249.999 198.002c29.333 0 53.001-8.667 71.001-26s27-39 27-65c0-25.333-9.333-46.333-28-63s-42.334-25-71.001-25c-29.333 0-53.333 8.5-72 25.5s-28 37.833-28 62.5c0 26 9.167 47.667 27.5 65s42.833 26 73.5 26zm-2.999-36c-14.667 0-26.167-5.334-34.5-16.001s-12.5-23.667-12.5-39c0-13.333 4.5-25.166 13.5-35.499s20.5-15.5 34.5-15.5 25.5 5 34.5 15 13.5 22.667 13.5 38c0 14.667-4.5 27.167-13.5 37.5s-20.833 15.5-35.5 15.5z"/><glyph glyph-name="uring" unicode="ů" horiz-adv-x="551" d="M478 484l-.002-351c0-54.667 1.333-99 4-133h-78l-5 79h-2c-13.333-24-33.666-45-60.999-63s-60.333-27-99-27c-20.667 0-40.167 3.333-58.5 10s-36 17.5-53 32.5-30.5 37-40.5 66-15 63.5-15 103.5v283h88V217c0-103.333 36-155 108-155 27.333 0 51.333 8 72 24s35.334 35 44.001 57c5.333 12.667 8 27.667 8 45v296h88zm-202.002 53c-30 0-54.499 8.667-73.499 26s-28.5 39-28.5 65c0 27.333 9.5 49.833 28.5 67.5s43.833 26.5 74.5 26.5c29.333 0 53.166-8.833 71.499-26.5s27.5-40.167 27.5-67.5c0-26-9.5-47.667-28.5-65s-42.833-26-71.5-26zm-.999 37c15.333 0 27.833 5.333 37.5 16s14.5 23.667 14.5 39c0 16-4.833 29.333-14.5 40s-22.5 16-38.5 16c-14.667 0-26.5-5.5-35.5-16.5s-13.5-24.5-13.5-40.5c0-14 4.667-26.5 14-37.5s21.333-16.5 36-16.5z"/><glyph glyph-name="Uhungarumlaut" unicode="Ű" horiz-adv-x="647" d="M75 674l87.999.002v-400c0-72 14.333-125.667 43-161s66.667-53 114-53c51.333 0 91.5 17.667 120.5 53s43.5 89 43.5 161v400h88v-394c0-98.667-23.167-171.834-69.5-219.501S394.333-10.999 317-10.999c-74 0-132.833 23.167-176.5 69.5S75 177.667 75 277v397zm207.999 153.002h95l-111-112h-64zm147 0h95l-111-112h-64z"/><glyph glyph-name="uhungarumlaut" unicode="ű" horiz-adv-x="551" d="M478 484l-.002-351c0-54.667 1.333-99 4-133h-78l-5 79h-2c-13.333-24-33.666-45-60.999-63s-60.333-27-99-27c-20.667 0-40.167 3.333-58.5 10s-36 17.5-53 32.5-30.5 37-40.5 66-15 63.5-15 103.5v283h88V217c0-103.333 36-155 108-155 27.333 0 51.333 8 72 24s35.334 35 44.001 57c5.333 12.667 8 27.667 8 45v296h88zM245.998 693h86l-110-136h-55zm144 0h86l-110-136h-55z"/><glyph glyph-name="Uogonek" unicode="Ų" horiz-adv-x="647" d="M415-135l13.998-45.001c-22.667-16-50-24-82-24-27.333 0-49.166 7.167-65.499 21.5s-24.5 33.833-24.5 58.5c0 34.667 19 72.334 57 113.001h-6c-71.333 2-128 26-170 72s-63 118-63 216v397h88V274c0-72 14.333-125.667 43-161s66.667-53 114-53c52 0 92.333 17.667 121 53s43 89 43 161v400h88V280c0-82-16.667-146.5-50-193.5S443.333 10 386-2c-40.667-36-61-69.333-61-100 0-28.667 15-43 45-43 15.333 0 30.333 3.333 45 10z"/><glyph glyph-name="uogonek" unicode="ų" horiz-adv-x="551" d="M478 484l-.001-351c0-56 1.333-100.333 4-133l-21 3c-27.333-38-41-70.667-41-98 0-16.667 4.667-29.5 14-38.5s21.666-13.5 36.999-13.5c16.667 0 31.667 3 45 9l14-46c-21.333-15.333-48.333-23-81-23-28 0-50.5 7.5-67.5 22.5s-25.5 36.5-25.5 64.5c0 34 16 75 48 123l-5 76h-2c-13.333-24-33.666-45-60.999-63s-60.333-27-99-27c-20.667 0-40.167 3.333-58.5 10s-36 17.5-53 32.5-30.5 37-40.5 66-15 63.5-15 103.5v283h88V217c0-103.333 36-155 108-155 27.333 0 51.333 8 72 24s35.334 35 44.001 57c5.333 12.667 8 27.667 8 45v296h88z"/><glyph glyph-name="Wcircumflex" unicode="Ŵ" horiz-adv-x="846" d="M277 0l-91-.001-171 674h92l80-341c20.667-87.333 37.334-165 50.001-233h2c7.333 45.333 25.666 123.333 54.999 234l90 340h91l82-342c24-100 39.667-177 47-231h2c8.667 46.667 26.667 124.334 54 233.001l89 340h89L647 0h-91l-85 351c-21.333 88.667-36 162-44 220h-2c-10-60.667-27.333-134-52-220zm113 823.999h67l105-114h-74l-63 69h-2l-64-69h-71z"/><glyph glyph-name="wcircumflex" unicode="ŵ" horiz-adv-x="736" d="M18 484l90 .001 65-246c19.333-80 31-131.333 35-154h3c7.333 32.667 21.666 83.667 42.999 153l79 247h74l75-242c18-58.667 32.333-111.334 43-158.001h3c6.667 40 19 92.333 37 157l69 243h87l-156-484h-80l-74 231C391.666 291.667 377.333 344.667 368 390h-2c-9.333-46-24-99.333-44-160L244 0h-80zm319 209.001h60l96-143h-67l-58 94h-2l-58-94h-66z"/><glyph glyph-name="Ycircumflex" unicode="Ŷ" horiz-adv-x="541" d="M314 0h-88v286L12 674h100l95-186 67-139h2c8 18.667 30.667 65 68 139l97 186h98L314 287V0zm-78 824h67l105-114h-74l-63 69h-2l-64-69h-71z"/><glyph glyph-name="ycircumflex" unicode="ŷ" horiz-adv-x="471" d="M9 484h95.997l105-286c12-31.333 22.667-64.333 32-99h2c.667 2 4.834 15.833 12.501 41.5S270.332 186 275 200l96 284h93L332 139c-32.667-85.333-61.167-150.666-85.5-195.999s-51.166-81-80.499-107C129.333-194.666 93.333-213.333 58-220l-22 73c28 8.667 53.667 23 77 43 30 23.333 54.667 56 74 98 4.667 10.667 7 17.667 7 21 0 5.333-2.333 13-7 23zm196.997 209h61l96-143h-67l-58 94h-2l-58-94h-66z"/><glyph glyph-name="Ydieresis" unicode="Ÿ" horiz-adv-x="541" d="M314 0h-88v286L12 674h100l95-186 67-139h2c8 18.667 30.667 65 68 139l97 186h98L314 287V0zM186 714c-14 0-25.5 5.001-34.5 15.001s-13.5 22-13.5 36 4.667 25.833 14 35.5 21 14.5 35 14.5 25.5-4.833 34.5-14.5 13.5-21.5 13.5-35.5c0-14.667-4.5-26.834-13.5-36.501S200.667 714 186 714zm185 .001c-14 0-25.5 5.001-34.5 15.001s-13.5 22-13.5 36 4.833 25.833 14.5 35.5 21.5 14.5 35.5 14.5 25.5-4.833 34.5-14.5 13.5-21.5 13.5-35.5c0-14.667-4.5-26.834-13.5-36.501s-21.167-14.5-36.5-14.5z"/><glyph glyph-name="Zacute" unicode="Ź" horiz-adv-x="553" d="M30 0v51l373 547v3H62v73h455v-53L145 76v-3h377V0H30zm295 827h106L303 710h-71z"/><glyph glyph-name="zacute" unicode="ź" horiz-adv-x="428" d="M18 0l.002 51 218 285c5.333 6.667 26.666 32 63.999 76v2h-262v70h368v-55l-216-281C161.334 111.333 140.667 86 128 72v-2h282V0H18zm242.002 693h97l-122-143h-62z"/><glyph glyph-name="Zdotaccent" unicode="Ż" horiz-adv-x="553" d="M30 0v51l373 547v3H62v73h455v-53L145 76v-3h377V0H30zm250 720c-14 0-25.666 5-34.999 15s-14 22-14 36c0 13.333 4.833 25 14.5 35s21.5 15 35.5 15c13.333 0 24.666-5 33.999-15s14-21.667 14-35c0-14-4.667-26-14-36s-21-15-35-15z"/><glyph glyph-name="zdotaccent" unicode="ż" horiz-adv-x="428" d="M18 0l.002 51 218 285c5.333 6.667 26.666 32 63.999 76v2h-262v70h368v-55l-216-281C161.334 111.333 140.667 86 128 72v-2h282V0H18zm198.002 570c-14 0-25.833 5-35.5 15s-14.5 22-14.5 36c0 14.667 5 27 15 37s22 15 36 15 25.667-5 35-15 14-22.333 14-37c0-14-4.667-26-14-36s-21.333-15-36-15z"/><glyph glyph-name="Zcaron" unicode="Ž" horiz-adv-x="553" d="M30 0v51l373 547v3H62v73h455v-53L145 76v-3h377V0H30zm290 710h-66L149 824h74l64-69h2l63 69h71z"/><glyph glyph-name="zcaron" unicode="ž" horiz-adv-x="428" d="M18 0l.002 51 218 285c5.333 6.667 26.666 32 63.999 76v2h-262v70h368v-55l-216-281C161.334 111.333 140.667 86 128 72v-2h282V0H18zm241.002 550h-63l-96 143h67l59-95h2l59 95h66z"/><glyph glyph-name="florin" unicode="ƒ" horiz-adv-x="513" d="M111 338l.001 63.999h99l6 46c3.333 27.333 8.833 52.5 16.5 75.5s18.5 45.333 32.5 67 33.167 38.834 57.5 51.501 52.5 19 84.5 19c29.333-.667 52-5.667 68-15l-16-64c-16.667 6.667-34 10-52 10-32 0-56.5-13-73.5-39s-27.833-59.333-32.5-100l-6-51h120v-64h-128l-24-204c-8.667-70.667-26-124.667-52-162s-66.667-56-122-56c-32.667 0-58.667 5.667-78 17l16 62c15.333-7.333 34-11 56-11 29.333 0 51.166 12.667 65.499 38s24.833 65 31.5 119l23 197h-92z"/><glyph glyph-name="Ohorn" unicode="Ơ" horiz-adv-x="689" d="M344 60c66.667 0 119.333 26.667 158 80s58 120 58 200c0 74-18.833 138.333-56.5 193S413 615 345 615c-68.667 0-122-27.333-160-82s-57-121-57-199c0-75.333 19.5-139.833 58.5-193.5S278 60 344 60zm247.999 681L660 754c12.667-28 19-55.333 19-82 0-29.333-8.833-52.333-26.5-69s-43.834-23.667-78.501-21c52-58.667 78-138 78-238 0-111.333-29.667-198.333-89-261s-134-94-224-94C249.666-11 176.833 20.667 120.5 84S36 230 36 332c0 106 29.167 191.5 87.5 256.5S256.666 686 347.999 686c38.667 0 73.667-6 105-18 6.667-2 17.834-6.333 33.501-13s30.167-12.167 43.5-16.5 24.666-6.5 33.999-6.5c30 0 45 15 45 45 0 22-5.667 43.333-17 64z"/><glyph glyph-name="ohorn" unicode="ơ" horiz-adv-x="553" d="M276 428c-48 0-84.668-18.502-110.001-55.502s-38-80.833-38-131.5c0-53.333 13.667-97.666 41-132.999s62.333-53 105-53c42 0 77 17.833 105 53.5s42.333 80.834 43 135.501c0 21.333-2.833 42.5-8.5 63.5s-14 40.833-25 59.5-26.167 33.5-45.5 44.5S301.333 428 276 428zm193.999 124.998l66.999 12.001c11.333-22.667 17-47 17-73 0-27.333-8-48.833-24-64.5s-39-22.834-69-21.501c33.333-42.667 50-96 50-160 0-83.333-24-147-72-191s-104.333-66-169-66c-66.667 0-122 22.833-166 68.5s-66 105.834-66 180.501c0 78 22.833 140.167 68.5 186.5s102.834 69.5 171.501 69.5c26 0 53.667-4.333 83-13 5.333-1.333 13.5-4.5 24.5-9.5s21.5-9 31.5-12 19.667-4.5 29-4.5c26 0 39.667 13.333 41 40 0 19.333-5.667 38.666-17 57.999z"/><glyph glyph-name="Uhorn" unicode="Ư" horiz-adv-x="677" d="M593 770l66.998 12.002c11.333-24.667 17-49.667 17-75s-7.667-45.666-23-60.999-37.666-23.333-66.999-24l-15-1v-341c0-98.667-23.167-171.834-69.5-219.501S394.333-10.998 317-10.998c-74 0-132.833 23.167-176.5 69.5S75 177.668 75 277.001v397h88v-400c0-72 14.333-125.667 43-161s66.667-53 114-53c51.333 0 91.5 17.667 120.5 53s43.5 89 43.5 161v400h79c16.667 0 28.5 3 35.5 9s10.5 15.667 10.5 29c0 19.333-5.333 38.666-16 57.999z"/><glyph glyph-name="uhorn" unicode="ư" horiz-adv-x="551" d="M489 581l66.998 11.999c12-22.667 18-46.667 18-72 0-24.667-8-44.667-24-60s-36.333-23.666-61-24.999h-11V132c0-54 1.333-98 4-132h-78l-5 79h-2c-13.333-24-33.666-45-60.999-63s-60.333-27-99-27c-20.667 0-40.167 3.333-58.5 10s-36 17.5-53 32.5-30.5 37-40.5 66-15 63.5-15 103.5v283h88V216c0-102.667 36-154 108-154 27.333 0 51.333 8 72 24s35.334 35 44.001 57c5.333 12.667 8 27.667 8 45v296h70c31.333 0 47 13.333 47 40 0 18.667-6 37.667-18 57z"/><glyph glyph-name="Aringacute" unicode="Ǻ" horiz-adv-x="612" d="M312 692c-28 0-50.168 7.333-66.501 22s-24.5 33-24.5 55 8.333 40.667 25 56 39 23 67 23c27.333 0 49-7.5 65-22.5s24-33.833 24-56.5-8.167-41.167-24.5-55.5S339.333 692 312 692zm-1.001 37c13.333 0 24.167 3.667 32.5 11s12.5 17.333 12.5 30c0 12-4.167 22-12.5 30s-19.5 12-33.5 12c-13.333 0-23.833-4.167-31.5-12.5s-11.5-18.5-11.5-30.5c0-11.333 4.167-20.833 12.5-28.5s18.833-11.5 31.5-11.5zM366 952h114l-143-86h-78zm59-740H185L115 0H25l229 674h106L590 0h-93zm-222 68h203.999l-67 194c-9.333 27.333-21 68.333-35 123h-2C287.666 537 276.333 496.333 269 475z"/><glyph glyph-name="aringacute" unicode="ǻ" horiz-adv-x="482" d="M297 834h97L252 728h-62zm116-537l.002-180.998c0-46.667 2.333-85.334 7-116.001h-79l-8 61h-3c-14-20.667-33.833-37.834-59.5-51.501S215.668-11 183.001-11c-46.667 0-83 13.667-109 41s-39 60-39 98c0 58.667 25.167 103.5 75.5 134.5S232.667 308.667 326 308v10c0 12-1.167 23.5-3.5 34.5s-7 22.833-14 35.5-18.333 22.667-34 30-35.167 11-58.5 11c-48.667 0-90.667-12-126-36l-20 59c44.667 28 97.667 42 159 42 67.333 0 114.833-18.667 142.5-56S413 353.667 413 297zm-84.998-133.998l-1 83.997c-136 2.667-204-33.666-204-108.999 0-27.333 7.833-48.166 23.5-62.499s35.5-21.5 59.5-21.5c29.333 0 54.333 7.833 75 23.5s35 34.834 43 57.501c2.667 8 4 17.333 4 28zm-87 356.997c-29.333 0-53.5 8.667-72.5 26s-28.5 39-28.5 65c0 27.333 9.333 49.833 28 67.5s43.334 26.5 74.001 26.5c29.333 0 53.166-8.833 71.499-26.5s27.5-40.167 27.5-67.5c0-26-9.667-47.667-29-65s-43-26-71-26zm-1 37c15.333 0 27.834 5.333 37.501 16s14.5 23.667 14.5 39c0 16-4.833 29.333-14.5 40s-22.5 16-38.5 16c-14.667 0-26.334-5.5-35.001-16.5s-13-24.5-13-40.5c0-14 4.667-26.5 14-37.5s21-16.5 35-16.5z"/><glyph glyph-name="AEacute" unicode="Ǽ" horiz-adv-x="788" d="M89 0H-1l308 674h422l-1-73H442l26-215h251v-72H479l30-241h247l-1-73H434l-30 237H197zm137 308l168 .001-22 194c-6.667 53.333-10.667 89.666-12 108.999h-4c-6.667-18.667-21-54-43-106zm262 519.001h107l-128-117h-71z"/><glyph glyph-name="aeacute" unicode="ǽ" horiz-adv-x="773" d="M734 233l-325.003-.003c-1.333-56 12.334-99.333 41.001-130s66.667-46 114-46c49.333 0 93.333 9 132 27l16-62c-42-22-95-33-159-33-42.667 0-80.5 9.333-113.5 28s-56.5 45-70.5 79h-3c-15.333-33.333-38.666-59.5-69.999-78.5s-67.666-28.5-108.999-28.5c-48 0-85.167 13.5-111.5 40.5s-39.5 59.5-39.5 97.5c0 56.667 25.333 100.334 76 131.001S234.334 303.332 327.001 302v20c0 8-1.333 17.167-4 27.5s-7.5 21.833-14.5 34.5-18.667 23.334-35 32.001-35.833 13-58.5 13c-48 0-89.333-12-124-36l-21 57c45.333 29.333 95.666 44 150.999 44 82 0 134-34 156-102h2c16 32 38.667 57 68 75s63 27 101 27c34.667 0 65.167-7.667 91.5-23s46-35 59-59 22.667-47.667 29-71 9.5-46.333 9.5-69c0-17.333-1-30.333-3-39zm-405.003-61.003l.001 70.999c-137.333 2.667-206-33.666-206-108.999 0-24.667 8-44.167 24-58.5s36-21.5 60-21.5c30-.667 55.167 7 75.5 23s34.166 36 41.499 60c3.333 12 5 23.667 5 35zm80.001 123.999l243.997-.001c.667 18.667-2.166 37.834-8.499 57.501s-18.666 37.667-36.999 54-41.166 24.5-68.499 24.5c-40 0-71.167-14.333-93.5-43s-34.5-59.667-36.5-93zm18.997 396.999h97l-122-143h-62z"/><glyph glyph-name="Oslashacute" unicode="Ǿ" horiz-adv-x="689" d="M112-43L63-3l62 87c-59.333 64.667-89 148-89 250 0 105.333 29.333 190.333 88 255s133 97 223 97c64 0 120-18 168-54l59 81 53-36-62-86c58-63.333 87-146 87-248 0-112-29.667-199-89-261S431-11 345-11c-64 0-120.667 18-170 54zm64 201l296 411c-36.667 31.333-79 47-127 47-69.333 0-123.333-27.333-162-82s-58-120-58-196c0-64 16.333-124.333 49-181zm337 358L218.001 107c34-32 76-48 126-48C411.334 59 464.667 86 504 140s59 120.667 59 200c0 65.333-15.667 124-47 176h-3zM392.001 835h106l-128-117h-71z"/><glyph glyph-name="oslashacute" unicode="ǿ" horiz-adv-x="549" d="M277 494c46 0 86.667-11.333 122-34l42 60 39-27-43-63c49.333-47.333 74-109 74-185 0-82.667-23.667-146-71-190S337.667-11 275-11C227.667-11 186.667.333 152 23l-44-61L71-8l42 60c-50 48-75 110.333-75 187 0 78 22.667 140 68 186s102.333 69 171 69zM161 119l197.999 280c-22.667 19.333-51 29-85 29-49.333 0-86.666-18.833-111.999-56.5s-38-81.167-38-130.5c0-48 11.667-88.333 35-121zm227.999 242L191 83c22.667-18.667 49.667-28 81-28 45.333 0 82.166 17.5 110.499 52.5s42.5 79.833 42.5 134.5c0 45.333-11.333 85-34 119h-2zM315 693h96L289 550h-62z"/><glyph glyph-name="Scommaaccent" unicode="Ș" horiz-adv-x="493" d="M42 33l23 73.004c46-29.333 97.667-44 155-44 44 0 78.5 10.5 103.5 31.5s37.5 48.833 37.5 83.5c0 30.667-9.833 56.167-29.5 76.5s-52.167 39.166-97.5 56.499c-118.667 43.333-178 107.333-178 192 0 53.333 20.167 97.166 60.5 131.499s92.833 51.5 157.5 51.5c61.333 0 110.666-11 147.999-33l-24-71c-34.667 21.333-77 32-127 32-42 0-73.667-10.167-95-30.5s-32-43.833-32-70.5c0-30.667 10.167-55.334 30.5-74.001s54.833-37.334 103.5-56.001c58.667-22.667 101.834-49.334 129.501-80.001s41.5-70 41.5-118c0-55.333-20.167-101.666-60.5-139S290-11 214-11c-32 0-64 4.168-96 12.5S60.667 20.334 42 33zm144-254.996l-18 41c50 8 75 29.667 75 65 0 22-11.333 42.333-34 61l65 14c26.667-17.333 40-42 40-74 0-33.333-12.667-59-38-77s-55.333-28-90-30z"/><glyph glyph-name="scommaaccent" unicode="ș" horiz-adv-x="396" d="M40 23l21 66c38-22.667 77-34 117-34 30 0 53 6.667 69 20s24 30.666 24 51.999c0 20.667-6.667 37.5-20 50.5s-36.333 25.5-69 37.5c-86 31.333-129 77-129 137 0 40 15.333 73.667 46 101s71 41 121 41c48 0 87.333-10 118-30l-21-64c-30.667 19.333-63.667 29-99 29-25.333 0-45-6.333-59-19s-21-28.334-21-47.001c0-19.333 6.833-34.666 20.5-45.999S195.667 293.333 229 280c42.667-16 74.5-35.5 95.5-58.5S356 169.667 356 135c0-44-16-79.333-48-106s-76-40-132-40C124-11 78.667.333 40 23zm96-245l-17.001 41.001c50 8 75 29.667 75 65 0 23.333-11.333 43.666-34 60.999l65 14c26.667-17.333 40-42 40-74 0-34-12.667-59.833-38-77.5S171.333-220 136-222z"/><glyph glyph-name="uni021A" unicode="Ț" horiz-adv-x="497" d="M204 0v600H-1v74h499v-74H292V0h-88zm-24-222l-17.001 41c50 8 75 29.667 75 65 0 22-11.333 42.333-34 61l65 14c26.667-17.333 40-42 40-74 0-34-12.667-59.833-38-77.5S215.333-220 180-222z"/><glyph glyph-name="uni021B" unicode="ț" horiz-adv-x="331" d="M93 574l86.001 26.001v-116h126v-67h-126v-261c0-62.667 22-94 66-94 20.667 0 37.667 2 51 6l4-67c-22.667-8-48.667-12-78-12-40.667 0-72.334 12.333-95.001 37C104.333 51.334 93 93.667 93 153v264H18v67h75v90zm29.001-800.999L105-185.998c50 8 75 29.667 75 65 0 23.333-11.333 43.666-34 60.999l65 14c26.667-17.333 40-42 40-74 0-34-12.667-59.833-38-77.5s-55.666-27.5-90.999-29.5z"/><glyph glyph-name="uni021C" unicode="Ȝ" horiz-adv-x="480" d="M63-115L52.001-45.999c83.333 12 153.666 38.833 210.999 80.5s86 90.834 86 147.501c0 38-13.167 69.5-39.5 94.5s-62.166 37.167-107.499 36.5c-27.333 0-58.666-5.667-93.999-17l-12 62c58.667 12.667 106.834 34 144.501 64s56.5 64 56.5 102c0 27.333-10.333 49.333-31 66s-47.334 25.334-80.001 26.001c-45.333 0-91-12-137-36l-18 59c18.667 12 44.167 22.833 76.5 32.5s64.166 14.5 95.499 14.5c54 0 97.833-13.667 131.5-41s50.5-63 50.5-107c0-36-11.5-68.167-34.5-96.5s-52.5-50.833-88.5-67.5v-3c52-4.667 94.833-23.334 128.5-56.001s50.5-75.334 50.5-128.001c0-76.667-34.333-142.834-103-198.501S177.667-101.667 63-115z"/><glyph glyph-name="uni021D" unicode="ȝ" horiz-adv-x="427" d="M43-209l-8.002 67.998c12.667.667 27.334 2.5 44.001 5.5s39.5 8.833 68.5 17.5 54.833 19.5 77.5 32.5 42.5 31 59.5 54 25.5 49.167 25.5 78.5c0 31.333-11 57.333-33 78s-54 31-96 31c-23.333 0-52.666-5-87.999-15l-12 62c122.667 28.667 184 74.667 184 138 0 26.667-9.333 47.334-28 62.001s-44 22-76 22c-35.333 0-76.333-12.667-123-38l-19 58c50.667 32.667 105 49 163 49 50.667 0 91.5-12.5 122.5-37.5s46.5-58.167 46.5-99.5c0-32-9.5-60.167-28.5-84.5S277.667 229.333 245 216v-2c46.667-5.333 84.167-22 112.5-50S400 100.333 400 57c0-68-31.5-127-94.5-177S155-199.667 43-209z"/><glyph glyph-name="uni0232" unicode="Ȳ" horiz-adv-x="541" d="M314 0h-88v286L12 674h100l95-186 67-139h2c8 18.667 30.667 65 68 139l97 186h98L314 287V0zM151 788h240v-55H151v55z"/><glyph glyph-name="uni0233" unicode="ȳ" horiz-adv-x="471" d="M9 484h95.997l105-286c12-31.333 22.667-64.333 32-99h2c.667 2 4.834 15.833 12.501 41.5S270.332 186 275 200l96 284h93L332 139c-32.667-85.333-61.167-150.666-85.5-195.999s-51.166-81-80.499-107C129.333-194.666 93.333-213.333 58-220l-22 73c28 8.667 53.667 23 77 43 30 23.333 54.667 56 74 98 4.667 10.667 7 17.667 7 21 0 5.333-2.333 13-7 23zm114.997 159h225v-57h-225v57z"/><glyph glyph-name="circumflex" unicode="ˆ" d="M119 693h61l96-143h-67l-58 94h-2l-58-94H25z"/><glyph glyph-name="caron" unicode="ˇ" d="M183 550h-63L24 693h67l59-95h2l59 95h66z"/><glyph glyph-name="uni02C9" unicode="ˉ" d="M38 643h225v-57H38v57z"/><glyph glyph-name="breve" unicode="˘" d="M26 682l52.002.002c3.333-20.667 11.166-37.334 23.499-50.001s28.166-19 47.499-19c22.667 0 40 6.667 52 20s19 29.666 21 48.999h52c0-37.333-11.333-67.5-34-90.5S187.333 557 150 557c-41.333 0-72.333 12.167-93 36.5S26 647.333 26 682z"/><glyph glyph-name="dotaccent" unicode="˙" d="M139 570c-14 0-25.833 5-35.5 15S89 607 89 621c0 14.667 5 27 15 37s22 15 36 15 25.667-5 35-15 14-22.333 14-37c0-14-4.667-26-14-36s-21.333-15-36-15z"/><glyph glyph-name="ring" unicode="˚" d="M142 537c-29.333 0-53.5 8.667-72.5 26S41 602 41 628c0 26.667 9.333 49 28 67s43.334 27 74.001 27c29.333 0 53.166-8.833 71.499-26.5S242 655.333 242 628c0-26-9.5-47.667-28.5-65s-42.833-26-71.5-26zm0 37c15.333 0 27.667 5.333 37 16s14 23.667 14 39c0 16-4.833 29.333-14.5 40s-22.167 16-37.5 16-27.333-5.5-36-16.5S92 644 92 628c0-14 4.667-26.5 14-37.5s21.333-16.5 36-16.5z"/><glyph glyph-name="ogonek" unicode="˛" d="M123 4h57.001c-35.333-44.667-53-78-53-100 0-15.333 4.5-27.5 13.5-36.5s21.167-13.5 36.5-13.5c17.333 0 32.666 3.333 45.999 10l14-46c-21.333-15.333-48-23-80-23-28.667 0-51.5 7.5-68.5 22.5S63-146.333 63-119c0 38.667 20 79.667 60 123z"/><glyph glyph-name="tilde" unicode="˜" d="M75 567H27.002c-.667 32 5 57.333 17 76s29 28 51 28c13.333 0 34-7.333 62-22 20-11.333 34.333-17 43-17 16 0 25 14 27 42h47c1.333-67.333-21.334-101-68.001-101-14.667 0-35.334 7-62.001 21-20 12-34.333 18-43 18-15.333 0-24-15-26-45z"/><glyph glyph-name="hungarumlaut" unicode="˝" d="M123 693h86L99 557H44zm144 0h86L243 557h-55z"/><glyph glyph-name="uni037E" unicode=";" horiz-adv-x="217" d="M92-116l-61.999-7c24.667 87.333 40 166.333 46 237l97 5c-8-36.667-20.333-78.5-37-125.5S104.667-90 92-116zm26.001 439c-18 0-32.668 6.333-44.001 19s-17 28.334-17 47.001c0 19.333 5.833 35.166 17.5 47.499s26.834 18.5 45.501 18.5 33.667-6.167 45-18.5 17-28.166 17-47.499c0-18.667-5.833-34.334-17.5-47.001s-27.167-19-46.5-19z"/><glyph glyph-name="tonos" unicode="΄" horiz-adv-x="301" d="M137 694h89l-83-143H84z"/><glyph glyph-name="dieresistonos" unicode="΅" horiz-adv-x="346" d="M152 710h76l-49-157h-48zM50 573c-13.333 0-24.333 4.667-33 14S4 607.333 4 620c0 13.333 4.667 24.666 14 33.999s20.666 14 33.999 14c12.667 0 23.334-4.667 32.001-14S97 633.333 97 620c0-12.667-4.5-23.667-13.5-33S63.333 573 50 573zm241 0c-12.667 0-23.333 4.667-32 14s-13 20.333-13 33c0 13.333 4.5 24.666 13.5 33.999s20.167 14 33.5 14c12.667 0 23.5-4.667 32.5-14S339 633.333 339 620c0-12.667-4.5-23.667-13.5-33S305 573 291 573z"/><glyph glyph-name="Alphatonos" unicode="Ά" horiz-adv-x="615" d="M427 212H189L119 0H29l229 674h105L593 0h-93zm-221 68l204 .001-67 194c-12 37.333-23.667 78.333-35 123h-2C290 534.334 279 493.667 273 475zM70 674.001h79l-34-155H63z"/><glyph glyph-name="anoteleia" unicode="·" horiz-adv-x="217" d="M107 251c-18 0-33 6.501-45 19.501s-18 28.833-18 47.5c0 20 6 36.5 18 49.5s27.333 19.5 46 19.5c19.333 0 34.833-6.333 46.5-19S172 338.667 172 318c0-19.333-6-35.333-18-48s-27.667-19-47-19z"/><glyph glyph-name="Epsilontonos" unicode="Έ" horiz-adv-x="561" d="M494 388v-72H233V73h292V0H145v674h365v-73H233V388h261zM7 674h80L52 519H0z"/><glyph glyph-name="Etatonos" unicode="Ή" horiz-adv-x="722" d="M145 674h87V392h326v282h88V0h-88v316H232V0h-87v674zM7 674h79L52 519H0z"/><glyph glyph-name="Iotatonos" unicode="Ί" horiz-adv-x="309" d="M145 674h88V0h-88v674zM7 674h80L52 519H0z"/><glyph glyph-name="Omicrontonos" unicode="Ό" horiz-adv-x="728" d="M379-11c-89.333 0-162.166 31.666-218.499 94.999s-84.5 146-84.5 248c0 106 29.167 191.5 87.5 256.5s133.166 97.5 224.499 97.5c92 0 165.667-31.667 221-95S692 445.333 692 344c0-111.333-29.667-198.333-89-261S469-11 379-11zm5 70.999c66.667 0 119.333 26.667 158 80s58 120 58 200c0 74-18.833 138.333-56.5 193s-90.5 82-158.5 82c-68.667 0-122-27.333-160-82s-57-121-57-199c0-75.333 19.5-139.833 58.5-193.5s91.5-80.5 157.5-80.5zm-377.001 614h80l-35-155h-52z"/><glyph glyph-name="Upsilontonos" unicode="Ύ" horiz-adv-x="707" d="M128 609l15.001 70.998c25.333-2 53.666-11.333 84.999-28s58-37.667 80-63c56.667-63.333 91.334-145.666 104.001-246.999h4c14 94 53 175.667 117 245 23.333 24.667 49 45.5 77 62.5s53.333 27.167 76 30.5l15-71c-44-16.667-88.333-50.667-133-102S490.667 390.333 470 311c-12-48-18-94-18-138V0h-88v174c0 48-4.667 93.333-14 136-18.667 86-48.5 154.667-89.5 206s-85.167 82.333-132.5 93zM7.001 673.998h79l-34-155h-52z"/><glyph glyph-name="Omegatonos" unicode="Ώ" horiz-adv-x="742" d="M565 72l.001-3h146V0h-253v55c44 29.333 80 69.5 108 120.5s42 109.5 42 175.5c0 68-19.333 129-58 183S458.667 615 392 615c-67.333 0-121-26.333-161-79s-60-114.667-60-186c0-62.667 14.5-121 43.5-175S278.667 81 320 55V0H66v69h146v3c-38 31.333-69.5 71.5-94.5 120.5S80 296.333 80 357c0 96 29.833 174.833 89.5 236.5S304 686 394 686c91.333 0 164.833-30.5 220.5-91.5S698 457.333 698 366c0-64.667-12.667-122.167-38-172.5S603 102.667 565 72zM7.001 674h80l-35-155h-52z"/><glyph glyph-name="iotadieresistonos" unicode="ΐ" horiz-adv-x="236" d="M161 484l.001-366.999c0-22.667 3.167-38.334 9.5-47.001s18.833-12.667 37.5-12l-6-64c-10-3.333-22.667-5-38-5-28.667 0-50.834 8.667-66.501 26S74 63.333 74 108v376h87zm-53.999 212.001h75l-49-156h-47zm-103-136c-12.667 0-23.333 4.667-32 14s-13 20.333-13 33 4.667 23.5 14 32.5 20.333 13.5 33 13.5 23.167-4.333 31.5-13 12.5-19.667 12.5-33c0-12.667-4.333-23.667-13-33s-19.667-14-33-14zm241.001 0c-12 0-22.334 4.667-31.001 14s-13 20.333-13 33 4.5 23.5 13.5 32.5 19.833 13.5 32.5 13.5 23.334-4.333 32.001-13 13-19.667 13-33c0-12.667-4.333-23.667-13-33s-20-14-34-14z"/><glyph glyph-name="Alpha" unicode="Α" horiz-adv-x="612" d="M424 212H185L115 0H25l230 674h104L589 0h-93zm-221 68h203.999l-67 194c-9.333 27.333-21 68.333-35 123h-2C287.666 537 276.333 496.333 269 475z"/><glyph glyph-name="Beta" unicode="Β" horiz-adv-x="542" d="M76 2v662.003c42 10 95 15 159 15 83.333 0 144.666-16.333 183.999-49 38-28 57-67.667 57-119 0-32.667-10.167-62.334-30.5-89.001S397.333 375.668 362 363.001v-3c37.333-8.667 69.833-27.334 97.5-56.001S501 238 501 192c0-54.667-19.333-99.667-58-135C398.333 15 321-6 211-6c-51.333 0-96.333 2.667-135 8zm87 604.003l.001-217.999h79c44.667 0 80 10.667 106 32s39 48.666 39 81.999c0 73.333-49 110-147 110-32.667 0-58.334-2-77.001-6zm.001-282.999l.001-257c16-2.667 40.333-4 73-4 50 0 91.333 10.5 124 31.5s49 54.167 49 99.5c0 43.333-16.333 75.833-49 97.5s-74.334 32.5-125.001 32.5h-72z"/><glyph glyph-name="Gamma" unicode="Γ" horiz-adv-x="451" d="M75 674h362v-73H163V0H75v674z"/><glyph glyph-name="uni0394" unicode="Δ" horiz-adv-x="620" d="M26 0v50l234 624h99L591 50V0H26zm93 73h375L357 444c-24 66-40.667 116-50 150h-3c-6-23.333-20.667-69-44-137z"/><glyph glyph-name="Epsilon" unicode="Ε" horiz-adv-x="492" d="M424 388v-72H163V73h292V0H75v674h365v-73H163V388h261z"/><glyph glyph-name="Zeta" unicode="Ζ" horiz-adv-x="553" d="M30 0v51l373 547v3H62v73h455v-53L145 76v-3h377V0H30z"/><glyph glyph-name="Eta" unicode="Η" horiz-adv-x="652" d="M75 674h88V392h326v282h88V0h-88v316H163V0H75v674z"/><glyph glyph-name="Theta" unicode="Θ" horiz-adv-x="689" d="M340-11c-90 0-163.167 31.501-219.5 94.501S36 229.001 36 331.001c0 106 29.333 191.667 88 257s133.667 98 225 98 164.833-31.667 220.5-95 83.5-146 83.5-248C653 232.334 623.333 145.667 564 83S430-11 340-11zm5 71.001c66.667 0 119.333 26.669 158 80.002s58 120 58 200c0 74-18.833 138.333-56.5 193s-90.5 82-158.5 82c-69.333 0-123-27.333-161-82s-57-121.334-57-200.001c0-74.667 19.667-138.834 59-192.501s92-80.5 158-80.5zM208.999 383.003h271v-72h-271v72z"/><glyph glyph-name="Iota" unicode="Ι" horiz-adv-x="239" d="M75 674h88V0H75v674z"/><glyph glyph-name="Kappa" unicode="Κ" horiz-adv-x="542" d="M76 0v674h87V349h3c15.333 22 33 46 53 72l206 253h108L289 388 552 0H449L228 331l-65-74V0H76z"/><glyph glyph-name="Lambda" unicode="Λ" horiz-adv-x="609" d="M590 0l-93.999-.001-156 464c-10.667 33.333-22.334 76-35.001 128h-3c-8-37.333-19-79.666-33-126.999L116 0H25l230 674h103z"/><glyph glyph-name="Mu" unicode="Μ" horiz-adv-x="804" d="M660 0l-16.001 296c-7.333 138-11 235-11 291h-2c-30.667-98.667-59-184-85-256l-119-327h-66l-110 321c-34 102.667-59.667 190-77 262h-2c-2-86-6.333-185.333-13-298l-18-289h-83l47 674h111l115-326c26.667-80 49.334-155.667 68.001-227h2c16 61.333 40 137 72 227l120 326h111L746 0h-86z"/><glyph glyph-name="Nu" unicode="Ν" horiz-adv-x="658" d="M158 0L76 .001v674h96l215-341c52-84 92-157 120-219l3 1c-6.667 75.333-10 167.666-10 276.999v282h82V0h-88L280 342c-56 88.667-97.667 163.667-125 225l-3-1c4-68 6-160.667 6-278V0z"/><glyph glyph-name="Xi" unicode="Ξ" horiz-adv-x="540" d="M54 674h440v-72H54v72zm33-289h374v-72H87v72zM43 73h462V0H43v73z"/><glyph glyph-name="Omicron" unicode="Ο" horiz-adv-x="689" d="M339-11c-89.333 0-162.166 31.666-218.499 94.999s-84.5 146-84.5 248c0 106 29.167 191.5 87.5 256.5s133.166 97.5 224.499 97.5c92 0 165.667-31.667 221-95S652 445.333 652 344c0-111.333-29.667-198.333-89-261S429-11 339-11zm5 70.999c66.667 0 119.333 26.667 158 80s58 120 58 200c0 74-18.833 138.333-56.5 193s-90.5 82-158.5 82c-68.667 0-122-27.333-160-82s-57-121-57-199c0-75.333 19.5-139.833 58.5-193.5s91.5-80.5 157.5-80.5z"/><glyph glyph-name="Pi" unicode="Π" horiz-adv-x="634" d="M558 674V0h-88v600H163V0H75v674h483z"/><glyph glyph-name="Rho" unicode="Ρ" horiz-adv-x="532" d="M76 0v666c52 8.667 107.667 13 167 13 84.667 0 147.667-18.667 189-56 39.333-34.667 59-81.667 59-141 0-60-17.333-108-52-144-47.333-49.333-116-74-206-74-30.667 0-54 2-70 6V0H76zm87 603l-.002-262c18-4.667 42-7 72-7 52.667 0 94 12.5 124 37.5s45 60.167 45 105.5c0 44-14.167 77.167-42.5 99.5S294.332 610 244.999 610c-37.333 0-64.666-2.333-81.999-7z"/><glyph glyph-name="Sigma" unicode="Σ" horiz-adv-x="552" d="M140 76v-3h384V0H26v52l234 283L38 616v58h454v-72H151v-4l206-260z"/><glyph glyph-name="Tau" unicode="Τ" horiz-adv-x="497" d="M204 0v600H-1v74h499v-74H292V0h-88z"/><glyph glyph-name="Upsilon" unicode="Υ" horiz-adv-x="588" d="M11 609l15.001 70.998c25.333-2 53.666-11.333 84.999-28s58-37.667 80-63c56.667-63.333 91.334-145.666 104.001-246.999h4c14 94 53 175.667 117 245 23.333 24.667 49 45.5 77 62.5s53.333 27.167 76 30.5l15-71c-44-16.667-88.333-50.667-133-102S373.667 390.333 353 311c-12-48-18-94-18-138V0h-88v174c0 48-4.667 93.333-14 136-18.667 86-48.5 154.667-89.5 206S58.333 598.333 11 609z"/><glyph glyph-name="Phi" unicode="Φ" horiz-adv-x="718" d="M400 26l.001-51.999h-84v52c-76.667 6.667-142.5 36.167-197.5 88.5S36.001 239.667 36.001 333c0 49.333 8.5 94.333 25.5 135s39.5 73.5 67.5 98.5 58.167 44.5 90.5 58.5 65.166 22.333 98.499 25v50h84v-50c76-5.333 141.667-35.333 197-90s83-128.667 83-222c0-48-8-91.667-24-131s-37.5-71.5-64.5-96.5-57-44.667-90-59S436 28.667 400 26zm-82.999 63.001v499.001c-48.667-4-92.667-28.333-132-73s-59-104.667-59-180c0-70 18.667-126.833 56-170.5s82.333-68.834 135-75.501zm84 499.001V89c52 4.667 96.833 28.834 134.5 72.501s56.5 101.834 56.5 174.501c0 75.333-18.833 135-56.5 179s-82.5 68.333-134.5 73z"/><glyph glyph-name="Chi" unicode="Χ" horiz-adv-x="571" d="M546 0L445 .002l-87 149c-29.333 47.333-55 91.666-77 132.999h-2c-20-40.667-44.333-85.334-73-134.001L125 0H25l206 341L33 674h101l89-158c28-48.667 48.667-86.667 62-114h3c16 33.333 36.333 71.333 61 114l91 158h101L336 346z"/><glyph glyph-name="Psi" unicode="Ψ" horiz-adv-x="685" d="M638 674l-.001-194.999c0-84.667-23-150.334-69-197.001s-107.667-72-185-76V0h-83v206c-34 1.333-65.667 6.833-95 16.5s-56.166 24-80.499 43S82 310 68 342s-21 69.333-21 112v220h85V469c0-123.333 56.333-188 169-194v399h83V274c49.333 2.667 89.833 21 121.5 55S553 416 553 488v186h85z"/><glyph glyph-name="uni03A9" unicode="Ω" horiz-adv-x="705" d="M528 72l.001-2.998h147v-69h-253v55c43.333 29.333 79 70.166 107 122.499s42 110.833 42 175.5c0 68-19.333 128.667-58 182S421.667 615 355 615c-67.333 0-121-26.333-161-79s-60-114.333-60-185c0-60.667 14.667-118.667 44-174s64.666-96 105.999-122V0h-254v69h146v3C138.666 103.333 107.333 143.833 82 193.5S43.667 298 43 358c0 96 29.833 174.667 89.5 236S267 686 357 686c91.333 0 164.833-30.333 220.5-91S661 458.333 661 367c0-64-12.667-121-38-171s-57-91.333-95-124z"/><glyph glyph-name="Iotadieresis" unicode="Ϊ" horiz-adv-x="239" d="M27 711c-14 0-25.666 4.833-34.999 14.5s-14 21.5-14 35.5c0 13.333 4.833 25 14.5 35s21.5 15 35.5 15c13.333 0 24.666-4.833 33.999-14.5S76 775 76 761s-4.5-25.833-13.5-35.5S41.667 711 27 711zm183.001 0c-14 0-25.499 4.833-34.499 14.5s-13.5 21.5-13.5 35.5 4.833 25.833 14.5 35.5 21.5 14.5 35.5 14.5c13.333 0 24.666-4.833 33.999-14.5s14-21.5 14-35.5-4.5-25.833-13.5-35.5-21.167-14.5-36.5-14.5zM75.002 674h88V0h-88v674z"/><glyph glyph-name="Upsilondieresis" unicode="Ϋ" horiz-adv-x="588" d="M206 697c-14 0-25.666 4.833-34.999 14.5s-14 21.5-14 35.5c0 13.333 4.833 25 14.5 35s21.5 15 35.5 15c13.333 0 24.666-4.833 33.999-14.5s14-21.5 14-35.5-4.5-25.833-13.5-35.5S220.667 697 206 697zm183.001 0c-14 0-25.499 4.833-34.499 14.5s-13.5 21.5-13.5 35.5 4.833 25.833 14.5 35.5 21.5 14.5 35.5 14.5c13.333 0 24.666-4.833 33.999-14.5s14-21.5 14-35.5-4.5-25.833-13.5-35.5-21.167-14.5-36.5-14.5zM11.002 609l15.001 70.998c25.333-2 53.666-11.333 84.999-28s58-37.667 80-63c56.667-63.333 91.334-145.666 104.001-246.999h4c14 94 53 175.667 117 245 23.333 24.667 49 45.5 77 62.5s53.333 27.167 76 30.5l15-71c-44-16.667-88.333-50.667-133-102S373.669 390.333 353.002 311c-12-48-18-94-18-138V0h-88v174c0 48-4.667 93.333-14 136-18.667 86-48.5 154.667-89.5 206s-85.167 82.333-132.5 93z"/><glyph glyph-name="alphatonos" unicode="ά" horiz-adv-x="551" d="M286 686h88l-83-143h-59zm130-202h73.002c-8.667-88.667-13-204.334-13-347.001 0-28.667 3.667-49.167 11-61.5s19.666-18.833 36.999-19.5l-7-63c-6-2.667-16-4-30-4-50.667 0-78.334 34-83.001 102h-3c-36.667-68-91.667-102-165-102-58 0-105.5 22.333-142.5 67S38 159.333 38 232c0 76.667 21.5 139.5 64.5 188.5S196 494 254 494c71.333 0 121-31.667 149-95h4c2 32 5 60.333 9 85zM127.002 235l.001-2.001c0-47.333 11.833-88.166 35.5-122.499s55.5-51.5 95.5-51.5c29.333 0 56.166 12.167 80.499 36.5s40.5 52.833 48.5 85.5c4 17.333 6 40 6 68 0 24-1.333 41.667-4 53-6 34-20.5 63-43.5 87s-49.833 36-80.5 36c-40 0-73-18-99-54s-39-81.333-39-136z"/><glyph glyph-name="epsilontonos" unicode="έ" horiz-adv-x="440" d="M257 686h88l-83-143h-59zm-98-429l-.001 3.999c-62.667 14-94.667 48.333-96 103 0 34.667 17 65 51 91s81.333 39 142 39c61.333 0 110.333-12.333 147-37l-19-58c-11.333 8-28.666 15.167-51.999 21.5s-46.333 9.5-69 9.5c-34 0-61.167-6.667-81.5-20S151 379.333 151 358c0-23.333 12.333-40.833 37-52.5s57.334-17.5 98.001-17.5h59v-62h-62c-46 0-82.833-6.833-110.5-20.5s-41.5-34.5-41.5-62.5c0-27.333 12.5-48.666 37.5-63.999s56.167-23 93.5-23c24.667 0 50.5 3.667 77.5 11s48.5 15.666 64.5 24.999l16-59c-18.667-12.667-44.5-23.167-77.5-31.5S276.334-11 243.001-11c-56 0-104 12-144 36s-60 61-60 111c0 29.333 11.167 55.333 33.5 78s51.166 37 86.499 43z"/><glyph glyph-name="etatonos" unicode="ή" horiz-adv-x="555" d="M301 686h89l-84-143h-58zM152 404l1.999-.002c13.333 25.333 34 46.666 62 63.999s60.667 26 98 26c18.667 0 37.167-3.167 55.5-9.5s36.5-16.666 54.5-30.999 32.667-35.666 44-63.999 17-62.166 17-101.499V-18c0-90.667 3.667-150.667 11-180h-84c-10 24.667-15 83.667-15 177v300c0 42.667-9 77.167-27 103.5s-46.333 39.5-85 39.5c-27.333 0-51.666-8.667-72.999-26s-36.333-38.666-45-63.999c-4-10-6-23.333-6-40v-292H73v353c0 59.333-4.667 103-14 131h79c9.333-18.667 14-45.334 14-80.001z"/><glyph glyph-name="iotatonos" unicode="ί" horiz-adv-x="236" d="M133 686h90l-84-143H80zm28-202V117.001c0-22.667 3.167-38.334 9.5-47.001s18.833-12.667 37.5-12l-5-64c-10-3.333-23-5-39-5-28.667 0-51 8.667-67 26s-24 48.333-24 93v376h88z"/><glyph glyph-name="upsilondieresistonos" unicode="ΰ" horiz-adv-x="524" d="M359 484l83-.002c9.333-17.333 17.666-43.833 24.999-79.5s11-72.167 11-109.5c0-38.667-3.5-74.834-10.5-108.501s-18.333-66-34-97-38.5-55.5-68.5-73.5-66-27-108-27c-56 0-101.667 16.667-137 50s-53 82-53 146v136c0 86.667-3.667 141-11 163h84c9.333-10.667 14-40.667 14-90v-197c0-45.333 10.833-79.166 32.5-101.499s47.5-33.5 77.5-33.5c41.333 0 73 19.833 95 59.5s33 94.834 33 165.501c0 40.667-3.667 79.834-11 117.501S366.333 468.667 359 484zM242 694.998h75l-49-156h-47zm-103-135c-12.667 0-23.333 4.5-32 13.5s-13 19.833-13 32.5 4.5 23.5 13.5 32.5 20.167 13.5 33.5 13.5c12.667 0 23.167-4.333 31.5-13s12.5-19.667 12.5-33c0-12.667-4.333-23.5-13-32.5s-19.667-13.5-33-13.5zm242.001 0c-12.667 0-23.168 4.5-31.501 13.5s-12.5 19.833-12.5 32.5c0 13.333 4.5 24.333 13.5 33s19.833 13 32.5 13 23.334-4.333 32.001-13 13-19.667 13-33c0-12.667-4.333-23.5-13-32.5s-20-13.5-34-13.5z"/><glyph glyph-name="alpha" unicode="α" horiz-adv-x="551" d="M416 484h73.002c-8.667-88.667-13-204.334-13-347.001 0-28.667 3.667-49.167 11-61.5s19.666-18.833 36.999-19.5l-7-63c-6-2.667-16-4-30-4-50.667 0-78.334 34-83.001 102h-3c-36.667-68-91.667-102-165-102-58 0-105.5 22.333-142.5 67S38 159.333 38 232c0 76.667 21.5 139.5 64.5 188.5S196 494 254 494c71.333 0 121-31.667 149-95h4c2 32 5 60.333 9 85zM127.002 235l.001-2.001c0-47.333 11.833-88.166 35.5-122.499s55.5-51.5 95.5-51.5c29.333 0 56.166 12.167 80.499 36.5s40.5 52.833 48.5 85.5c4 17.333 6 40 6 68 0 24-1.333 41.667-4 53-6 34-20.5 63-43.5 87s-49.833 36-80.5 36c-40 0-73-18-99-54s-39-81.333-39-136z"/><glyph glyph-name="beta" unicode="β" horiz-adv-x="560" d="M158 50l-1.999-.002v-67c0-88 4-148.333 12-181h-82c-10 26.667-15 83.334-15 170.001v460c0 108.667 25 187.334 75 236.001 36.667 35.333 84 53 142 53 50.667 0 92.667-16.167 126-48.5s50-74.166 50-125.499c0-36.667-8.833-68.834-26.5-96.501S398.667 403 374 391v-5c41.333-8 76.333-28.667 105-62s43-76 43-128c0-64-20.5-114.5-61.5-151.5S370.667-11 314-11c-64.667 0-116.667 20.333-156 61zm-1.999 391.998V136.996c12.667-21.333 31.334-40 56.001-56s53-24 85-24c40 0 72.833 13 98.5 39s38.5 59 38.5 99c0 46.667-14.333 82.834-43 108.501s-66.334 39.167-113.001 40.5h-27v60c8 0 13.667.333 17 1 36 2.667 64 16.334 84 41.001s30 53.667 30 87c0 35.333-9.5 63.833-28.5 85.5s-43.5 32.5-73.5 32.5c-82.667 0-124-69.667-124-209z"/><glyph glyph-name="gamma" unicode="γ" horiz-adv-x="464" d="M270-198l-87-.002c4 122.667-1.667 217.334-17 284.001-16.667 72.667-41.834 145.834-75.501 219.501s-65.5 133.167-95.5 178.5h99c24.667-37.333 51.834-92.166 81.501-164.499s51.5-142.833 65.5-211.5h3c76 138 114 252.333 114 343v33h83c1.333-5.333 2-16.333 2-33C443 340.334 386 198.667 272 26c-3.333-5.333-5-13.333-5-24 0-2 1-68.667 3-200z"/><glyph glyph-name="delta" unicode="δ" horiz-adv-x="546" d="M466 673l-26-58.998c-12.667 9.333-31.667 18.5-57 27.5s-50.333 13.5-75 13.5c-26 0-46.167-4.333-60.5-13S226 622.668 226 610.001c0-8.667 3.333-17.5 10-26.5s13.834-16.667 21.501-23 21.167-16.833 40.5-31.5l82-65c85.333-66 128-142 128-228 0-73.333-22.5-132.833-67.5-178.5s-100.833-68.5-167.5-68.5c-65.333 0-120.833 21.833-166.5 65.5s-68.5 103.167-68.5 178.5c0 57.333 17 107.333 51 150s78 76.667 132 102v5l-22 18c-41.333 34-62 67.333-62 100 0 29.333 14.833 55.5 44.5 78.5s71.167 34.5 124.5 34.5c32.667 0 63.667-4.833 93-14.5S450.667 685.667 466 673zM327 402.002l-54 41.999c-97.333-51.333-146-121.666-146-210.999 0-54 15-97.167 45-129.5s65.333-48.5 106-48.5c40 0 73.667 15.833 101 47.5s41 74.167 41 127.5c0 66.667-31 124-93 172z"/><glyph glyph-name="epsilon" unicode="ε" horiz-adv-x="440" d="M159 257l-.001 3.996c-30.667 6.667-54.167 19.334-70.5 38.001s-24.833 40.334-25.5 65.001c0 34.667 17 65 51 91s81.333 39 142 39c61.333 0 110.333-12 147-36l-19-59c-11.333 8-28.666 15.167-51.999 21.5s-46.333 9.5-69 9.5c-34 0-61.167-6.667-81.5-20S151 379.332 151 358c0-23.333 12.333-40.833 37-52.5s57.334-17.5 98.001-17.5h59v-62h-62c-46 0-82.833-6.833-110.5-20.5s-41.5-34.5-41.5-62.5c0-27.333 12.5-48.666 37.5-63.999s56.167-23 93.5-23c25.333 0 51.5 3.667 78.5 11s48.167 16 63.5 26l16-60c-18.667-12.667-44.5-23.167-77.5-31.5S276.334-11 243.001-11c-56 0-104 12-144 36s-60 61-60 111c0 30 11.167 56.333 33.5 79s51.166 36.667 86.499 42z"/><glyph glyph-name="zeta" unicode="ζ" horiz-adv-x="409" d="M341-143l-58 17.002c6.667 11.333 13.667 29.166 21 53.499S315.333-29.333 316-16C270-9.333 230.667-.333 198 11 92 45.667 39 119.667 39 233c0 70.667 21.833 143.167 65.5 217.5S208 588 284 640v3h-71c-53.333 0-92.333 3.667-117 11l9 58c21.333-2.667 62-4 122-4h167l13-61c-80-40.667-146.5-98.834-199.5-174.501S128 322.332 128 248.999c0-50.667 10.5-89 31.5-115s51.833-46.333 92.5-61c32.667-12 79.334-22 140.001-30 6-1.333 9-5 9-11 0-27.333-6.333-58.666-19-93.999S355.667-124.333 341-143z"/><glyph glyph-name="eta" unicode="η" horiz-adv-x="555" d="M152 404l1.999-.002c13.333 25.333 34 46.666 62 63.999s60.667 26 98 26c18.667 0 37.167-3.167 55.5-9.5s36.5-16.666 54.5-30.999 32.667-35.666 44-63.999 17-62.166 17-101.499V-18c0-90.667 3.667-150.667 11-180h-84c-10 24.667-15 83.667-15 177v300c0 42.667-9 77.167-27 103.5s-46.333 39.5-85 39.5c-27.333 0-51.666-8.667-72.999-26s-36.333-38.666-45-63.999c-4-10-6-23.333-6-40v-292H73v353c0 59.333-4.667 103-14 131h79c9.333-18.667 14-45.334 14-80.001z"/><glyph glyph-name="theta" unicode="θ" horiz-adv-x="534" d="M268-11c-72.667 0-129.167 31.667-169.5 95S38 239.666 38 360.999c0 106 20.5 192.5 61.5 259.5s98.5 100.5 172.5 100.5c74.667 0 130.667-32.167 168-96.5S496 472.333 496 361c0-116-19-207-57-273s-95-99-171-99zM125 399h284c0 75.333-12 137-36 185s-59.333 72-106 72c-42.667 0-77-25-103-75s-39-110.667-39-182zm285-65H125c0-87.333 13.333-155.833 40-205.5S227 54 271 54c45.333 0 79.833 25.333 103.5 76S410 248.667 410 334z"/><glyph glyph-name="iota" unicode="ι" horiz-adv-x="236" d="M161 484V117.001c0-22.667 3.167-38.334 9.5-47.001s18.833-12.667 37.5-12l-5-64c-10-3.333-23-5-39-5-28.667 0-51 8.667-67 26s-24 48.333-24 93v376h88z"/><glyph glyph-name="kappa" unicode="κ" horiz-adv-x="493" d="M250 262v-3.001c36-8 85.667-54 149-138l88-121H385l-76 103c-56.667 74-103 111.333-139 112h-9v-215H74v379c0 52-3.667 87-11 105h84c9.333-11.333 14-38.666 14-81.999V269h4l127 127.5 85 87.5h103v-4z"/><glyph glyph-name="lambda" unicode="λ" horiz-adv-x="472" d="M364 0l-98 276.999c-10 27.333-21 62.333-33 105h-4c-4-17.333-14.333-51.333-31-102L98-.001H7l175 448c3.333 9.333 5 17 5 23 0 8-2 16.667-6 26-18 48.667-36.667 86.167-56 112.5s-42.666 39.5-69.999 39.5c-7.333 0-13-.333-17-1l8 68c7.333 2.667 18.666 4 33.999 4 43.333 0 78.5-18.167 105.5-54.5S241.333 571.333 272 492L457 0h-93z"/><glyph glyph-name="uni03BC" unicode="μ" horiz-adv-x="553" d="M403 75h-2.999c-12-22.667-30-42.334-54-59.001s-52.333-25-85-25c-50.667 0-86 17.667-106 53v-59c0-89.333 3.667-150.333 11-183h-79c-9.333 28-14 87.667-14 179v503h88v-286c0-40.667 9-73.667 27-99s45.333-38 82-38c27.333 0 51.166 8 71.499 24s34.833 35 43.5 57c5.333 14 8 29.333 8 46v296h88v-351c0-27.333 3.333-46.666 10-57.999s18.667-17.333 36-18l-7-64c-10-2.667-20.333-4-31-4-50 0-78.667 28.667-86 86z"/><glyph glyph-name="nu" unicode="ν" horiz-adv-x="469" d="M4 484l93.001-.001 93-271c7.333-20.667 21-63 41-127h4c83.333 162.667 125 280.334 125 353.001 0 20.667-.333 35.667-1 45h82c2-10 3-21.667 3-35 0-62-15.833-128.833-47.5-200.5S320.667 94 264 0h-83z"/><glyph glyph-name="xi" unicode="ξ" horiz-adv-x="433" d="M361 434l.002-62.999h-27c-66.667-.667-117.334-15-152.001-43s-52-64-52-108c0-39.333 12.833-71.166 38.5-95.499s64.167-43.5 115.5-57.5c38.667-10 82.667-18 132-24 6.667 0 10-3.667 10-11 0-25.333-6.333-56.333-19-93s-26.334-64-41.001-82l-57 17c6.667 11.333 13.5 29.333 20.5 54s10.833 43.334 11.5 56.001c-31.333 4.667-59 9.667-83 15s-50.667 13.666-80 24.999-53.333 24.666-72 39.999S71.5 99.667 58.5 125 39 179.333 39 212c0 46.667 14.833 87.667 44.5 123s66.834 59 111.501 71v5c-74 24-111 71-111 141 0 45.333 18.333 84.833 55 118.5s88 50.5 154 50.5c50 0 90.667-9 122-27l-19-61c-26.667 15.333-59.334 23-98.001 23-40 0-71-10.667-93-32s-33-47-33-77c0-34 13.167-60.833 39.5-80.5s60.166-30.167 101.499-31.5c4.667 0 12.334-.167 23.001-.5s19-.5 25-.5z"/><glyph glyph-name="omicron" unicode="ο" horiz-adv-x="549" d="M270-11c-66.667 0-122.001 22.832-166.001 68.499s-66 105.834-66 180.501c0 78 22.833 140.167 68.5 186.5S209.333 494 278 494c69.333 0 125.5-23 168.5-69S511 319.333 511 246c0-83.333-24-147-72-191S334.667-11 270-11zm3.999 65.999c42 0 77 17.832 105 53.499s42 80.5 42 134.5c0 47.333-12.167 90-36.5 128s-60.5 57-108.5 57-84.667-18.5-110-55.5-38-80.833-38-131.5c0-53.333 13.667-97.666 41-132.999s62.333-53 105-53z"/><glyph glyph-name="pi" unicode="π" horiz-adv-x="555" d="M520 416h-67V144c0-65.333 4.333-113.333 13-144h-84c-10.667 18-16 63-16 135v281H208c-2-68.667-9.667-145.667-23-231S156.667 38 140 0H57c17.333 46 32.5 110 45.5 192s20.167 156.667 21.5 224c-40 0-72.667-3-98-9l-12 52c24.667 16.667 71 25 139 25h376z"/><glyph glyph-name="rho" unicode="ρ" horiz-adv-x="563" d="M157 60h-2v-78c0-89.333 2.667-149.333 8-180H79c-7.333 27.333-11 86-11 176v224c0 98 23.333 171.667 70 221 44 47.333 99.333 71 166 71 67.333 0 121.166-22.667 161.499-68s60.5-104.333 60.5-177c0-81.333-21.667-145-65-191S365.333-11 304-11c-67.333 0-116.333 23.667-147 71zm-2 170l.001-39.999c0-13.333 1.333-25 4-35 8-28 24.167-51.167 48.5-69.5s51.833-27.5 82.5-27.5c45.333 0 81.166 17.5 107.499 52.5s39.5 80.167 39.5 135.5c0 50-12.5 91.833-37.5 125.5s-59.167 50.5-102.5 50.5c-38.667 0-72-16.333-100-49S155 292.667 155 230z"/><glyph glyph-name="uni03C2" unicode="ς" horiz-adv-x="417" d="M408 472l-20-63.999c-27.333 12-57 18-89 18-51.333 0-92.833-18-124.5-54s-47.5-79.667-47.5-131c0-86.667 45.333-143.667 136-171 34.667-10 78-19 130-27 6-.667 9-5.334 9-14.001 0-26-6.167-57-18.5-93s-25.166-62.667-38.499-80l-59 18c6.667 10.667 13.5 28.334 20.5 53.001s11.167 43.334 12.5 56.001c-34 5.333-67 12.333-99 21-54.667 15.333-98.667 42.166-132 80.499s-50 88.166-50 149.499c0 69.333 23.5 130 70.5 182s110.5 78 190.5 78c45.333 0 81.666-7.333 108.999-22z"/><glyph glyph-name="sigma" unicode="σ" horiz-adv-x="554" d="M412 431l-.001-2.999c28-20 50-46.333 66-79s24-67.334 24-104.001c0-82.667-23.333-146-70-190s-100.667-66-162-66c-66.667 0-122 22.667-166 68s-66 105.333-66 180c0 79.333 23 142 69 188s106 69 180 69h146c66.667 0 103 .333 109 1l-3-67c-37.333 0-79.666 1-126.999 3zM272.999 55.001c40 0 73.667 17.998 101 53.998s41 81.333 41 136c0 46.667-12.167 88.834-36.5 126.501s-59.5 56.5-105.5 56.5c-46.667 0-82.5-18.667-107.5-56s-37.5-81-37.5-131c0-53.333 13.667-97.666 41-132.999s62-53 104-53z"/><glyph glyph-name="tau" unicode="τ" horiz-adv-x="413" d="M321 60l-4-61.999c-8.667-6-24.667-9-48-9-38.667 0-67 12.167-85 36.5S157 87.667 157 139v277h-53c-37.333 0-70-2.667-98-8l-11 51c22 16.667 65.667 25 131 25h279l-11-68H245V141c0-54.667 18.333-82 55-82 10.667 0 17.667.333 21 1z"/><glyph glyph-name="upsilon" unicode="υ" horiz-adv-x="524" d="M359 484l83-.002c9.333-17.333 17.666-43.833 24.999-79.5s11-72.167 11-109.5c0-38.667-3.5-74.834-10.5-108.501s-18.333-66-34-97-38.5-55.5-68.5-73.5-66-27-108-27c-56 0-101.667 16.667-137 50s-53 82-53 146v136c0 86.667-3.667 141-11 163h84c9.333-10.667 14-40.667 14-90v-197c0-45.333 10.833-79.166 32.5-101.499s47.5-33.5 77.5-33.5c41.333 0 73 19.833 95 59.5s33 94.834 33 165.501c0 40.667-3.667 79.834-11 117.501S366.333 468.667 359 484z"/><glyph glyph-name="phi" unicode="φ" horiz-adv-x="642" d="M204 498l34.001-48.996c-75.333-48-113-115.333-113-202 0-50.667 13.5-93.5 40.5-128.5s65.833-56.5 116.5-64.5v293c0 49.333 11.667 86.166 35 110.499s53 36.166 89 35.499c50.667-.667 96.167-23.167 136.5-67.5s60.5-101.5 60.5-171.5c0-78-23.333-139.833-70-185.5S429.667-3.332 363-10v-188h-81v188c-67.333 5.334-124.833 29.167-172.5 71.5S38 165 38 245c0 63.333 17.333 117 52 161s72.667 74.667 114 92zm159.001-136.996l.001-308c48 6.667 86 27.667 114 63s42 81 42 137c0 48-11.833 89.333-35.5 124s-49.834 52-78.501 52c-28 0-42-22.667-42-68z"/><glyph glyph-name="chi" unicode="χ" horiz-adv-x="457" d="M18 484l94-.001 123-261h4c7.333 16.667 24 52.334 50 107.001l73 154h85L277 157l176-348-82-22L227 84l-4-1c-.667-2-6.667-15.833-18-41.5L177-20 86-213l-75 23 173 346z"/><glyph glyph-name="psi" unicode="ψ" horiz-adv-x="655" d="M295-198v187.001c-70 4.667-125.5 26-166.5 64S67 153.668 67 241.001v131c0 53.333-2.667 90.666-8 111.999h80c8.667-12 13-42 13-90V248c0-66 13.167-114.333 39.5-145S252.333 55.666 295 52.999v558h81v-558c44 2 79.833 24.167 107.5 66.5s41.5 97.833 41.5 166.5c0 45.333-4 86.5-12 123.5s-16 61.833-24 74.5h81c26-40 39-103.667 39-191 0-38-4.167-73.833-12.5-107.5s-21.333-65.167-39-94.5-42-53.166-73-71.499S417.333-9 376-11v-187h-81z"/><glyph glyph-name="omega" unicode="ω" horiz-adv-x="694" d="M388 363l-2.004-191c-.667-31.333 7-57.5 23-78.5s36-31.5 60-31.5c27.333 0 51 17 71 51s30 82 30 144c0 46.667-7.5 91.167-22.5 133.5s-34.167 74.833-57.5 97.5v2h83c23.333-19.333 43-50.166 59-92.499s24-89.833 24-142.5c0-85.333-18-151-54-197s-79-69-129-69c-29.333 0-55.166 7.667-77.499 23s-38.5 36-48.5 62h-4c-25.333-56.667-68-85-128-85-47.333 0-88.666 21.667-123.999 65s-53 107.666-53 192.999c0 51.333 8.333 99 25 143S99.332 467.333 122 490h82v-2c-23.333-26-42.5-60-57.5-102S124 298.333 124 249c0-62 10.5-108.667 31.5-140s44.833-47 71.5-47c22.667 0 41.834 10.667 57.501 32s23.167 47 22.5 77l-2 192h83z"/><glyph glyph-name="iotadieresis" unicode="ϊ" horiz-adv-x="236" d="M28 557c-14 0-25.666 5-34.999 15s-14 22-14 36c0 13.333 4.833 25 14.5 35s21.5 15 35.5 15c13.333 0 24.666-4.833 33.999-14.5S77 622 77 608s-4.5-26-13.5-36-20.833-15-35.5-15zm183.001 0c-14 0-25.499 5-34.499 15s-13.5 22-13.5 36 4.833 25.833 14.5 35.5 21.5 14.5 35.5 14.5c13.333 0 24.666-4.833 33.999-14.5s14-21.5 14-35.5-4.667-26-14-36-21.333-15-36-15zm-49.999-73V117.002c0-22.667 3.167-38.334 9.5-47.001s18.833-12.667 37.5-12l-5-64c-10-3.333-23-5-39-5-29.333 0-51.833 8.667-67.5 26s-23.5 48.666-23.5 93.999v375h88z"/><glyph glyph-name="upsilondieresis" unicode="ϋ" horiz-adv-x="524" d="M165 557c-14 0-25.666 5-34.999 15s-14 22-14 36c0 13.333 4.833 25 14.5 35s21.5 15 35.5 15c13.333 0 24.666-4.833 33.999-14.5s14-21.5 14-35.5-4.5-26-13.5-36-20.833-15-35.5-15zm183.001 0c-14 0-25.499 5-34.499 15s-13.5 22-13.5 36 4.833 25.833 14.5 35.5 21.5 14.5 35.5 14.5c13.333 0 24.666-4.833 33.999-14.5s14-21.5 14-35.5-4.667-26-14-36-21.333-15-36-15zm12.001-73l82.001-.001c9.333-17.333 17.666-43.833 24.999-79.5s11-72.167 11-109.5c0-38.667-3.5-74.834-10.5-108.501s-18.333-66-34-97-38.5-55.5-68.5-73.5-66-27-108-27c-56 0-101.667 16.667-137 50s-53 82-53 146v136c0 86.667-3.667 141-11 163h84c9.333-10.667 14-40.667 14-90v-197c0-45.333 10.833-79.166 32.5-101.499s47.5-33.5 77.5-33.5c41.333 0 73 19.833 95 59.5s33 94.834 33 165.501c0 40-3.5 78.833-10.5 116.5s-14.167 64.5-21.5 80.5z"/><glyph glyph-name="omicrontonos" unicode="ό" horiz-adv-x="549" d="M289 686h88l-83-143h-58zM270-11c-66.667 0-122.001 22.832-166.001 68.499s-66 105.834-66 180.501c0 78 22.833 140.167 68.5 186.5S209.333 494 278 494c69.333 0 125.5-23 168.5-69S511 319.333 511 246c0-83.333-24-147-72-191S334.667-11 270-11zm3.999 65.999c42 0 77 17.832 105 53.499s42 80.5 42 134.5c0 47.333-12.167 90-36.5 128s-60.5 57-108.5 57-84.667-18.5-110-55.5-38-80.833-38-131.5c0-53.333 13.667-97.666 41-132.999s62.333-53 105-53z"/><glyph glyph-name="upsilontonos" unicode="ύ" horiz-adv-x="524" d="M272 686h89l-83-143h-60zm87-202l83-.002c9.333-17.333 17.666-43.833 24.999-79.5s11-72.167 11-109.5c0-38.667-3.5-74.834-10.5-108.501s-18.333-66-34-97-38.5-55.5-68.5-73.5-66-27-108-27c-56 0-101.667 16.667-137 50s-53 82-53 146v136c0 86.667-3.667 141-11 163h84c9.333-10.667 14-40.667 14-90v-197c0-45.333 10.833-79.166 32.5-101.499s47.5-33.5 77.5-33.5c41.333 0 73 19.833 95 59.5s33 94.834 33 165.501c0 40.667-3.667 79.834-11 117.501S366.333 468.667 359 484z"/><glyph glyph-name="omegatonos" unicode="ώ" horiz-adv-x="694" d="M360 686h89l-84-143h-58zm28-323l-2.004-191c-.667-31.333 7-57.5 23-78.5s36-31.5 60-31.5c27.333 0 51 17 71 51s30 82 30 144c0 46.667-7.5 91.167-22.5 133.5s-34.167 74.833-57.5 97.5v2h83c23.333-19.333 43-50.166 59-92.499s24-89.833 24-142.5c0-85.333-18-151-54-197s-79-69-129-69c-29.333 0-55.166 7.667-77.499 23s-38.5 36-48.5 62h-4c-25.333-56.667-68-85-128-85-47.333 0-88.666 21.667-123.999 65s-53 107.666-53 192.999c0 51.333 8.333 99 25 143S99.332 467.333 122 490h82v-2c-23.333-26-42.5-60-57.5-102S124 298.333 124 249c0-62 10.5-108.667 31.5-140s44.833-47 71.5-47c22.667 0 41.834 10.667 57.501 32s23.167 47 22.5 77l-2 192h83z"/><glyph glyph-name="uni0401" unicode="Ё" horiz-adv-x="492" d="M424 388v-72H163V73h292V0H75v674h365v-73H163V388h261zM162 721c-14 0-25.5 5.001-34.5 15.001s-13.5 22-13.5 36 4.667 25.833 14 35.5 21 14.5 35 14.5 25.5-4.833 34.5-14.5 13.5-21.5 13.5-35.5c0-14.667-4.5-26.834-13.5-36.501S176.667 721 162 721zm185 .001c-14 0-25.5 5.001-34.5 15.001s-13.5 22-13.5 36 4.833 25.833 14.5 35.5 21.5 14.5 35.5 14.5 25.5-4.833 34.5-14.5 13.5-21.5 13.5-35.5c0-14.667-4.5-26.834-13.5-36.501s-21.167-14.5-36.5-14.5z"/><glyph glyph-name="uni0402" unicode="Ђ" horiz-adv-x="665" d="M-1 674h518v-73H273V409h3c41.333 27.333 86.333 41 135 41 69.333 0 123.333-28 162-84 34.667-47.333 52-110 52-188 0-108-31-188.333-93-241-37.333-42-84-67.333-140-76l-15 68c48 12 84.667 35.333 110 70 31.333 41.333 47 98.333 47 171 0 63.333-11.667 112-35 146-26 40.667-63.333 61-112 61-40.667 0-78.667-13-114-39V0h-88v601H-1v73z"/><glyph glyph-name="uni0403" unicode="Ѓ" horiz-adv-x="433" d="M75 674h359v-73H163V0H75v674zm208 153h106L261 710h-71z"/><glyph glyph-name="uni0404" unicode="Є" horiz-adv-x="576" d="M544 653l-21-68c-37.333 18.667-81.666 28-132.999 28-74 0-134-22-180-66s-72.667-100-80-168h346v-69h-345c2-70.667 26.333-129.667 73-177s107.667-71 183-71c51.333 0 98.333 9 141 27l15-67c-42.667-22-100-33-172-33-98 0-178.167 31.167-240.5 93.5s-93.5 146.833-93.5 253.5c0 98.667 31.833 181.5 95.5 248.5s148.5 100.5 254.5 100.5c65.333 0 117.666-10.667 156.999-32z"/><glyph glyph-name="uni0405" unicode="Ѕ" horiz-adv-x="493" d="M42 33l23 73.004c46-29.333 97.667-44 155-44 44 0 78.5 10.5 103.5 31.5s37.5 48.833 37.5 83.5c0 30.667-9.833 56.167-29.5 76.5s-52.167 39.166-97.5 56.499c-118.667 43.333-178 107.333-178 192 0 53.333 20.167 97.166 60.5 131.499s92.833 51.5 157.5 51.5c61.333 0 110.666-11 147.999-33l-24-71c-34.667 21.333-77 32-127 32-42 0-73.667-10.167-95-30.5s-32-43.833-32-70.5c0-30.667 10.167-55.334 30.5-74.001s54.833-37.334 103.5-56.001c58.667-22.667 101.834-49.334 129.501-80.001s41.5-70 41.5-118c0-55.333-20.167-101.666-60.5-139S290-11 214-11c-32 0-64 4.168-96 12.5S60.667 20.334 42 33z"/><glyph glyph-name="uni0406" unicode="І" horiz-adv-x="239" d="M75 674h88V0H75v674z"/><glyph glyph-name="uni0407" unicode="Ї" horiz-adv-x="239" d="M75 674h88V0H75v674zm-48 47c-14 0-25.5 5.001-34.5 15.001s-13.5 22-13.5 36 4.667 25.833 14 35.5 21 14.5 35 14.5 25.5-4.833 34.5-14.5 13.5-21.5 13.5-35.5c0-14.667-4.5-26.834-13.5-36.501S41.667 721 27 721zm185 .001c-14 0-25.5 5.001-34.5 15.001s-13.5 22-13.5 36 4.833 25.833 14.5 35.5 21.5 14.5 35.5 14.5 25.5-4.833 34.5-14.5 13.5-21.5 13.5-35.5c0-14.667-4.5-26.834-13.5-36.501s-21.167-14.5-36.5-14.5z"/><glyph glyph-name="uni0408" unicode="Ј" horiz-adv-x="370" d="M213 230l.001 444h88V223c0-156-68-234-204-234-37.333 0-68.333 5.333-93 16l12 71c22-8.667 46.667-13 74-13 41.333 0 72.166 12.167 92.499 36.5S213 167.333 213 230z"/><glyph glyph-name="uni0409" unicode="Љ" horiz-adv-x="881" d="M124 674h377.001V420c23.333 3.333 50.666 5 81.999 5 74 0 135.667-17.5 185-52.5s74-87.167 74-156.5c0-59.333-18.667-108.333-56-147C735.333 19 656.333-6 549-6c-44.667 0-89.667 2.333-135 7v600H209V397c0-44-1-81.667-3-113s-6-65.5-12-102.5-16.167-68.667-30.5-95-32.833-47.166-55.5-62.499c-33.333-21.333-67-32-101-32l-13 70C22.667 67.334 46.667 79.667 66 99c38.667 38 58 135.333 58 292v283zm377.001-321l.001-286.999c14-2.667 37.333-4 70-4 51.333 0 94.166 13 128.499 39s51.5 63.333 51.5 112c0 49.333-17 85.666-51 108.999s-77.333 35-130 35c-16.667 0-39.667-1.333-69-4z"/><glyph glyph-name="uni040A" unicode="Њ" horiz-adv-x="897" d="M75 674l88.002-.002v-269h267v269h87v-263c23.333 3.333 54.333 5 93 5 45.333 0 86.166-6.667 122.499-20s66.333-35.666 90-66.999 35.5-69.666 35.5-114.999c0-60-18.667-108.667-56-146-50-49.333-128.333-74-235-74C514.334-6 468.667-3.333 430 2v329H163V0H75v674zm442.002-330.002v-277c17.333-3.333 41-5 71-5 51.333 0 94 12.5 128 37.5s51 62.167 51 111.5c0 46.667-16.5 81.167-49.5 103.5s-74.833 33.5-125.5 33.5c-24.667 0-49.667-1.333-75-4z"/><glyph glyph-name="uni040B" unicode="Ћ" horiz-adv-x="675" d="M-1 674h507v-73H271V408h2c50.667 30.667 101.667 46 153 46 52.667 0 94-15.667 124-47 35.333-36 53-88.333 53-157V0h-87v239c0 49.333-10.667 86-32 110-22 22-50.667 33-86 33-46.667 0-89-14.333-127-43V0h-88v601H-1v73z"/><glyph glyph-name="uni040C" unicode="Ќ" horiz-adv-x="542" d="M76 674l86.999.001v-299h27l231 299h104l-255-309c52-6.667 91.667-24.334 119-53.001s50.666-69 69.999-121l22.5-62.5 27-72C516.165 36.833 524.332 18 532.999 0h-93c-10 18-30.667 71-62 159-17.333 50-39.666 87.5-66.999 112.5S243.667 309 191 309h-28V0H76v674zm242.999 148.001h106l-128-117h-71z"/><glyph glyph-name="uni040E" unicode="Ў" horiz-adv-x="521" d="M2 674l99-.001 134-289c18.667-43.333 34.667-82.666 48-117.999h3l41 121 106 286h92L383 326c-50.667-127.333-92.667-212.333-126-255-43.333-55.333-94-83-152-83-22 0-38.333 2-49 6l8 71c8-2 19-3 33-3 52.667 0 96.667 38.333 132 115 5.333 12 4.333 25.667-3 41zm131 142.999h67.001c2.667-19.333 8.167-34.5 16.5-45.5s23.166-16.5 44.499-16.5 36.166 5.5 44.499 16.5 13.833 26.167 16.5 45.5h67c-5.333-72-48.666-108-129.999-108-78.667 0-120.667 36-126 108z"/><glyph glyph-name="uni040F" unicode="Џ" horiz-adv-x="635" d="M75 674h88V73h310v601h88V0H362l-7-175h-73L275 0H75v674z"/><glyph glyph-name="uni0410" unicode="А" horiz-adv-x="612" d="M424 212H185L115 0H25l230 674h104L589 0h-93zm-221 68h203.999l-67 194c-9.333 27.333-21 68.333-35 123h-2C287.666 537 276.333 496.333 269 475z"/><glyph glyph-name="uni0411" unicode="Б" horiz-adv-x="546" d="M76 674h378v-73H163V420c23.333 3.333 51 5 83 5 70.667 0 128.667-15 174-45 57.333-37.333 86-92 86-164 0-59.333-18.667-108.333-56-147C399.333 19 320-6 212-6c-52 0-97.333 2.667-136 8v672zm87-321V67c16.667-3.333 41-5 73-5 62 0 109.333 17.333 142 52 24.667 26 37 59 37 99 0 48-18.333 84.667-55 110-32 22.667-74.667 34-128 34-16.667 0-39.667-1.333-69-4z"/><glyph glyph-name="uni0412" unicode="В" horiz-adv-x="542" d="M76 2v662.003c42 10 95 15 159 15 83.333 0 144.666-16.333 183.999-49 38-28 57-67.667 57-119 0-32.667-10.167-62.334-30.5-89.001S397.333 375.668 362 363.001v-3c37.333-8.667 69.833-27.334 97.5-56.001S501 238 501 192c0-54.667-19.333-99.667-58-135C398.333 15 321-6 211-6c-51.333 0-96.333 2.667-135 8zm87 604.003l.001-217.999h79c44.667 0 80 10.667 106 32s39 48.666 39 81.999c0 73.333-49 110-147 110-32.667 0-58.334-2-77.001-6zm.001-282.999l.001-257c16-2.667 40.333-4 73-4 50 0 91.333 10.5 124 31.5s49 54.167 49 99.5c0 43.333-16.333 75.833-49 97.5s-74.334 32.5-125.001 32.5h-72z"/><glyph glyph-name="uni0413" unicode="Г" horiz-adv-x="433" d="M75 674h359v-73H163V0H75v674z"/><glyph glyph-name="uni0414" unicode="Д" horiz-adv-x="630" d="M160 674l377-.001v-603l59-2-6-231h-68l-6 162H91l-6-162H17l-5 231 50 2c32 58.667 54 108 66 148 21.333 72.667 32 167.334 32 284.001v171zm81-72.001V475c0-111.333-11.333-203-34-275-10.667-36.667-29-79.334-55-128.001h298v530H241z"/><glyph glyph-name="uni0415" unicode="Е" horiz-adv-x="492" d="M424 388v-72H163V73h292V0H75v674h365v-73H163V388h261z"/><glyph glyph-name="uni0416" unicode="Ж" horiz-adv-x="801" d="M22 674h100.998l209-299h27v299h84V375h27l209 299h101l-239-310c49.333-4.667 87.333-21.167 114-49.5s49.667-69.5 69-123.5l19.5-60.5c8.333-26.333 16.166-50 23.499-71s15-40.833 23-59.5h-89c-6.667 13.333-13.167 28.833-19.5 46.5S668.331 85 660.998 109l-15 49c-18 52.667-38.833 91-62.5 115s-60.5 36-110.5 36h-30V0h-84v309h-31c-50 0-86.833-12-110.5-36s-44.5-62.333-62.5-115l-21.5-67c-13.667-42.667-24.834-73-33.501-91h-89c8.667 18.667 16.667 38.334 24 59.001s15.333 44.5 24 71.5 15.334 46.833 20.001 59.5c18.667 53.333 41.334 94.166 68.001 122.499S211.333 358 260 364z"/><glyph glyph-name="uni0417" unicode="З" horiz-adv-x="492" d="M73 571l-23 63.999c52 34 111.333 51 178 51 59.333 0 107.166-14.667 143.499-44s54.5-69.666 54.5-120.999c0-40.667-13.167-76-39.5-106s-59.5-49.667-99.5-59v-2c48-5.333 87.333-23 118-53S451.333 232.333 452 185c0-65.333-23.833-114.333-71.5-147S275-11 207-11 80.333 3.667 31 33l23 68c48-27.333 98.667-41 152-41 48 0 85.667 11.833 113 35.5s41 54.5 41 92.5c0 46-17.833 79.167-53.5 99.5S227.666 318 176.999 318h-40v66h39c44.667 0 82.334 12 113.001 36s46 53.333 46 88c0 34-11 60.333-33 79s-51.333 28-88 28c-46.667 0-93.667-14.667-141-44z"/><glyph glyph-name="uni0418" unicode="И" horiz-adv-x="658" d="M76 674l82 .001v-284c0-110-2.667-205-8-285l3-1C181 163.334 222.333 237.667 277 327l218 347h87V0h-82v287c0 118 2.667 209.333 8 274l-3 1c-26-58.667-67.667-134-125-226L169 0H76v674z"/><glyph glyph-name="uni0419" unicode="Й" horiz-adv-x="658" d="M76 674l82 .001v-284c0-110-2.667-205-8-285l3-1C181 163.334 222.333 237.667 277 327l218 347h87V0h-82v287c0 118 2.667 209.333 8 274l-3 1c-26-58.667-67.667-134-125-226L169 0H76v674zm125 141.001h67.001c2.667-19.333 8.167-34.5 16.5-45.5s23.166-16.5 44.499-16.5 36.166 5.5 44.499 16.5 13.833 26.167 16.5 45.5h67c-5.333-72-48.666-108-129.999-108-78.667 0-120.667 36-126 108z"/><glyph glyph-name="uni041A" unicode="К" horiz-adv-x="542" d="M76 674l86.999.001v-299h27l231 299h104l-255-309c52-6.667 91.667-24.334 119-53.001s50.666-69 69.999-121l22.5-62.5 27-72C516.165 36.833 524.332 18 532.999 0h-93c-10 18-30.667 71-62 159-17.333 50-39.666 87.5-66.999 112.5S243.667 309 191 309h-28V0H76v674z"/><glyph glyph-name="uni041B" unicode="Л" horiz-adv-x="594" d="M123 674l396-.001v-674h-88v601H209v-204c0-44-1-81.667-3-113s-6-65.5-12-102.5-16.167-68.667-30.5-95S130.667 39.333 108 24C74.667 2.667 40-8 4-8L-7 62c27.333 4 51 16 71 36 39.333 38 59 135.333 59 292v284z"/><glyph glyph-name="uni041C" unicode="М" horiz-adv-x="804" d="M660 0l-16.001 296c-7.333 138-11 235-11 291h-2c-30.667-98.667-59-184-85-256l-119-327h-66l-110 321c-34 102.667-59.667 190-77 262h-2c-2-86-6.333-185.333-13-298l-18-289h-83l47 674h111l115-326c26.667-80 49.334-155.667 68.001-227h2c16 61.333 40 137 72 227l120 326h111L746 0h-86z"/><glyph glyph-name="uni041D" unicode="Н" horiz-adv-x="652" d="M75 674h88V392h326v282h88V0h-88v316H163V0H75v674z"/><glyph glyph-name="uni041E" unicode="О" horiz-adv-x="689" d="M348 686c92 0 165.667-31.668 221-95.001S652 445.333 652 344c0-111.333-29.667-198.333-89-261S429-11 339-11c-89.333 0-162.166 31.667-218.499 95s-84.5 146-84.5 248c0 106 29.167 191.5 87.5 256.5S256.667 686 348 686zm-3-71.001c-68.667 0-122.001-27.167-160.001-81.5s-57-120.833-57-199.5c0-76 19.5-140.667 58.5-194s91.5-80 157.5-80c66.667 0 119.334 26.667 158.001 80s58 120 58 200c0 74-18.833 138.333-56.5 193s-90.5 82-158.5 82z"/><glyph glyph-name="uni041F" unicode="П" horiz-adv-x="639" d="M75 674h489V0h-88v601H163V0H75v674z"/><glyph glyph-name="uni0420" unicode="Р" horiz-adv-x="532" d="M76 0v666c52 8.667 107.667 13 167 13 84.667 0 147.667-18.667 189-56 39.333-34.667 59-81.667 59-141 0-60-17.333-108-52-144-47.333-49.333-116-74-206-74-30.667 0-54 2-70 6V0H76zm87 603l-.002-262c18-4.667 42-7 72-7 52.667 0 94 12.5 124 37.5s45 60.167 45 105.5c0 44-14.167 77.167-42.5 99.5S294.332 610 244.999 610c-37.333 0-64.666-2.333-81.999-7z"/><glyph glyph-name="uni0421" unicode="С" horiz-adv-x="580" d="M529 91l16.997-70C504.664-.333 445.331-11 367.998-11c-98 0-177.833 30-239.5 90s-92.5 144-92.5 252c0 106 32.5 191.5 97.5 256.5s149.833 97.5 254.5 97.5c68.667 0 122-10 160-30l-22-71c-37.333 18.667-82.333 28-135 28-80 0-143.833-24.5-191.5-73.5s-71.5-117.167-71.5-204.5c0-83.333 22.833-149.333 68.5-198S305.332 63 386 63c56.666 0 104.333 9.333 143 28z"/><glyph glyph-name="uni0422" unicode="Т" horiz-adv-x="497" d="M204 0v600H-1v74h499v-74H292V0h-88z"/><glyph glyph-name="uni0423" unicode="У" horiz-adv-x="521" d="M2 674l99-.001 134-289c18.667-43.333 34.667-82.666 48-117.999h3l41 121 106 286h92L383 326c-50.667-127.333-92.667-212.333-126-255-43.333-55.333-94-83-152-83-22 0-38.333 2-49 6l8 71c8-2 19-3 33-3 52.667 0 96.667 38.333 132 115 5.333 12 4.333 25.667-3 41z"/><glyph glyph-name="uni0424" unicode="Ф" horiz-adv-x="725" d="M321 701l83.998-.004v-61c36.667-1.333 71.334-8.166 104.001-20.499s62.667-30.166 90-53.499 49-54.666 65-93.999 24-84.333 24-135c0-51.333-8-96.5-24-135.5s-37.833-69.833-65.5-92.5-57.667-40-90-52-67.5-19.333-105.5-22v-62h-84v62c-37.333 2.667-72 9.834-104 21.501s-61.833 28.667-89.5 51-49.5 52.666-65.5 91-24 83.165-24 134.498c0 42.667 5.833 81.334 17.5 116.001S80.333 512.333 99 535s40.667 41.834 66 57.501 50.833 27.167 76.5 34.5 52.167 11.666 79.5 13v61zm-1.002-603.004v480c-52-2.668-97.333-23.668-136-63s-58-99-58-179c0-74.668 18.5-131.668 55.5-171s83.167-61.667 138.5-67zm84 479.999v-480c54.667 4 100.667 25.5 138 64.5s56 97.167 56 174.5c0 80-18.667 139.333-56 178s-83.333 59.667-138 63z"/><glyph glyph-name="uni0425" unicode="Х" horiz-adv-x="571" d="M546 0L444.999.001l-87 149c-29.333 47.333-55 91.666-77 132.999h-2c-15.333-31.333-39.666-76-72.999-134L125 0H25l206 341L33 674h101l89-158c28-48.667 48.667-86.667 62-114h3c16 33.333 36.333 71.333 61 114l91 158h101L336 346z"/><glyph glyph-name="uni0426" unicode="Ц" horiz-adv-x="652" d="M75 674h88V73h309v601h88V71l59-2-6-232h-68L539 0H75v674z"/><glyph glyph-name="uni0427" unicode="Ч" horiz-adv-x="597" d="M71 674h87.001V458c0-46.667 12-82.5 36-107.5s59.333-37.5 106-37.5c50 0 94.667 13 134 39v322h87V-4h-87v288h-2c-48.667-28-102.667-42-162-42-24.667 0-47.834 3-69.501 9s-42.667 16-63 30S101 316 89 344s-18 61.333-18 100v230z"/><glyph glyph-name="uni0428" unicode="Ш" horiz-adv-x="847" d="M76 674h86V73h219v601h86V73h219v601h86V0H76v674z"/><glyph glyph-name="uni0429" unicode="Щ" horiz-adv-x="864" d="M76 674h86V73h219v601h86V73h219v601h86V71l59-2-6-232h-68L751 0H76v674z"/><glyph glyph-name="uni042A" unicode="Ъ" horiz-adv-x="631" d="M-2 674l260 .001v-252c22 3.333 49 5 81 5 70.667 0 130.5-17.833 179.5-53.5s73.5-88.167 73.5-157.5c0-58.667-17.333-106.334-52-143.001C490.667 20.333 412.334-6 305.001-6 254.334-6 209.667-3.333 171 2v600H-2v72zm260-320.999L258.001 67c16-3.333 39-5 69-5 51.333 0 93.166 12.833 125.499 38.5S501 163.667 501 213c0 48.667-16.667 84.834-50 108.501s-74.333 35.5-123 35.5c-18.667 0-42-1.333-70-4z"/><glyph glyph-name="uni042B" unicode="Ы" horiz-adv-x="746" d="M76 674l87 .001v-253c20 4 47 6 81 6 74.667 0 136.5-17.5 185.5-52.5s73.5-87.833 73.5-158.5c0-58.667-17.333-106.334-52-143.001C401 20.333 321-6 211-6c-51.333 0-96.333 2.667-135 8v672zm87-320.999L163.002 67c15.333-3.333 38.666-5 69.999-5 51.333 0 94 13 128 39s51 63.333 51 112-17.333 84.834-52 108.501-77.334 35.5-128.001 35.5c-16.667 0-39.667-1.333-69-4zM578.002 674h88V0h-88v674z"/><glyph glyph-name="uni042C" unicode="Ь" horiz-adv-x="545" d="M76 674h87V422c22 3.333 49.667 5 83 5 75.333 0 137.5-17.5 186.5-52.5S506 287 506 217c0-59.333-17.333-107.333-52-144C404 20.333 323.333-6 212-6c-52 0-97.333 2.667-136 8v672zm87-321V67.001c16.667-3.333 40.667-5 72-5 52 0 95 12.667 129 38S415 162.667 415 212s-17 85.833-51 109.5S286.667 357 234 357c-18 0-41.667-1.333-71-4z"/><glyph glyph-name="uni042D" unicode="Э" horiz-adv-x="568" d="M124 310v69.999h313c-6 68.667-29 124.667-69 168s-93.667 65-161 65c-44 0-92.333-11-145-33l-21 66c56.667 26 113.667 39 171 39 102 0 180.667-32.5 236-97.5s83-148.5 83-250.5c0-107.333-30.833-192.166-92.5-254.499S299.333-11 206-11C140.667-11 82 .333 30 23l19 70c44.667-20.667 93.334-31 146.001-31 72 0 129.667 23.333 173 70S434.667 238 438 310H124z"/><glyph glyph-name="uni042E" unicode="Ю" horiz-adv-x="867" d="M76 674h87V384h100c8.667 94 38.667 167.833 90 221.5S470 686 550 686c86.667 0 155.167-31.5 205.5-94.5S831 446 831 344c0-112.667-27.333-200-82-262S625-11 541-11c-82 0-148.333 29-199 87s-77.667 136-81 234h-98V0H76v674zM545 59c61.333 0 109.501 26.833 144.501 80.5s52.5 120.5 52.5 200.5c0 74-17 138.5-51 193.5s-82.333 82.5-145 82.5c-63.333 0-112.333-27.5-147-82.5s-52-121.5-52-199.5c0-76 17.667-140.833 53-194.5S483.667 59 545 59z"/><glyph glyph-name="uni042F" unicode="Я" horiz-adv-x="543" d="M108 0L13.999.001c9.333 16 18.666 36.333 27.999 61 4.667 13.333 11.167 33 19.5 59s15.5 47.167 21.5 63.5 14.333 34.5 25 54.5 22.334 36.333 35.001 49c16 16 35 27.667 57 35v2c-43.333 7.333-79 25.666-107 54.999s-42 66.333-42 111c0 57.333 20.667 103 62 137 42.667 34.667 107 52 193 52 62 0 115.667-4.667 161-14V0h-87v292h-65c-42 0-74-11-96-33-14-14-26.167-32.667-36.5-56s-20.666-52.333-30.999-87S134 59 130 49c-8-18.667-15.333-35-22-49zm271.999 360.001v243c-20 5.333-47.667 8-83 8-46.667 0-84.667-10-114-30s-44-51.667-44-95c0-39.333 15.5-70.5 46.5-93.5s71.167-34.5 120.5-34.5c38 0 62.667.667 74 2z"/><glyph glyph-name="uni0430" unicode="а" horiz-adv-x="482" d="M413 297l.002-180.998c0-46.667 2.333-85.334 7-116.001h-79l-7 61h-3C316.335 40.334 296.168 23.167 270.501 9.5S215.667-11 183-11c-46.667 0-83 13.667-109 41s-39 60-39 98c0 58.667 25.167 103.5 75.5 134.5s122.166 46.167 215.499 45.5v10c0 12-1.167 23.5-3.5 34.5s-7 22.833-14 35.5-18.333 22.667-34 30-35.167 11-58.5 11c-49.333 0-91.666-12-126.999-36l-20 59c44.667 28 98 42 160 42 67.333 0 114.833-18.667 142.5-56S413 353.667 413 297zm-84.998-133.998v83.997c-136.667 2.667-205-33.666-205-108.999 0-27.333 7.833-48.166 23.5-62.499s35.167-21.5 58.5-21.5c30 0 55.333 7.833 76 23.5s35 34.834 43 57.501c2.667 8.667 4 18 4 28z"/><glyph glyph-name="uni0431" unicode="б" horiz-adv-x="528" d="M443 721l-3.998-73.001C420.335 640.666 386.668 633.333 338 626c-82-12.667-139.667-43-173-91-28.667-40-46.334-93.333-53.001-160h3c15.333 34.667 38.5 61.5 69.5 80.5S248.667 484 284 484c61.333 0 111-21 149-63s57-100.667 57-176c0-79.333-19.667-142-59-188s-94.333-69-165-69c-40.667 0-76.167 9.167-106.5 27.5s-53.833 43.333-70.5 75-29 66-37 103S40 270.333 40 313c0 114 25 203.333 75 268 22 32.667 49.667 57.667 83 75s75 30.333 125 39c58.667 10 98.667 18.667 120 26zm-41.998-482.001c0 29.333-3.669 56.665-11.002 81.998s-21.666 48-42.999 68-48.333 30-81 30c-49.333 0-86-22-110-66-16-28.667-24-63-24-103 0-29.333 4.333-58.166 13-86.499s23.834-53.666 45.501-75.999 47.5-33.5 77.5-33.5c45.333 0 78.833 18 100.5 54s32.5 79.667 32.5 131z"/><glyph glyph-name="uni0432" unicode="в" horiz-adv-x="500" d="M70 0l.001 478c42.667 7.333 94 11 154 11 144 0 216-40.333 216-121 0-28.667-9.5-52.5-28.5-71.5s-43.167-31.833-72.5-38.5v-2c37.333-5.333 67.166-18 89.499-38s33.5-47 33.5-81C462 41.667 377-6 207-6c-39.333 0-85 2-137 6zm85.001 424l.002-144h66c37.333 0 68.666 6.167 93.999 18.5s38 31.833 38 58.5c0 47.333-43.333 71-130 71-18.667 0-41.334-1.333-68.001-4zm-.998-201l.001-165.999c25.333-2 48.666-3 69.999-3 39.333 0 73.833 6.167 103.5 18.5s44.5 34.166 44.5 65.499c0 32-13.667 54.167-41 66.5s-65 18.5-113 18.5h-64z"/><glyph glyph-name="uni0433" unicode="г" horiz-adv-x="385" d="M71 484h297v-70H158V0H71v484z"/><glyph glyph-name="uni0434" unicode="д" horiz-adv-x="530" d="M125 484h323V66l50-1-5-218h-69L420 0H85l-5-153H12L8 64l41 2c20.667 30.667 36.667 63.667 48 99 18.667 58.667 28 123 28 193v126zm77-67v-79c0-68-8.333-128.333-25-181-9.333-32-22-62-38-90h223v350H202z"/><glyph glyph-name="uni0435" unicode="е" horiz-adv-x="501" d="M462 226l-340 .001c.667-56.667 16.5-98.834 47.5-126.501S240 58 288 58c51.333 0 96 8.333 134 25l16-63C392-.667 338-11 276-11c-73.333 0-131.333 22.333-174 67S38 160 38 234c0 74.667 20.667 136.667 62 186s96.333 74 165 74c37.333 0 69.833-7.5 97.5-22.5S411 437 425 413s24.167-48.167 30.5-72.5 9.5-48.833 9.5-73.5c0-17.333-1-31-3-41zm-339 63.001h257.001c.667 35.333-8.5 67.833-27.5 97.5s-50.5 44.5-94.5 44.5c-40.667 0-72.334-14.5-95.001-43.5s-36-61.833-40-98.5z"/><glyph glyph-name="uni0436" unicode="ж" horiz-adv-x="667" d="M14 484l100.002-.001 161-211h17v211h84v-211h17l160 211h101l-191-220c67.333-7.333 115.666-50 144.999-128 27.333-75.333 45-120.666 53-135.999h-88c-12 21.333-26.667 58.333-44 111-14.667 38-33 64.667-55 80s-49.667 23-83 23h-15V0h-84v214h-15c-35.333 0-63.833-7.667-85.5-23S151.667 148.667 137 110C114.333 50 99.333 13.333 92 0H6c6.667 12.667 24.667 57.667 54 135 15.333 40 34.5 70.5 57.5 91.5S169.667 260 205 264z"/><glyph glyph-name="uni0437" unicode="з" horiz-adv-x="431" d="M114 221l-1.002 60h42c36.667 0 66.5 7.5 89.5 22.5s34.5 33.833 34.5 56.5c0 21.333-8.667 38.5-26 51.5s-40 19.5-68 19.5c-40 0-79-11.667-117-35l-22 54c48 29.333 101.667 44 161 44 26.667 0 51.834-3.833 75.501-11.5S326.833 461 344.5 441s26.5-44.667 26.5-74c0-28-10.833-51.833-32.5-71.5S291.333 263 262 257v-2c38-4 69.5-16.667 94.5-38s37.5-49 37.5-83c0-48-20.5-84-61.5-108S242.333-10 185-10C127-10 74.667 3 28 29l23 60c39.333-22.667 82-34 128-34 36 0 64.833 7.667 86.5 23s32.5 35.333 32.5 60c0 55.333-47 83-141 83h-43z"/><glyph glyph-name="uni0438" unicode="и" horiz-adv-x="554" d="M70 484l84-.001v-204c0-60-2-124.667-6-194l3-1c36.667 72.667 63 122.334 79 149.001l151 250h103V0h-84v205c0 54 2 120.333 6 199h-2c-34-66.667-61-117-81-151l-80.5-134.5L172 0H70v484z"/></font>
</defs>
</svg>
