<svg xmlns="http://www.w3.org/2000/svg" viewBox="0 0 212.83 123.12"><path d="M109.37 29.47a15 15 0 0 0 14.93-14.92A14.9 14.9 0 0 0 109.37 0a14.57 14.57 0 0 0-14.55 14.55 14.65 14.65 0 0 0 14.55 14.92zm67.27 10.45c-21.64 0-37.31 14.18-37.31 35.44v47.39l24.25-4.48V72.75c0-6.34 3.73-13.06 12.31-13.06s12.69 6.72 12.69 13.06v50l24.25-4.48V75.36c0-21.26-14.92-35.44-36.19-35.44zm-55.33-.75l-23.88 4.85v78.73l23.88-4.48v-79.1zM34.32 4.1L0 5.6v117.52l25-5.6V88.05h9.32c31 0 47.39-20.52 47.39-42.16 0-25-16.42-41.79-47.39-41.79zm2.24 59.7H25V28.73h11.56c9.33 0 19 4.85 19 17.16.03 11.57-7.8 17.91-19 17.91z" fill="#ed302f" data-name="Слой 2"/></svg>