<svg xmlns="http://www.w3.org/2000/svg" viewBox="0 0 216.92 151.48"><path d="M113.46 29.47a15 15 0 0 0 14.92-14.92A14.9 14.9 0 0 0 113.46 0a14.57 14.57 0 0 0-14.55 14.55 14.65 14.65 0 0 0 14.55 14.92zm67.27 10.45c-21.64 0-37.31 14.18-37.31 35.44v47.39l24.25-4.48V72.75c0-6.34 3.73-13.06 12.31-13.06s12.68 6.72 12.68 13.06v50l24.26-4.48V75.36c0-21.26-14.92-35.44-36.19-35.44zm-55.34-.75l-23.87 4.85v78.73l23.87-4.48v-79.1zm-76.14.75c-11.19 0-20.89 4.11-26.86 11.19V39.17L0 44v107.48L24.25 147v-33.95c6.34 6.34 15.3 9 24.25 9 22.76 0 38.8-16.41 38.8-40.67S72.38 39.92 49.25 39.92zm-6 62.31c-12.31 0-19-7.84-19-21.27 0-13.06 8.21-20.52 19-20.52 10.45 0 19 7.46 19 20.52.06 13.43-8.52 21.27-18.97 21.27z" fill="#ed302f" data-name="Слой 2"/></svg>